<?xml version="1.0" encoding="utf-8"?>
<!-- Generator: Adobe Illustrator 25.2.1, SVG Export Plug-In . SVG Version: 6.00 Build 0)  -->
<svg version="1.1" xmlns="http://www.w3.org/2000/svg" xmlns:xlink="http://www.w3.org/1999/xlink" x="0px" y="0px"
	 viewBox="0 0 960 960" style="enable-background:new 0 0 960 960;" xml:space="preserve">
<style type="text/css">
	.st0{display:none;}
	.st1{display:inline;stroke:#FFFFFF;stroke-miterlimit:10;}
	.st2{display:inline;opacity:0.2;fill:#FFE77F;}
	.st3{display:inline;opacity:0.15;fill:#FFE77F;}
	.st4{display:inline;opacity:0.1;fill:#FFE77F;}
	.st5{fill:none;}
	.st6{fill:#FFE77F;}
	.st7{fill:#FFFFFF;}
	.st8{font-family:'Georgia';}
	.st9{font-size:28px;}
</style>
<g id="Calque_1" class="st0">
	<path class="st1" d="M960.7,479c0,265.2-215,480.2-480.2,480.2S0.3,744.2,0.3,479S215.3-1.3,480.5-1.3
		C647.8-1.3,795,84.2,881,213.9C931.4,289.9,960.7,381,960.7,479z"/>
	<path class="st2" d="M79.3,220.1c0,0,123-231.1,411.9-219.3c279.4,11.4,396.2,225,396.2,225L477.5,472.5L79.3,220.1z"/>
	<path class="st3" d="M471.1,959.6c0,0-268.2,3.1-411.7-245.5s12.5-482.9,12.5-482.9l401.7,249L471.1,959.6z"/>
	<path class="st4" d="M892,240.3c0,0,140.2,208.7,8.3,463.3c-132.6,256-412.1,255.8-412.1,255.8l-6.6-480.1L892,240.3z"/>
</g>
<g id="Calque_2">
	<path id="SVGID_x5F_1_x5F_" class="st5" d="M381.2,889.5c-224.5-43.9-370.9-261.4-327-485.9"/>
	<text>	<textPath  xlink:href="#SVGID_x5F_1_x5F_" startOffset="28.3244%">
<tspan  class="st7 st8" style="font-size:55px;">SOCIABLE</tspan>	</textPath>
</text>
	<path class="st6" d="M344.9,902.6c-0.7,0.5-1.3,0.9-1.3,0.9S344.2,903.1,344.9,902.6s1.3-0.9,1.3-0.9S345.6,902.1,344.9,902.6z"/>
	<path id="SVGID_x5F_2_x5F_" class="st5" d="M395.9,859.7C188.7,819.2,53.4,618.3,94,411"/>
	<text>	<textPath  xlink:href="#SVGID_x5F_2_x5F_" startOffset="22.8799%">
<tspan  class="st7 st8" style="font-size:32px;">Frère . Ami . Camarade</tspan>	</textPath>
</text>
	<path id="SVGID_x5F_3_x5F_" class="st5" d="M400.6,824.2C213,787.5,90.6,605.7,127.3,418"/>
	<text>	<textPath  xlink:href="#SVGID_x5F_3_x5F_" startOffset="41.8056%">
<tspan  class="st7 st8 st9">‘‘Voïant’’</tspan><tspan  class="st7 st8 st9">	</tspan>	</textPath>
</text>
	<g>
		<path id="SVGID_x5F_4_x5F_" class="st5" d="M397.8,783c-164-32.1-271-191-239-355.1"/>
		<text>		<textPath  xlink:href="#SVGID_x5F_4_x5F_" startOffset="35.8417%">
<tspan  class="st7 st8 st9">Marcottage</tspan>		</textPath>
</text>
	</g>
	<g>
		<path id="SVGID_x5F_5_x5F_" class="st5" d="M385.8,738.3c-130.6-25.5-215.8-152.1-190.3-282.8"/>
		<text>		<textPath  xlink:href="#SVGID_x5F_5_x5F_" startOffset="23.9262%">
<tspan  class="st7 st8" style="font-size:25px;">Capacité . Besoin</tspan>		</textPath>
</text>
	</g>
	<path id="SVGID_x5F_6_x5F_" class="st5" d="M307.1,822.4c30.6-147.9-64.4-292.6-212.3-323.2"/>
	<text>	<textPath  xlink:href="#SVGID_x5F_6_x5F_" startOffset="43.5558%">
<tspan  class="st7 st8" style="font-size:18px;">Théorie</tspan>	</textPath>
</text>
	<path id="SVGID_x5F_7_x5F_" class="st5" d="M324.1,804.5c29.8-143.8-62.7-284.5-206.4-314.2"/>
	<text>	<textPath  xlink:href="#SVGID_x5F_7_x5F_" startOffset="39.4253%">
<tspan  class="st7 st8" style="font-size:18px;">Historisme</tspan>	</textPath>
</text>
	<path id="SVGID_x5F_8_x5F_" class="st5" d="M341.4,779.4c26.8-129.6-64.4-268.6-194.1-295.5"/>
	<text>	<textPath  xlink:href="#SVGID_x5F_8_x5F_" startOffset="36.377%">
<tspan  class="st7 st8" style="font-size:18px;">Chose Pensante</tspan>	</textPath>
</text>
	<g>
		<path id="SVGID_x5F_9_x5F_" class="st5" d="M351.7,750.4c26.9-114.9-51.8-242.5-167.1-269.6"/>
		<text>		<textPath  xlink:href="#SVGID_x5F_9_x5F_" startOffset="27.069%">
<tspan  class="st7 st8" style="font-size:18px;">Démocratie centralisée</tspan>		</textPath>
</text>
	</g>
	<g>
		<path id="SVGID_x5F_10_x5F_" class="st5" d="M366.7,735.1c27.5-117.3-45.3-234.6-162.5-262.1"/>
		<text>		<textPath  xlink:href="#SVGID_x5F_10_x5F_" startOffset="30.713%">
<tspan  class="st7 st8" style="font-size:18px;">PEUPLE HUMAIN</tspan>		</textPath>
</text>
	</g>
	<g>
		<path id="SVGID_x5F_11_x5F_" class="st5" d="M384.8,711.8C409.3,607.2,337,489.9,232,465.3"/>
		<text>		<textPath  xlink:href="#SVGID_x5F_11_x5F_" startOffset="13.831%">
<tspan  class="st7 st8" style="font-size:18px;">Curieux . Autodidacte . Assumé</tspan>		</textPath>
</text>
	</g>
	<path id="SVGID_x5F_12_x5F_" class="st5" d="M448.4,591.5c-62.5-12.2-103.3-72.8-91.1-135.3"/>
	<text>	<textPath  xlink:href="#SVGID_x5F_12_x5F_" startOffset="32.9977%">
<tspan  class="st7 st8" style="font-size:18px;">Bonheur</tspan>	</textPath>
</text>
	<path id="SVGID_x5F_13_x5F_" class="st5" d="M457.7,574.4c-57.3-11.2-94.7-66.8-83.5-124.1"/>
	<text>	<textPath  xlink:href="#SVGID_x5F_13_x5F_" startOffset="32.3248%">
<tspan  class="st7 st8" style="font-size:16.5041px;">Commun</tspan>	</textPath>
</text>
	<g>
		<path id="SVGID_x5F_14_x5F_" class="st5" d="M524.4,539.2c-37.2,25-87.7,15.2-112.7-22c-25-37.2-15.2-87.7,22-112.7"/>
		<text>		<textPath  xlink:href="#SVGID_x5F_14_x5F_" startOffset="27.7555%">
<tspan  class="st7 st8" style="font-size:16.5041px;">Union planétaire</tspan>		</textPath>
</text>
	</g>
	<g>
		<text transform="matrix(2.149200e-05 -1 1 2.149200e-05 468.5328 951.4437)" class="st7 st8 st9">NECESSITE</text>
	</g>
	<path id="SVGID_x5F_15_x5F_" class="st5" d="M662.4,814.6c-183,105.5-416.8,42.6-522.3-140.4"/>
	<text>	<textPath  xlink:href="#SVGID_x5F_15_x5F_" startOffset="40.514%">
<tspan  class="st7 st8" style="font-size:25px;">Planète</tspan>	</textPath>
</text>
	<path id="SVGID_x5F_16_x5F_" class="st5" d="M642.6,784.8C477,880.2,265.3,823.3,169.8,657.7"/>
	<text>	<textPath  xlink:href="#SVGID_x5F_16_x5F_" startOffset="41.333%">
<tspan  class="st7 st8" style="font-size:25px;">Attentif</tspan>	</textPath>
</text>
	<g>
		<path id="SVGID_x5F_17_x5F_" class="st5" d="M613.5,755.6C468.6,839,283.6,789.3,200.1,644.5"/>
		<text>		<textPath  xlink:href="#SVGID_x5F_17_x5F_" startOffset="40.649%">
<tspan  class="st7 st8" style="font-size:25px;">Fin</tspan>		</textPath>
</text>
	</g>
	<g>
		<path id="SVGID_x5F_18_x5F_" class="st5" d="M575.1,729.7c-115.3,66.5-262.7,26.8-329.2-88.5"/>
		<text>		<textPath  xlink:href="#SVGID_x5F_18_x5F_" startOffset="38.818%">
<tspan  class="st7 st8" style="font-size:25px;">Immensité</tspan>		</textPath>
</text>
	</g>
	<g>
		<text transform="matrix(0.8615 0.5077 -0.5077 0.8615 66.6543 218.7328)" class="st7 st8 st9">PUR/IMPUR</text>
	</g>
	<path id="SVGID_x5F_19_x5F_" class="st5" d="M134,689.3C18.8,512.3,69,275.4,246.1,160.2"/>
	<text>	<textPath  xlink:href="#SVGID_x5F_19_x5F_" startOffset="50.415%">
<tspan  class="st7 st8" style="font-size:25px;">Plan</tspan>	</textPath>
</text>
	<path id="SVGID_x5F_20_x5F_" class="st5" d="M162.7,668C58.5,507.7,103.9,293.3,264.2,189"/>
	<text>	<textPath  xlink:href="#SVGID_x5F_20_x5F_" startOffset="46.2158%">
<tspan  class="st7 st8" style="font-size:25px;">Précis</tspan>	</textPath>
</text>
	<g>
		<path id="SVGID_x5F_21_x5F_" class="st5" d="M190.3,637.3C99.2,497.2,138.9,309.7,279,218.6"/>
		<text>		<textPath  xlink:href="#SVGID_x5F_21_x5F_" startOffset="39.432%">
<tspan  class="st7 st8" style="font-size:25px;">Moyens</tspan>		</textPath>
</text>
	</g>
	<g>
		<path id="SVGID_x5F_22_x5F_" class="st5" d="M214,597.6c-72.6-111.6-40.9-260.9,70.7-333.4"/>
		<text>		<textPath  xlink:href="#SVGID_x5F_22_x5F_" startOffset="34.4727%">
<tspan  class="st7 st8" style="font-size:25px;">Eternité</tspan>		</textPath>
</text>
	</g>
	<path id="SVGID_x5F_23_x5F_" class="st5" d="M887.8,374c62.5,220-65.3,449-285.3,511.5"/>
	<text>	<textPath  xlink:href="#SVGID_x5F_23_x5F_" startOffset="32.5146%">
<tspan  class="st7 st8" style="font-size:55px;">MENEUR</tspan>	</textPath>
</text>
	<path class="st6" d="M915.9,400.5c0.7,0.4,1.3,0.7,1.3,0.7S916.6,400.9,915.9,400.5s-1.3-0.7-1.3-0.7S915.1,400.1,915.9,400.5z"/>
	<path id="SVGID_x5F_24_x5F_" class="st5" d="M854.5,374.4C912.2,577.5,794.2,789,591,846.7"/>
	<text>	<textPath  xlink:href="#SVGID_x5F_24_x5F_" startOffset="25.9521%">
<tspan  class="st7 st8" style="font-size:32px;">Maître . Père .  Auteur</tspan>	</textPath>
</text>
	<path id="SVGID_x5F_25_x5F_" class="st5" d="M820.7,386.3c52.2,183.9-54.6,375.3-238.5,427.5"/>
	<text>	<textPath  xlink:href="#SVGID_x5F_25_x5F_" startOffset="39.4321%">
<tspan  class="st7 st8 st9">‘‘Croyant’’</tspan><tspan  class="st7 st8 st9">	</tspan>	</textPath>
</text>
	<g>
		<path id="SVGID_x5F_26_x5F_" class="st5" d="M785.3,407.4c45.6,160.8-47.7,328.1-208.5,373.8"/>
		<text>		<textPath  xlink:href="#SVGID_x5F_26_x5F_" startOffset="38.5498%">
<tspan  class="st7 st8 st9">Esclavage</tspan>		</textPath>
</text>
	</g>
	<path id="SVGID_x5F_27_x5F_" class="st5" d="M861.5,470.4C715.7,510,629.7,660.3,669.3,806"/>
	<text>	<textPath  xlink:href="#SVGID_x5F_27_x5F_" startOffset="40.57%">
<tspan  class="st7 st8" style="font-size:18px;">Principe</tspan>	</textPath>
</text>
	<path id="SVGID_x5F_28_x5F_" class="st5" d="M837.8,463.4C696.1,501.9,612.5,648,651,789.6"/>
	<text>	<textPath  xlink:href="#SVGID_x5F_28_x5F_" startOffset="35.0586%">
<tspan  class="st7 st8" style="font-size:18px;">Proprio . Citoyen</tspan>	</textPath>
</text>
	<path id="SVGID_x5F_29_x5F_" class="st5" d="M807.6,459.3c-127.7,34.7-210.4,179-175.7,306.8"/>
	<text>	<textPath  xlink:href="#SVGID_x5F_29_x5F_" startOffset="36.377%">
<tspan  class="st7 st8" style="font-size:18px;">Masculinisme</tspan>	</textPath>
</text>
	<g>
		<path id="SVGID_x5F_30_x5F_" class="st5" d="M777.1,463.2c-114.7,28-192.8,156-164.8,271"/>
		<text>		<textPath  xlink:href="#SVGID_x5F_30_x5F_" startOffset="27.8854%">
<tspan  class="st7 st8" style="font-size:18px;">Economie . Politque</tspan>		</textPath>
</text>
	</g>
	<g>
		<path id="SVGID_x5F_31_x5F_" class="st5" d="M756.6,456.9c-117,28.5-188.7,146.5-160.2,263.5"/>
		<text>		<textPath  xlink:href="#SVGID_x5F_31_x5F_" startOffset="37.5548%">
<tspan  class="st7 st8" style="font-size:18px;">Imagination</tspan>		</textPath>
</text>
	</g>
	<g>
		<path id="SVGID_x5F_32_x5F_" class="st5" d="M727.6,451.2C623.3,476.7,551.4,594.3,577,699"/>
		<text>		<textPath  xlink:href="#SVGID_x5F_32_x5F_" startOffset="29.1716%">
<tspan  class="st7 st8" style="font-size:18px;">Juste . Vrai . Saint</tspan>		</textPath>
</text>
	</g>
	<path id="SVGID_x5F_33_x5F_" class="st5" d="M591.6,448.9c17.4,61.3-18.2,125.1-79.5,142.5"/>
	<text>	<textPath  xlink:href="#SVGID_x5F_33_x5F_" startOffset="35.156%">
<tspan  class="st7 st8" style="font-size:18px;">Nation</tspan>	</textPath>
</text>
	<path id="SVGID_x5F_34_x5F_" class="st5" d="M572.1,448.4c16,56.2-16.7,114.7-72.9,130.6"/>
	<text>	<textPath  xlink:href="#SVGID_x5F_34_x5F_" startOffset="41.6321%">
<tspan  class="st7 st8" style="font-size:16.5041px;">Phare</tspan>	</textPath>
</text>
	<g>
		<path id="SVGID_x5F_35_x5F_" class="st5" d="M510.6,404.8c39.2,21.8,53.2,71.3,31.4,110.5c-21.8,39.2-71.3,53.2-110.5,31.4"/>
		<text>		<textPath  xlink:href="#SVGID_x5F_35_x5F_" startOffset="33.8077%">
<tspan  class="st7 st8" style="font-size:16.5041px;">Patrie Céleste</tspan>		</textPath>
</text>
	</g>
	<g>
		<text transform="matrix(-0.8882 0.4595 -0.4595 -0.8882 898.1508 261.7337)" class="st7 st8 st9">AME PESONNELLE</text>
	</g>
	<path id="SVGID_x5F_36_x5F_" class="st5" d="M693.8,157.1c176.9,115.5,226.6,352.4,111.1,529.3"/>
	<text>	<textPath  xlink:href="#SVGID_x5F_36_x5F_" startOffset="40.514%">
<tspan  class="st7 st8" style="font-size:25px;">Prédestination</tspan>	</textPath>
</text>
	<path id="SVGID_x5F_37_x5F_" class="st5" d="M676.1,188.3c160.1,104.5,205.1,319,100.6,479.1"/>
	<text>	<textPath  xlink:href="#SVGID_x5F_37_x5F_" startOffset="41.333%">
<tspan  class="st7 st8" style="font-size:25px;">Mystère</tspan>	</textPath>
</text>
	<g>
		<path id="SVGID_x5F_38_x5F_" class="st5" d="M663.2,227.5c140,91.4,179.3,278.9,88,418.9"/>
		<text>		<textPath  xlink:href="#SVGID_x5F_38_x5F_" startOffset="40.649%">
<tspan  class="st7 st8" style="font-size:25px;">Grace</tspan>		</textPath>
</text>
	</g>
	<g>
		<path id="SVGID_x5F_39_x5F_" class="st5" d="M657.6,273.4c111.5,72.8,142.8,222.1,70,333.6"/>
		<text>		<textPath  xlink:href="#SVGID_x5F_39_x5F_" startOffset="38.818%">
<tspan  class="st7 st8" style="font-size:25px;">Création</tspan>		</textPath>
</text>
	</g>
	<path id="SVGID_x5F_40_x5F_" class="st5" d="M821.1,685.1C715.3,867.9,481.4,930.3,298.6,824.5"/>
	<text>	<textPath  xlink:href="#SVGID_x5F_40_x5F_" startOffset="34.3623%">
<tspan  class="st7 st8" style="font-size:25px;">Libre Arbitre</tspan>	</textPath>
</text>
	<path id="SVGID_x5F_41_x5F_" class="st5" d="M789.1,669.1c-95.8,165.5-307.5,222-473,126.2"/>
	<text>	<textPath  xlink:href="#SVGID_x5F_41_x5F_" startOffset="47.0703%">
<tspan  class="st7 st8" style="font-size:25px;">Salut</tspan>	</textPath>
</text>
	<g>
		<path id="SVGID_x5F_42_x5F_" class="st5" d="M749.2,658.4C665.5,803,480.4,852.4,335.7,768.7"/>
		<text>		<textPath  xlink:href="#SVGID_x5F_42_x5F_" startOffset="39.168%">
<tspan  class="st7 st8" style="font-size:25px;">Mérite</tspan>		</textPath>
</text>
	</g>
	<g>
		<path id="SVGID_x5F_43_x5F_" class="st5" d="M703.1,655.2C636.4,770.4,489,809.7,373.8,743.1"/>
		<text>		<textPath  xlink:href="#SVGID_x5F_43_x5F_" startOffset="28.3203%">
<tspan  class="st7 st8" style="font-size:25px;">Jugement</tspan>		</textPath>
</text>
	</g>
	
		<rect x="520.6" y="555.6" transform="matrix(0.4871 -0.8733 0.8733 0.4871 -206.4035 774.028)" class="st5" width="70.5" height="14.3"/>
	<path id="SVGID_x5F_44_x5F_" class="st5" d="M169.4,178.1C323.6,9.2,585.5-2.7,754.4,151.5"/>
	<text>	<textPath  xlink:href="#SVGID_x5F_44_x5F_" startOffset="38.5119%">
<tspan  class="st7 st8" style="font-size:55px;">VOUE</tspan>	</textPath>
</text>
	<path class="st6" d="M177.1,140.2c0-0.8-0.1-1.5-0.1-1.5S177,139.4,177.1,140.2c0,0.8,0.1,1.5,0.1,1.5S177.1,141.1,177.1,140.2z"/>
	<path id="SVGID_x5F_45_x5F_" class="st5" d="M187.2,206.2c142.4-156,384.3-167,540.3-24.5"/>
	<text>	<textPath  xlink:href="#SVGID_x5F_45_x5F_" startOffset="24.5098%">
<tspan  class="st7 st8" style="font-size:32px;">Fille . Mère . Nourrice	</tspan>	</textPath>
</text>
	<path id="SVGID_x5F_46_x5F_" class="st5" d="M215.1,228.6C344,87.5,562.9,77.5,704.1,206.4"/>
	<text>	<textPath  xlink:href="#SVGID_x5F_46_x5F_" startOffset="38.752%">
<tspan  class="st7 st8 st9">‘‘Idolâtre’’</tspan>	</textPath>
</text>
	<g>
		<path id="SVGID_x5F_47_x5F_" class="st5" d="M251.7,247.6c112.7-123.4,304.1-132.1,427.6-19.4"/>
		<text>		<textPath  xlink:href="#SVGID_x5F_47_x5F_" startOffset="38.7995%">
<tspan  class="st7 st8 st9">Chasse</tspan>		</textPath>
</text>
	</g>
	<path id="SVGID_x5F_48_x5F_" class="st5" d="M265.2,149.7c110.4,103.1,283.4,97.1,386.5-13.2"/>
	<text>	<textPath  xlink:href="#SVGID_x5F_48_x5F_" startOffset="41.6992%">
<tspan  class="st7 st8" style="font-size:18px;">Précepte</tspan>	</textPath>
</text>
	<path id="SVGID_x5F_49_x5F_" class="st5" d="M271.6,173.6c107.3,100.2,275.5,94.5,375.8-12.9"/>
	<text>	<textPath  xlink:href="#SVGID_x5F_49_x5F_" startOffset="38.0859%">
<tspan  class="st7 st8" style="font-size:18px;">Brave . Héro</tspan>	</textPath>
</text>
	<path id="SVGID_x5F_50_x5F_" class="st5" d="M284.1,201.4c96.7,90.3,262.9,84.7,353.3-12.1"/>
	<text>	<textPath  xlink:href="#SVGID_x5F_50_x5F_" startOffset="38.5097%">
<tspan  class="st7 st8" style="font-size:18px;">Féminisme</tspan>	</textPath>
</text>
	<g>
		<path id="SVGID_x5F_51_x5F_" class="st5" d="M303.5,225.2c84.1,82.8,234.1,81.9,317.2-2.5"/>
		<text>		<textPath  xlink:href="#SVGID_x5F_51_x5F_" startOffset="38.38%">
<tspan  class="st7 st8" style="font-size:18px;">Don Vivant</tspan>		</textPath>
</text>
	</g>
	<g>
		<path id="SVGID_x5F_52_x5F_" class="st5" d="M308.8,246c85.8,84.5,223.9,83.4,308.4-2.5"/>
		<text>		<textPath  xlink:href="#SVGID_x5F_52_x5F_" startOffset="40.5273%">
<tspan  class="st7 st8" style="font-size:18px;">Mémoire</tspan>		</textPath>
</text>
	</g>
	<g>
		<path id="SVGID_x5F_53_x5F_" class="st5" d="M319.3,273.6c76.5,75.3,214.4,74.5,290-2.3"/>
		<text>		<textPath  xlink:href="#SVGID_x5F_53_x5F_" startOffset="19.5801%">
<tspan  class="st7 st8" style="font-size:18px;">Ancestral . Magique . Sage</tspan>		</textPath>
</text>
	</g>
	<path id="SVGID_x5F_54_x5F_" class="st5" d="M388.9,390.5c43-47,115.9-50.4,163-7.4"/>
	<text>	<textPath  xlink:href="#SVGID_x5F_54_x5F_" startOffset="35.458%">
<tspan  class="st7 st8" style="font-size:18px;">Peuple</tspan>	</textPath>
</text>
	<path id="SVGID_x5F_55_x5F_" class="st5" d="M398.7,407.3c39.4-43.1,106.3-46.2,149.4-6.8"/>
	<text>	<textPath  xlink:href="#SVGID_x5F_55_x5F_" startOffset="37.1063%">
<tspan  class="st7 st8" style="font-size:16.5041px;">Bijou</tspan>	</textPath>
</text>
	<g>
		<path id="SVGID_x5F_56_x5F_" class="st5" d="M394,482.6c-2-44.8,32.6-82.8,77.4-84.8c44.8-2,82.8,32.6,84.8,77.4"/>
		<text>		<textPath  xlink:href="#SVGID_x5F_56_x5F_" startOffset="29.8828%">
<tspan  class="st7 st8" style="font-size:16.5041px;">Terre Promise</tspan>		</textPath>
</text>
	</g>
	<path id="SVGID_x5F_57_x5F_" class="st5" d="M87,457.2C92.2,246,267.5,79,478.6,84.1"/>
	<text>	<textPath  xlink:href="#SVGID_x5F_57_x5F_" startOffset="40.514%">
<tspan  class="st7 st8" style="font-size:25px;">Divination</tspan>	</textPath>
</text>
	<path id="SVGID_x5F_58_x5F_" class="st5" d="M122.8,455.8c4.6-191.1,163.3-342.3,354.5-337.7"/>
	<text>	<textPath  xlink:href="#SVGID_x5F_58_x5F_" startOffset="41.333%">
<tspan  class="st7 st8" style="font-size:25px;">Secret</tspan>	</textPath>
</text>
	<g>
		<path id="SVGID_x5F_59_x5F_" class="st5" d="M162.9,446.1C167,279,305.7,146.9,472.8,150.9"/>
		<text>		<textPath  xlink:href="#SVGID_x5F_59_x5F_" startOffset="40.649%">
<tspan  class="st7 st8" style="font-size:25px;">Force</tspan>		</textPath>
</text>
	</g>
	<g>
		<path id="SVGID_x5F_60_x5F_" class="st5" d="M205,426.8c3.2-133.1,113.7-238.3,246.8-235.1"/>
		<text>		<textPath  xlink:href="#SVGID_x5F_60_x5F_" startOffset="38.818%">
<tspan  class="st7 st8" style="font-size:25px;">Emanation</tspan>		</textPath>
</text>
	</g>
	<path id="SVGID_x5F_61_x5F_" class="st5" d="M399.6,90.5C607.2,51.9,806.8,189,845.3,396.7"/>
	<text>	<textPath  xlink:href="#SVGID_x5F_61_x5F_" startOffset="52.71%">
<tspan  class="st7 st8" style="font-size:25px;">Prophétie</tspan>	</textPath>
</text>
	<path id="SVGID_x5F_62_x5F_" class="st5" d="M408.3,125.2c188-34.9,368.6,89.2,403.5,277.2"/>
	<text>	<textPath  xlink:href="#SVGID_x5F_62_x5F_" startOffset="54.248%">
<tspan  class="st7 st8" style="font-size:25px;">Alliance</tspan>	</textPath>
</text>
	<g>
		<path id="SVGID_x5F_63_x5F_" class="st5" d="M426,162.4c164.3-30.5,322.3,78,352.8,242.3"/>
		<text>		<textPath  xlink:href="#SVGID_x5F_63_x5F_" startOffset="48.2737%">
<tspan  class="st7 st8" style="font-size:25px;">Honneur</tspan>		</textPath>
</text>
	</g>
	<g>
		<path id="SVGID_x5F_64_x5F_" class="st5" d="M453.6,199.6c130.9-24.3,256.7,62.1,280.9,193"/>
		<text>		<textPath  xlink:href="#SVGID_x5F_64_x5F_" startOffset="52.2949%">
<tspan  class="st7 st8" style="font-size:25px;">Tabou</tspan>		</textPath>
</text>
	</g>
	
		<rect x="400.9" y="142.9" transform="matrix(0.999 -4.537453e-02 4.537453e-02 0.999 -6.0821 18.4088)" class="st5" width="3" height="0.5"/>
	<g>
		<text transform="matrix(0.8751 -0.484 0.484 0.8751 626.3377 382.3338)" class="st7 st8 st9">CERVEAU COLLECTIF</text>
	</g>
	<g>
		<text transform="matrix(-0.8822 -0.4708 0.4708 -0.8822 217.1644 334.9104)" class="st7 st8 st9">MOUVEMENT</text>
	</g>
	<g>
		<text transform="matrix(2.630903e-02 0.9997 -0.9997 2.630903e-02 483.5585 689.0327)" class="st7 st8 st9">IMPERATIF MORAL</text>
	</g>
	<g>
		<path id="SVGID_x5F_65_x5F_" class="st5" d="M296.9,257.1c90.7-97.4,243.2-102.9,340.6-12.2"/>
		<text>		<textPath  xlink:href="#SVGID_x5F_65_x5F_" startOffset="34.5347%">
<tspan  class="st7 st8" style="font-size:25px;">Fécondité</tspan>		</textPath>
</text>
	</g>
	<g>
		<path id="SVGID_x5F_66_x5F_" class="st5" d="M754.8,445.4c29.7,129.8-51.4,259-181.2,288.7"/>
		<text>		<textPath  xlink:href="#SVGID_x5F_66_x5F_" startOffset="37.3174%">
<tspan  class="st7 st8" style="font-size:25px;">Travail</tspan>		</textPath>
</text>
	</g>
	
		<rect x="718.6" y="566.7" transform="matrix(0.5062 -0.8624 0.8624 0.5062 -135.893 903.1758)" class="st5" width="4.2" height="7.2"/>
</g>
</svg>
