<?xml version="1.0" encoding="utf-8"?>
<!-- Generator: Adobe Illustrator 25.2.1, SVG Export Plug-In . SVG Version: 6.00 Build 0)  -->
<svg version="1.1" xmlns="http://www.w3.org/2000/svg" xmlns:xlink="http://www.w3.org/1999/xlink" x="0px" y="0px"
	 viewBox="0 0 977.1 973.3" style="enable-background:new 0 0 977.1 973.3;" xml:space="preserve">
<style type="text/css">
	@font-face {
		font-family: 'EdwardianScriptITC';
		font-style: normal;
		font-weight: 400;
		src: url(../font/ITCEDSCR.woff2) format('woff2');
	}

	@font-face {
		font-family: 'FrenchScriptMT';
		font-style: normal;
		font-weight: 400;
		src: url(../font/FrenchScriptMT.woff2) format('woff2');
	}

	.smallcaps { font-variant-caps: small-caps; }
	.bold { font-weight:bold; }

	.st0{fill:none;stroke:#FFFFFF;stroke-miterlimit:10;}
	.st1{fill:none;}
	.st2{fill:#FFE77F;}
	.st3{fill:#FFFFFF;}
	.st4{font-family:'Georgia';}
	.st5{font-size:28px;}
	.st6{font-family:'MyriadPro-Regular';}
	.st7{font-size:12px;}
</style>
<!-- <g id="Calque_1">
	<path class="st0" d="M969.9,486.1c0,265.2-215,480.2-480.2,480.2S9.5,751.3,9.5,486.1S224.5,5.9,489.7,5.9
		c167.2,0,314.5,85.5,400.5,215.2C940.6,297,969.9,388.1,969.9,486.1z"/>
</g> -->
<g id="Calque_2">
	<path id="SVGID_x5F_1_x5F_" class="st1" d="M390.4,896.7c-224.5-43.9-370.9-261.4-327-485.9"/>
	<text>	<textPath  xlink:href="#SVGID_x5F_1_x5F_" startOffset="28.324%">
<tspan  class="st3 st4 bold" style="font-size:55px;">SOCIABLE</tspan>	</textPath>
</text>
	<path class="st2" d="M354.1,909.7c-0.7,0.5-1.3,0.9-1.3,0.9S353.4,910.2,354.1,909.7s1.3-0.9,1.3-0.9S354.8,909.3,354.1,909.7z"/>
	<path id="SVGID_x5F_2_x5F_" class="st1" d="M405.1,866.8c-207.3-40.5-342.5-241.4-302-448.7"/>
	<text>	<textPath  xlink:href="#SVGID_x5F_2_x5F_" startOffset="22.88%">
<tspan  class="st3 st4" style="font-size:32px;">Frère . Ami . Camarade</tspan>	</textPath>
</text>
	<path id="SVGID_x5F_3_x5F_" class="st1" d="M409.8,831.3c-187.6-36.7-310-218.5-273.4-406.1"/>
	<text>	<textPath  xlink:href="#SVGID_x5F_3_x5F_" startOffset="41.806%">
<tspan  class="st3 st4 st5 bold">‘‘Voïant’’</tspan><tspan  class="st3 st4 st5">	</tspan>	</textPath>
</text>
	<g>
		<path id="SVGID_x5F_4_x5F_" class="st1" d="M407,790.2c-164-32.1-271-191-239-355.1"/>
		<text>		<textPath  xlink:href="#SVGID_x5F_4_x5F_" startOffset="35.842%">
<tspan  class="st3 st4 st5">Marcottage</tspan>		</textPath>
</text>
	</g>
	<g>
		<path id="SVGID_x5F_5_x5F_" class="st1" d="M395,745.5c-130.6-25.5-215.8-152.1-190.3-282.8"/>
		<text>		<textPath  xlink:href="#SVGID_x5F_5_x5F_" startOffset="23.926%">
<tspan  class="st3 st4" style="font-size:25px;">Capacité . Besoin</tspan>		</textPath>
</text>
	</g>
	<path id="SVGID_x5F_6_x5F_" class="st1" d="M316.3,829.6C346.9,681.7,251.9,537,104,506.4"/>
	<text>	<textPath  xlink:href="#SVGID_x5F_6_x5F_" startOffset="43.556%">
<tspan  class="st3 st4" style="font-size:18px;">Théorie</tspan>	</textPath>
</text>
	<path id="SVGID_x5F_7_x5F_" class="st1" d="M333.3,811.7c29.8-143.8-62.7-284.5-206.4-314.2"/>
	<text>	<textPath  xlink:href="#SVGID_x5F_7_x5F_" startOffset="39.425%">
<tspan  class="st3 st4" style="font-size:18px;">Historisme</tspan>	</textPath>
</text>
	<path id="SVGID_x5F_8_x5F_" class="st1" d="M350.6,786.5c26.8-129.6-64.4-268.6-194.1-295.5"/>
	<text>	<textPath  xlink:href="#SVGID_x5F_8_x5F_" startOffset="36.377%">
<tspan  class="st3 st4" style="font-size:18px;">Chose Pensante</tspan>	</textPath>
</text>
	<g>
		<path id="SVGID_x5F_9_x5F_" class="st1" d="M360.9,757.6C387.9,642.7,309.1,515,193.8,488"/>
		<text>		<textPath  xlink:href="#SVGID_x5F_9_x5F_" startOffset="27.069%">
<tspan  class="st3 st4" style="font-size:18px;">Démocratie centralisée</tspan>		</textPath>
</text>
	</g>
	<g>
		<path id="SVGID_x5F_10_x5F_" class="st1" d="M375.9,742.2c27.5-117.3-45.3-234.6-162.5-262.1"/>
		<text>		<textPath  xlink:href="#SVGID_x5F_10_x5F_" startOffset="30.713%">
<tspan  class="st3 st4" style="font-size:18px;">PEUPLE HUMAIN</tspan>		</textPath>
</text>
	</g>
	<g>
		<path id="SVGID_x5F_11_x5F_" class="st1" d="M394,718.9c24.5-104.6-47.9-221.9-152.8-246.5"/>
		<text>		<textPath  xlink:href="#SVGID_x5F_11_x5F_" startOffset="13.831%">
<tspan  class="st3 st4" style="font-size:18px;">Curieux . Autodidacte . Assumé</tspan>		</textPath>
</text>
	</g>
	<path id="SVGID_x5F_12_x5F_" class="st1" d="M457.6,598.6c-62.5-12.2-103.3-72.8-91.1-135.3"/>
	<text>	<textPath  xlink:href="#SVGID_x5F_12_x5F_" startOffset="32.998%">
<tspan  class="st3 st4" style="font-size:18px;">Bonheur</tspan>	</textPath>
</text>
	<path id="SVGID_x5F_13_x5F_" class="st1" d="M466.9,581.5c-57.3-11.2-94.7-66.8-83.5-124.1"/>
	<text>	<textPath  xlink:href="#SVGID_x5F_13_x5F_" startOffset="32.325%">
<tspan  class="st3 st4" style="font-size:16.5041px;">Commun</tspan>	</textPath>
</text>
	<g>
		<path id="SVGID_x5F_14_x5F_" class="st1" d="M533.6,546.4c-37.2,25-87.7,15.2-112.7-22c-25-37.2-15.2-87.7,22-112.7"/>
		<text>		<textPath  xlink:href="#SVGID_x5F_14_x5F_" startOffset="27.7555%">
<tspan  class="st3 st4" style="font-size:16.5041px;">Union planétaire</tspan>		</textPath>
</text>
	</g>
	<g>
		<text transform="matrix(2.000000e-05 -1 1 2.000000e-05 473.2565 951.1017)" class="st3 st4 st5 smallcaps">Nécessité</text>
	</g>
	<path id="SVGID_x5F_15_x5F_" class="st1" d="M671.6,821.8c-183,105.5-416.8,42.6-522.3-140.4"/>
	<text>	<textPath  xlink:href="#SVGID_x5F_15_x5F_" startOffset="40.514%">
<tspan  class="st3" style="font-family:'FrenchScriptMT'; font-size:36px;">Planète</tspan>	</textPath>
</text>
	<path id="SVGID_x5F_16_x5F_" class="st1" d="M651.8,791.9C486.2,887.4,274.5,830.5,179,664.8"/>
	<text>	<textPath  xlink:href="#SVGID_x5F_16_x5F_" startOffset="41.333%">
<tspan  class="st3" style="font-family:'EdwardianScriptITC'; font-size:34px;">Attentif</tspan>	</textPath>
</text>
	<g>
		<path id="SVGID_x5F_17_x5F_" class="st1" d="M622.7,762.7c-144.8,83.5-329.9,33.7-413.3-111.1"/>
		<text>		<textPath  xlink:href="#SVGID_x5F_17_x5F_" startOffset="40.649%">
<tspan  class="st3 st4" style="font-size:25px;">Fin</tspan>		</textPath>
</text>
	</g>
	<g>
		<path id="SVGID_x5F_18_x5F_" class="st1" d="M584.3,736.9c-115.3,66.5-262.7,26.8-329.2-88.5"/>
		<text>		<textPath  xlink:href="#SVGID_x5F_18_x5F_" startOffset="38.818%">
<tspan  class="st3 st4" style="font-size:25px;">Tâches</tspan>		</textPath>
</text>
	</g>
	<g>
		<text transform="matrix(0.8356 0.5494 -0.5494 0.8356 97.9644 240.8811)" class="st3 st4 st5 smallcaps">Pur/Impur</text>
	</g>
	<path id="SVGID_x5F_19_x5F_" class="st1" d="M143.2,696.5C28,519.4,78.2,282.5,255.3,167.4"/>
	<text>	<textPath  xlink:href="#SVGID_x5F_19_x5F_" startOffset="52.734%">
<tspan  class="st3" style="font-family:'FrenchScriptMT'; font-size:36px;">Plan</tspan>	</textPath>
</text>
	<path id="SVGID_x5F_20_x5F_" class="st1" d="M171.9,675.1C67.7,514.8,113.1,300.4,273.4,196.2"/>
	<text>	<textPath  xlink:href="#SVGID_x5F_20_x5F_" startOffset="47.71%">
<tspan  class="st3" style="font-family:'EdwardianScriptITC'; font-size:34px;">Précis</tspan>	</textPath>
</text>
	<g>
		<path id="SVGID_x5F_21_x5F_" class="st1" d="M199.5,644.4c-91.1-140.1-51.4-327.6,88.7-418.7"/>
		<text>		<textPath  xlink:href="#SVGID_x5F_21_x5F_" startOffset="41.382%">
<tspan  class="st3 st4" style="font-size:25px;">Moyens</tspan>		</textPath>
</text>
	</g>
	<g>
		<path id="SVGID_x5F_22_x5F_" class="st1" d="M223.2,604.7c-72.6-111.6-40.9-260.9,70.7-333.4"/>
		<text>		<textPath  xlink:href="#SVGID_x5F_22_x5F_" startOffset="27.8%">
<tspan  class="st3 st4" style="font-size:25px;">Territoires</tspan>		</textPath>
</text>
	</g>
	<path id="SVGID_x5F_23_x5F_" class="st1" d="M902,383.2c62.5,220-65.3,449-285.3,511.5"/>
	<text>	<textPath  xlink:href="#SVGID_x5F_23_x5F_" startOffset="32.515%">
<tspan  class="st3 st4 bold" style="font-size:55px;">MENEUR</tspan>	</textPath>
</text>
	<path class="st2" d="M925.1,407.6c0.7,0.4,1.3,0.7,1.3,0.7S925.8,408,925.1,407.6c-0.7-0.4-1.3-0.7-1.3-0.7
		S924.3,407.2,925.1,407.6z"/>
	<path id="SVGID_x5F_24_x5F_" class="st1" d="M868.7,383.5c57.7,203.2-60.3,414.6-263.5,472.3"/>
	<text>	<textPath  xlink:href="#SVGID_x5F_24_x5F_" startOffset="25.952%">
<tspan  class="st3 st4" style="font-size:32px;">Maître . Père .  Auteur</tspan>	</textPath>
</text>
	<path id="SVGID_x5F_25_x5F_" class="st1" d="M834.9,395.4c52.2,183.9-54.6,375.3-238.5,427.5"/>
	<text>	<textPath  xlink:href="#SVGID_x5F_25_x5F_" startOffset="39.432%">
<tspan  class="st3 st4 st5 bold">‘‘Croyant’’</tspan><tspan  class="st3 st4 st5">	</tspan>	</textPath>
</text>
	<g>
		<path id="SVGID_x5F_26_x5F_" class="st1" d="M799.5,416.6c45.6,160.8-47.7,328.1-208.5,373.8"/>
		<text>		<textPath  xlink:href="#SVGID_x5F_26_x5F_" startOffset="38.55%">
<tspan  class="st3 st4 st5">Esclavage</tspan>		</textPath>
</text>
	</g>
	<path id="SVGID_x5F_27_x5F_" class="st1" d="M870.7,477.6c-145.7,39.6-231.7,189.9-192.1,335.6"/>
	<text>	<textPath  xlink:href="#SVGID_x5F_27_x5F_" startOffset="40.57%">
<tspan  class="st3 st4" style="font-size:18px;">Principe</tspan>	</textPath>
</text>
	<path id="SVGID_x5F_28_x5F_" class="st1" d="M847,470.5C705.3,509,621.7,655.1,660.2,796.8"/>
	<text>	<textPath  xlink:href="#SVGID_x5F_28_x5F_" startOffset="35.059%">
<tspan  class="st3 st4" style="font-size:18px;">Proprio . Citoyen</tspan>	</textPath>
</text>
	<path id="SVGID_x5F_29_x5F_" class="st1" d="M816.7,466.5c-127.7,34.7-210.4,179-175.7,306.8"/>
	<text>	<textPath  xlink:href="#SVGID_x5F_29_x5F_" startOffset="36.377%">
<tspan  class="st3 st4" style="font-size:18px;">Masculinisme</tspan>	</textPath>
</text>
	<g>
		<path id="SVGID_x5F_30_x5F_" class="st1" d="M786.3,470.4c-114.7,28-192.8,156-164.8,271"/>
		<text>		<textPath  xlink:href="#SVGID_x5F_30_x5F_" startOffset="27.885%">
<tspan  class="st3 st4" style="font-size:18px;">Economie . Politque</tspan>		</textPath>
</text>
	</g>
	<g>
		<path id="SVGID_x5F_31_x5F_" class="st1" d="M765.8,464c-117,28.5-188.7,146.5-160.2,263.5"/>
		<text>		<textPath  xlink:href="#SVGID_x5F_31_x5F_" startOffset="37.555%">
<tspan  class="st3 st4" style="font-size:18px;">Imagination</tspan>		</textPath>
</text>
	</g>
	<g>
		<path id="SVGID_x5F_32_x5F_" class="st1" d="M736.8,458.4c-104.3,25.4-176.2,143.1-150.7,247.8"/>
		<text>		<textPath  xlink:href="#SVGID_x5F_32_x5F_" startOffset="29.172%">
<tspan  class="st3 st4" style="font-size:18px;">Juste . Vrai . Saint</tspan>		</textPath>
</text>
	</g>
	<path id="SVGID_x5F_33_x5F_" class="st1" d="M600.8,456.1c17.4,61.3-18.2,125.1-79.5,142.5"/>
	<text>	<textPath  xlink:href="#SVGID_x5F_33_x5F_" startOffset="35.156%">
<tspan  class="st3 st4" style="font-size:18px;">Nation</tspan>	</textPath>
</text>
	<path id="SVGID_x5F_34_x5F_" class="st1" d="M581.3,455.5c16,56.2-16.7,114.7-72.9,130.6"/>
	<text>	<textPath  xlink:href="#SVGID_x5F_34_x5F_" startOffset="41.632%">
<tspan  class="st3 st4" style="font-size:16.5041px;">Phare</tspan>	</textPath>
</text>
	<g>
		<path id="SVGID_x5F_35_x5F_" class="st1" d="M519.8,412c39.2,21.8,53.2,71.3,31.4,110.5c-21.8,39.2-71.3,53.2-110.5,31.4"/>
		<text>		<textPath  xlink:href="#SVGID_x5F_35_x5F_" startOffset="33.8075%">
<tspan  class="st3 st4" style="font-size:16.5041px;">Patrie Céleste</tspan>		</textPath>
</text>
	</g>
	<g>
		<text transform="matrix(-0.8675 0.4975 -0.4975 -0.8675 895.7303 259.3683)" class="st3 st4 st5 smallcaps">Ame Personnelle</text>
	</g>
	<path id="SVGID_x5F_36_x5F_" class="st1" d="M702.9,164.3c176.9,115.5,226.6,352.4,111.1,529.3"/>
	<text>	<textPath  xlink:href="#SVGID_x5F_36_x5F_" startOffset="40.514%">
<tspan  class="st3" style="font-family:'FrenchScriptMT'; font-size:36px;">Prédestination</tspan>	</textPath>
</text>
	<path id="SVGID_x5F_37_x5F_" class="st1" d="M685.3,195.4c160.1,104.5,205.1,319,100.6,479.1"/>
	<text>	<textPath  xlink:href="#SVGID_x5F_37_x5F_" startOffset="41.333%">
<tspan  class="st3" style="font-family:'EdwardianScriptITC'; font-size:34px;">Mystère</tspan>	</textPath>
</text>
	<g>
		<path id="SVGID_x5F_38_x5F_" class="st1" d="M672.4,234.7c140,91.4,179.3,278.9,88,418.9"/>
		<text>		<textPath  xlink:href="#SVGID_x5F_38_x5F_" startOffset="40.649%">
<tspan  class="st3 st4" style="font-size:25px;">Grace</tspan>		</textPath>
</text>
	</g>
	<g>
		<path id="SVGID_x5F_39_x5F_" class="st1" d="M666.7,280.6c111.5,72.8,142.8,222.1,70,333.6"/>
		<text>		<textPath  xlink:href="#SVGID_x5F_39_x5F_" startOffset="38.818%">
<tspan  class="st3 st4" style="font-size:25px;">Création</tspan>		</textPath>
</text>
	</g>
	<path id="SVGID_x5F_40_x5F_" class="st1" d="M830.3,692.2C724.5,875,490.6,937.5,307.8,831.7"/>
	<text>	<textPath  xlink:href="#SVGID_x5F_40_x5F_" startOffset="34.362%">
<tspan  class="st3" style="font-family:'FrenchScriptMT'; font-size:36px;">Libre Arbitre</tspan>	</textPath>
</text>
	<path id="SVGID_x5F_41_x5F_" class="st1" d="M798.3,676.3c-95.8,165.5-307.5,222-473,126.2"/>
	<text>	<textPath  xlink:href="#SVGID_x5F_41_x5F_" startOffset="45.9255%">
<tspan  class="st3" style="font-family:'EdwardianScriptITC'; font-size:34px;">Salut</tspan>	</textPath>
</text>
	<g>
		<path id="SVGID_x5F_42_x5F_" class="st1" d="M758.4,665.5c-83.7,144.7-268.9,194.1-413.5,110.3"/>
		<text>		<textPath  xlink:href="#SVGID_x5F_42_x5F_" startOffset="39.168%">
<tspan  class="st3 st4" style="font-size:25px;">Mérite</tspan>		</textPath>
</text>
	</g>
	<g>
		<path id="SVGID_x5F_43_x5F_" class="st1" d="M712.3,662.3c-66.7,115.2-214.1,154.5-329.3,87.9"/>
		<text>		<textPath  xlink:href="#SVGID_x5F_43_x5F_" startOffset="28.32%">
<tspan  class="st3 st4" style="font-size:25px;">Jugement</tspan>		</textPath>
</text>
	</g>
	
		<rect x="529.8" y="562.7" transform="matrix(0.4871 -0.8733 0.8733 0.4871 -207.9328 785.7216)" class="st1" width="70.5" height="14.3"/>
	<path id="SVGID_x5F_44_x5F_" class="st1" d="M175.9,193.8c149-173.5,410.5-193.4,584-44.3"/>
	<text>	<textPath  xlink:href="#SVGID_x5F_44_x5F_" startOffset="40.3569%">
<tspan  class="st3 st4 bold" style="font-size:55px;">VOUÉ</tspan>	</textPath>
</text>
	<path class="st2" d="M186.3,147.4c0-0.8-0.1-1.5-0.1-1.5S186.2,146.5,186.3,147.4s0.1,1.5,0.1,1.5S186.3,148.2,186.3,147.4z"/>
	<path id="SVGID_x5F_45_x5F_" class="st1" d="M194.6,221.4c137.6-160.2,379.1-178.6,539.3-41"/>
	<text>	<textPath  xlink:href="#SVGID_x5F_45_x5F_" startOffset="27.8809%">
<tspan  class="st3 st4" style="font-size:32px;">Fille . Mère . Nourrice	</tspan>	</textPath>
</text>
	<path id="SVGID_x5F_46_x5F_" class="st1" d="M223.2,243c124.6-145,343.1-161.6,488.1-37.1"/>
	<text>	<textPath  xlink:href="#SVGID_x5F_46_x5F_" startOffset="38.752%">
<tspan  class="st3 st4 st5 bold">‘‘Idolâtre’’</tspan>	</textPath>
</text>
	<g>
		<path id="SVGID_x5F_47_x5F_" class="st1" d="M260.4,264c107.2-128.3,298-145.3,426.3-38.2"/>
		<text>		<textPath  xlink:href="#SVGID_x5F_47_x5F_" startOffset="38.8%">
<tspan  class="st3 st4 st5">Chasse</tspan>		</textPath>
</text>
	</g>
	<path id="SVGID_x5F_48_x5F_" class="st1" d="M270.9,162.5c113.5,99.7,286.2,88.5,385.9-25"/>
	<text>	<textPath  xlink:href="#SVGID_x5F_48_x5F_" startOffset="41.699%">
<tspan  class="st3 st4" style="font-size:18px;">Précepte</tspan>	</textPath>
</text>
	<path id="SVGID_x5F_49_x5F_" class="st1" d="M278,186.2c110.3,96.9,278.3,86,375.2-24.3"/>
	<text>	<textPath  xlink:href="#SVGID_x5F_49_x5F_" startOffset="38.086%">
<tspan  class="st3 st4" style="font-size:18px;">Brave . Gens</tspan>	</textPath>
</text>
	<path id="SVGID_x5F_50_x5F_" class="st1" d="M291.4,213.6c99.4,87.3,265.4,76.7,352.8-22.8"/>
	<text>	<textPath  xlink:href="#SVGID_x5F_50_x5F_" startOffset="38.51%">
<tspan  class="st3 st4" style="font-size:18px;">Féminisme</tspan>	</textPath>
</text>
	<g>
		<path id="SVGID_x5F_51_x5F_" class="st1" d="M311.4,236.9c86.6,80.2,236.5,74.7,317-12.2"/>
		<text>		<textPath  xlink:href="#SVGID_x5F_51_x5F_" startOffset="38.38%">
<tspan  class="st3 st4" style="font-size:18px;">Don Vivant</tspan>		</textPath>
</text>
	</g>
	<g>
		<path id="SVGID_x5F_52_x5F_" class="st1" d="M317.4,257.5c88.4,81.8,226.4,76.5,308.2-11.8"/>
		<text>		<textPath  xlink:href="#SVGID_x5F_52_x5F_" startOffset="40.527%">
<tspan  class="st3 st4" style="font-size:18px;">Mémoire</tspan>		</textPath>
</text>
	</g>
	<g>
		<path id="SVGID_x5F_53_x5F_" class="st1" d="M328.7,284.7c78.8,73,216.5,68,289.8-11.1"/>
		<text>		<textPath  xlink:href="#SVGID_x5F_53_x5F_" startOffset="19.58%">
<tspan  class="st3 st4" style="font-size:18px;">Ancestral . Magique . Sage</tspan>		</textPath>
</text>
	</g>
	<path id="SVGID_x5F_54_x5F_" class="st1" d="M401.9,399.5c41.5-48.3,114.3-53.9,162.7-12.4"/>
	<text>	<textPath  xlink:href="#SVGID_x5F_54_x5F_" startOffset="35.458%">
<tspan  class="st3 st4" style="font-size:18px;">Peuple</tspan>	</textPath>
</text>
	<path id="SVGID_x5F_55_x5F_" class="st1" d="M412.1,416c38.1-44.3,104.8-49.4,149.1-11.3"/>
	<text>	<textPath  xlink:href="#SVGID_x5F_55_x5F_" startOffset="37.106%">
<tspan  class="st3 st4" style="font-size:16.5041px;">Bijou</tspan>	</textPath>
</text>
	<g>
		<path id="SVGID_x5F_56_x5F_" class="st1" d="M409.8,491.4c-3.4-44.7,30.1-83.7,74.8-87.1c44.7-3.4,83.7,30.1,87.1,74.8"/>
		<text>		<textPath  xlink:href="#SVGID_x5F_56_x5F_" startOffset="29.883%">
<tspan  class="st3 st4" style="font-size:16.5041px;">Terre Promise</tspan>		</textPath>
</text>
	</g>
	<path id="SVGID_x5F_57_x5F_" class="st1" d="M96.2,464.3c5.1-211.1,180.4-378.2,391.6-373"/>
	<text>	<textPath  xlink:href="#SVGID_x5F_57_x5F_" startOffset="40.514%">
<tspan  class="st3" style="font-family:'FrenchScriptMT'; font-size:36px;">Divination</tspan>	</textPath>
</text>
	<path id="SVGID_x5F_58_x5F_" class="st1" d="M132,463c4.6-191.1,163.3-342.3,354.5-337.7"/>
	<text>	<textPath  xlink:href="#SVGID_x5F_58_x5F_" startOffset="41.333%">
<tspan  class="st3" style="font-family:'EdwardianScriptITC'; font-size:34px;">Secret</tspan>	</textPath>
</text>
	<g>
		<path id="SVGID_x5F_59_x5F_" class="st1" d="M169.5,448.9c6.3-167,146.8-297.3,313.8-291"/>
		<text>		<textPath  xlink:href="#SVGID_x5F_59_x5F_" startOffset="40.649%">
<tspan  class="st3 st4" style="font-size:25px;">Puissances</tspan>		</textPath>
</text>
	</g>
	<g>
		<path id="SVGID_x5F_60_x5F_" class="st1" d="M214.2,433.9c3.2-133.1,113.7-238.3,246.8-235.1"/>
		<text>		<textPath  xlink:href="#SVGID_x5F_60_x5F_" startOffset="38.818%">
<tspan  class="st3 st4" style="font-size:25px;">Emanation</tspan>		</textPath>
</text>
	</g>
	<path id="SVGID_x5F_61_x5F_" class="st1" d="M408.7,97.6C616.4,59.1,816,196.2,854.5,403.8"/>
	<text>	<textPath  xlink:href="#SVGID_x5F_61_x5F_" startOffset="59.912%">
<tspan  class="st3" style="font-family:'FrenchScriptMT'; font-size:36px;">Destin</tspan>	</textPath>
</text>
	<path id="SVGID_x5F_62_x5F_" class="st1" d="M417.5,132.4c188-34.9,368.6,89.2,403.5,277.2"/>
	<text>	<textPath  xlink:href="#SVGID_x5F_62_x5F_" startOffset="54.248%">
<tspan  class="st3" style="font-family:'EdwardianScriptITC'; font-size:34px;">Alliance</tspan>	</textPath>
</text>
	<g>
		<path id="SVGID_x5F_63_x5F_" class="st1" d="M435.2,169.6c164.3-30.5,322.3,78,352.8,242.3"/>
		<text>		<textPath  xlink:href="#SVGID_x5F_63_x5F_" startOffset="48.274%">
<tspan  class="st3 st4" style="font-size:25px;">Honneur</tspan>		</textPath>
</text>
	</g>
	<g>
		<path id="SVGID_x5F_64_x5F_" class="st1" d="M462.8,206.7c130.9-24.3,256.7,62.1,280.9,193"/>
		<text>		<textPath  xlink:href="#SVGID_x5F_64_x5F_" startOffset="52.295%">
<tspan  class="st3 st4" style="font-size:25px;">Tabou</tspan>		</textPath>
</text>
	</g>
	
		<rect x="410.1" y="150.1" transform="matrix(0.999 -4.537453e-02 4.537453e-02 0.999 -6.397 18.8332)" class="st1" width="3" height="0.5"/>
	<g>
		<text transform="matrix(0.8751 -0.484 0.484 0.8751 671.0739 362.8636)" class="st3 st4 st5 smallcaps">Cerveau Collectif</text>
	</g>
	<g>
		<text transform="matrix(-0.8663 -0.4995 0.4995 -0.8663 224.5171 343.4937)" class="st3 st4 st5 smallcaps">Mouvement</text>
	</g>
	<g>
		<text transform="matrix(2.759282e-03 1 -1 2.759282e-03 499.8122 728.2602)" class="st3 st4 st5 smallcaps">Imperatif Moral</text>
	</g>
	<g>
		<path id="SVGID_x5F_65_x5F_" class="st1" d="M305.8,269c87.7-100.1,240-110.2,340.1-22.5"/>
		<text>		<textPath  xlink:href="#SVGID_x5F_65_x5F_" startOffset="34.535%">
<tspan  class="st3 st4" style="font-size:25px;">Fécondité</tspan>		</textPath>
</text>
	</g>
	<g>
		<path id="SVGID_x5F_66_x5F_" class="st1" d="M769,454.6c29.7,129.8-51.4,259-181.2,288.7"/>
		<text>		<textPath  xlink:href="#SVGID_x5F_66_x5F_" startOffset="37.317%">
<tspan  class="st3 st4" style="font-size:25px;">Travail</tspan>		</textPath>
</text>
	</g>
	
		<rect x="727.8" y="573.8" transform="matrix(0.5062 -0.8624 0.8624 0.5062 -137.5195 914.633)" class="st1" width="4.2" height="7.2"/>
	<text transform="matrix(1 0 0 1 830.7442 912.8726)" class="st6 st7">L</text>
	<text transform="matrix(0.7 0 0 0.7 836.4083 912.8726)" class="st6 st7">orem</text>
	<text transform="matrix(1 0 0 1 857.6006 912.8726)" class="st6 st7"> </text>
	<text transform="matrix(0.7 0 0 0.7 860.1446 912.8726)" class="st6 st7">ipsum</text>
</g>
</svg>
