<?xml version="1.0" encoding="utf-8"?>
<!-- Generator: Adobe Illustrator 25.2.1, SVG Export Plug-In . SVG Version: 6.00 Build 0)  -->
<svg version="1.1" xmlns="http://www.w3.org/2000/svg" xmlns:xlink="http://www.w3.org/1999/xlink" x="0px" y="0px"
	 viewBox="0 0 970.8 969.7" style="enable-background:new 0 0 970.8 969.7;" xml:space="preserve">
<style type="text/css">
  @font-face {
    font-family: 'EdwardianScriptITC';
    font-style: normal;
    font-weight: 400;
    src: url(../font/ITCEDSCR.woff2) format('woff2');
  }

  @font-face {
    font-family: 'FrenchScriptMT';
    font-style: normal;
    font-weight: 400;
    src: url(../font/FrenchScriptMT.woff2) format('woff2');
  }


	.st0{stroke:#FFFFFF;stroke-miterlimit:10;}
	.st1{fill:none;}
	.st2{fill:#FFE77F;}
	.st3{fill:#FFFFFF;}
	.st4{font-family:'Georgia';}
	.st5{font-size:25px;}
</style>
<g id="Calque_2">
	<path id="SVGID_x5F_1_x5F_" class="st1" d="M188,184C346.1,18.7,608.2,12.8,773.5,170.9"/>
	<text>	<textPath  xlink:href="#SVGID_x5F_1_x5F_" startOffset="21.582%">
<tspan  class="st3 st4" style="font-size:55px;">COMM-ANAR</tspan>	</textPath>
</text>
	<path class="st2" d="M196.6,146.4c0-0.8,0-1.5,0-1.5S196.6,145.6,196.6,146.4c0,0.8,0,1.5,0,1.5S196.6,147.2,196.6,146.4z"/>
	<path id="SVGID_x5F_2_x5F_" class="st1" d="M205.2,202.5c146-152.7,388-158.1,540.7-12.2"/>
	<text>	<textPath  xlink:href="#SVGID_x5F_2_x5F_" startOffset="29.468%">
<tspan  class="st3 st4" style="font-size:28px;">MATIERE.ESPRIT	</tspan>	</textPath>
</text>
	<path id="SVGID_x5F_3_x5F_" class="st1" d="M232.6,220.6C364.7,82.4,583.8,77.5,722,209.6"/>
	<text>	<textPath  xlink:href="#SVGID_x5F_3_x5F_" startOffset="41.333%">
<tspan  class="st3 st4" style="font-size:28px;">Réaliste	</tspan>	</textPath>
</text>
	<path id="SVGID_x5F_4_x5F_" class="st1" d="M232.6,244.6c132.1-138.2,351.2-143.1,489.4-11"/>
	<text>	<textPath  xlink:href="#SVGID_x5F_4_x5F_" startOffset="34.155%">
<tspan  class="st3 st4" style="font-size:18px;">Mouvement . Nécessité</tspan>	</textPath>
</text>
	<g>
		<path id="SVGID_x5F_5_x5F_" class="st1" d="M268.7,260.5c115.5-120.8,307.1-125.1,427.9-9.6"/>
		<text>		<textPath  xlink:href="#SVGID_x5F_5_x5F_" startOffset="32.983%">
<tspan  class="st3 st4" style="font-size:28px;">‘‘Convenable’’</tspan>		</textPath>
</text>
	</g>
	<g>
		<path id="SVGID_x5F_6_x5F_" class="st1" d="M312.8,269.5c92-96.2,244.5-99.6,340.8-7.7"/>
		<text>		<textPath  xlink:href="#SVGID_x5F_6_x5F_" startOffset="18.776%">
<tspan  class="st3 st4" style="font-size:28px;">Nature . Humanité</tspan>		</textPath>
</text>
	</g>
	<path id="SVGID_x5F_7_x5F_" class="st1" d="M284.5,157.9c108,105.6,281.1,103.6,386.7-4.4"/>
	<text>	<textPath  xlink:href="#SVGID_x5F_7_x5F_" startOffset="34.538%">
<tspan  class="st3 st4" style="font-size:18px;">Dialectique totale</tspan>	</textPath>
</text>
	<path id="SVGID_x5F_8_x5F_" class="st1" d="M290.4,181.9c105,102.6,273.3,100.7,375.9-4.2"/>
	<text>	<textPath  xlink:href="#SVGID_x5F_8_x5F_" startOffset="35.645%">
<tspan  class="st3 st4" style="font-size:18px;">Science du neuf</tspan>	</textPath>
</text>
	<path id="SVGID_x5F_9_x5F_" class="st1" d="M302.2,210c94.6,92.5,260.9,90.7,353.5-4"/>
	<text>	<textPath  xlink:href="#SVGID_x5F_9_x5F_" startOffset="36.377%">
<tspan  class="st3 st4" style="font-size:18px;">Personnalisme</tspan>	</textPath>
</text>
	<g>
		<path id="SVGID_x5F_10_x5F_" class="st1" d="M321,234.3c82.2,84.7,232.2,87.2,317.2,4.7"/>
		<text>		<textPath  xlink:href="#SVGID_x5F_10_x5F_" startOffset="27.069%">
<tspan  class="st3 st4" style="font-size:18px;">Volontariat . Gratuité</tspan>		</textPath>
</text>
	</g>
	<g>
		<path id="SVGID_x5F_11_x5F_" class="st1" d="M325.9,255.1c83.9,86.4,222,88.5,308.4,4.6"/>
		<text>		<textPath  xlink:href="#SVGID_x5F_11_x5F_" startOffset="30.713%">
<tspan  class="st3 st4" style="font-size:18px;">Famille planétaire</tspan>		</textPath>
</text>
	</g>
	<g>
		<path id="SVGID_x5F_12_x5F_" class="st1" d="M335.7,283c74.8,77.1,212.6,79.4,290,4.3"/>
		<text>		<textPath  xlink:href="#SVGID_x5F_12_x5F_" startOffset="13.831%">
<tspan  class="st3 st4" style="font-size:18px;">Critique . Invent. Responsable</tspan>		</textPath>
</text>
	</g>
	<path id="SVGID_x5F_13_x5F_" class="st1" d="M403.1,408.7c44-46,117-47.7,163.1-3.7"/>
	<text>	<textPath  xlink:href="#SVGID_x5F_13_x5F_" startOffset="13.672%">
<tspan  class="st3 st4" style="font-size:22px;">Egalité  Liberté</tspan>	</textPath>
</text>
	<path id="SVGID_x5F_14_x5F_" class="st1" d="M412.8,435.1c40.4-42.2,107.3-43.7,149.5-3.4"/>
	<text>	<textPath  xlink:href="#SVGID_x5F_14_x5F_" startOffset="23.08%">
<tspan  class="st3 st4" style="font-size:22px;">Tranquille</tspan>	</textPath>
</text>
	<g>
		<path id="SVGID_x5F_15_x5F_" class="st1" d="M425.7,494.2c-0.8-33.8,26-61.9,59.9-62.6s61.9,26,62.6,59.9"/>
		<text>		<textPath  xlink:href="#SVGID_x5F_15_x5F_" startOffset="24.1235%">
<tspan  class="st3 st4" style="font-size:14px;">Nouveau Peuple</tspan>		</textPath>
</text>
	</g>
	<g>
		<text transform="matrix(0.8552 0.5184 -0.5184 0.8552 81.1959 258.2318)" class="st3 st4 st5">HISTOIRE - Géo</text>
	</g>
	<path id="SVGID_x5F_16_x5F_" class="st1" d="M55.1,447.1c10-211,189.1-373.9,400-364"/>
	<text>	<textPath  xlink:href="#SVGID_x5F_16_x5F_" startOffset="40.514%">
<tspan  class="st3" style="font-family:'FrenchScriptMT'; font-size:43px;">Evidence</tspan>	</textPath>
</text>
	<path id="SVGID_x5F_17_x5F_" class="st1" d="M102.6,455.7c9-191,171.1-338.5,362.1-329.5"/>
	<text>	<textPath  xlink:href="#SVGID_x5F_17_x5F_" startOffset="41.333%">
<tspan  class="st3" style="font-family:'EdwardianScriptITC'; font-size:49px;">Prudence</tspan>	</textPath>
</text>
	<g>
		<path id="SVGID_x5F_18_x5F_" class="st1" d="M160.8,447.8c7.9-167,149.6-295.9,316.6-288"/>
		<text>		<textPath  xlink:href="#SVGID_x5F_18_x5F_" startOffset="40.649%">
<tspan  class="st3 st4 st5">Credo</tspan>		</textPath>
</text>
	</g>
	<g>
		<path id="SVGID_x5F_19_x5F_" class="st1" d="M217.9,433.5c6.3-133,119.1-235.7,252.1-229.4"/>
		<text>		<textPath  xlink:href="#SVGID_x5F_19_x5F_" startOffset="38.818%">
<tspan  class="st3 st4 st5">Masculin</tspan>		</textPath>
</text>
	</g>
	<g>
		<text transform="matrix(-0.8756 0.483 -0.483 -0.8756 895.8607 263.1808)" class="st3 st4 st5">ESPACE - Temps</text>
	</g>
	<path id="SVGID_x5F_20_x5F_" class="st1" d="M509,72.6c210.7-14.5,393.3,144.5,407.8,355.2"/>
	<text>	<textPath  xlink:href="#SVGID_x5F_20_x5F_" startOffset="40.514%">
<tspan  class="st3" style="font-family:'FrenchScriptMT'; font-size:43px;">Adéquation</tspan>	</textPath>
</text>
	<path id="SVGID_x5F_21_x5F_" class="st1" d="M481.2,116.3C671,93.6,843.3,229,866.1,418.8"/>
	<text>	<textPath  xlink:href="#SVGID_x5F_21_x5F_" startOffset="43.262%">
<tspan  class="st3" style="font-family:'EdwardianScriptITC'; font-size:49px;">Patience</tspan>	</textPath>
</text>
	<g>
		<path id="SVGID_x5F_22_x5F_" class="st1" d="M518.7,155.9c167.1-1.1,303.5,133.5,304.6,300.6"/>
		<text>		<textPath  xlink:href="#SVGID_x5F_22_x5F_" startOffset="41.657%">
<tspan  class="st3 st4 st5">Moeurs</tspan>		</textPath>
</text>
	</g>
	<g>
		<path id="SVGID_x5F_23_x5F_" class="st1" d="M524,200.8c133.1-0.9,241.7,106.3,242.6,239.4"/>
		<text>		<textPath  xlink:href="#SVGID_x5F_23_x5F_" startOffset="37.939%">
<tspan  class="st3 st4 st5">Féminin</tspan>		</textPath>
</text>
	</g>
	<path id="SVGID_x5F_24_x5F_" class="st1" d="M348.7,888.7C129.7,822.6,5.9,591.5,72,372.5"/>
	<text>	<textPath  xlink:href="#SVGID_x5F_24_x5F_" startOffset="25.083%">
<tspan  class="st3 st4" style="font-size:55px;">BOURGEOIS</tspan>	</textPath>
</text>
	<path class="st2" d="M311.2,898.1c-0.7,0.4-1.4,0.7-1.4,0.7S310.5,898.5,311.2,898.1c0.7-0.4,1.4-0.7,1.4-0.7
		S312,897.7,311.2,898.1z"/>
	<path id="SVGID_x5F_25_x5F_" class="st1" d="M366.3,860.5C164.2,799.4,49.8,586,110.8,383.8"/>
	<text>	<textPath  xlink:href="#SVGID_x5F_25_x5F_" startOffset="32.667%">
<tspan  class="st3 st4" style="font-size:28px;">PERE SUPREME	</tspan>	</textPath>
</text>
	<g>
		<path id="SVGID_x5F_26_x5F_" class="st1" d="M374.5,825.6C191.5,770.3,88,577.2,143.3,394.2"/>
		<text>		<textPath  xlink:href="#SVGID_x5F_26_x5F_" startOffset="34.285%">
<tspan  class="st3 st4" style="font-size:28px;">Spiritualiste	</tspan>		</textPath>
</text>
	</g>
	<path id="SVGID_x5F_27_x5F_" class="st1" d="M395.5,808.6c-183-55.3-286.6-248.5-231.3-431.5"/>
	<text>	<textPath  xlink:href="#SVGID_x5F_27_x5F_" startOffset="32.153%">
<tspan  class="st3 st4" style="font-size:18px;">Création intelectuelle</tspan>	</textPath>
</text>
	<g>
		<path id="SVGID_x5F_28_x5F_" class="st1" d="M394.9,763.4c-160-48.3-250.5-217.2-202.2-377.2"/>
		<text>		<textPath  xlink:href="#SVGID_x5F_28_x5F_" startOffset="35.232%">
<tspan  class="st3 st4" style="font-size:28px;">‘‘Policée’’</tspan>		</textPath>
</text>
	</g>
	<g>
		<path id="SVGID_x5F_29_x5F_" class="st1" d="M421.9,742.4c-160-48.3-250.5-217.2-202.2-377.2"/>
		<text>		<textPath  xlink:href="#SVGID_x5F_29_x5F_" startOffset="37.402%">
<tspan  class="st3 st4" style="font-size:18px;">Humaniste</tspan>		</textPath>
</text>
	</g>
	<path id="SVGID_x5F_30_x5F_" class="st1" d="M300.4,798.4c44-140.1-33.8-289.3-173.9-333.3"/>
	<text>	<textPath  xlink:href="#SVGID_x5F_30_x5F_" startOffset="43.803%">
<tspan  class="st3 st4" style="font-size:18px;">Raison</tspan>	</textPath>
</text>
	<path id="SVGID_x5F_31_x5F_" class="st1" d="M320.1,775.1c39.7-126.3-37.2-273.7-163.5-313.4"/>
	<text>	<textPath  xlink:href="#SVGID_x5F_31_x5F_" startOffset="36.377%">
<tspan  class="st3 st4" style="font-size:18px;">Contrat . Loi</tspan>	</textPath>
</text>
	<g>
		<path id="SVGID_x5F_32_x5F_" class="st1" d="M333.3,747.3c38.3-111.6-27.3-246.5-139.3-285"/>
		<text>		<textPath  xlink:href="#SVGID_x5F_32_x5F_" startOffset="35.57%">
<tspan  class="st3 st4" style="font-size:18px;">Marché . Etat</tspan>		</textPath>
</text>
	</g>
	<g>
		<path id="SVGID_x5F_33_x5F_" class="st1" d="M349.7,733.6c39.1-113.9-21.5-238-135.4-277.1"/>
		<text>		<textPath  xlink:href="#SVGID_x5F_33_x5F_" startOffset="10.479%">
<tspan  class="st3 st4" style="font-size:18px;">Cellules privées . Org. publiques</tspan>		</textPath>
</text>
	</g>
	<g>
		<path id="SVGID_x5F_34_x5F_" class="st1" d="M370.1,712.2c34.9-101.6-25.4-225.5-127.4-260.6"/>
		<text>		<textPath  xlink:href="#SVGID_x5F_34_x5F_" startOffset="13.831%">
<tspan  class="st3 st4" style="font-size:18px;">Dogme . Intello . Morale</tspan>		</textPath>
</text>
	</g>
	<g>
		<path id="SVGID_x5F_35_x5F_" class="st1" d="M452.7,598.4c-61-18.4-95.5-82.8-77.1-143.8"/>
		<text>		<textPath  xlink:href="#SVGID_x5F_35_x5F_" startOffset="35.156%">
<tspan  class="st3 st4" style="font-size:22px;">Liberté</tspan>		</textPath>
</text>
	</g>
	<path id="SVGID_x5F_36_x5F_" class="st1" d="M469.6,580c-55.9-16.9-87.6-75.9-70.7-131.8"/>
	<text>	<textPath  xlink:href="#SVGID_x5F_36_x5F_" startOffset="6.91%">
<tspan  class="st3 st4" style="font-size:22px;">Révolutionnaire</tspan>	</textPath>
</text>
	<g>
		<path id="SVGID_x5F_37_x5F_" class="st1" d="M516.7,540.1c-29.8,16-67,4.8-82.9-25.1c-16-29.8-4.8-67,25.1-82.9"/>
		<text>		<textPath  xlink:href="#SVGID_x5F_37_x5F_" startOffset="23.5455%">
<tspan  class="st3 st4" style="font-size:14px;">Ideal Anarchiste</tspan>		</textPath>
</text>
	</g>
	<g>
		<text transform="matrix(1.640000e-03 -1 1 1.640000e-03 467.7591 946.5223)" class="st3 st4 st5">TEMPS - Espace</text>
	</g>
	<path id="SVGID_x5F_38_x5F_" class="st1" d="M647.7,858.6C466,966.2,231.4,906.1,123.8,724.4"/>
	<text>	<textPath  xlink:href="#SVGID_x5F_38_x5F_" startOffset="42.254%">
<tspan  class="st3" style="font-family:'FrenchScriptMT'; font-size:43px;">Etre</tspan>	</textPath>
</text>
	<path id="SVGID_x5F_39_x5F_" class="st1" d="M639.6,819C473,912.9,261.9,854,168,687.4"/>
	<text>	<textPath  xlink:href="#SVGID_x5F_39_x5F_" startOffset="41.333%">
<tspan  class="st3" style="font-family:'EdwardianScriptITC'; font-size:49px;">Promesse</tspan>	</textPath>
</text>
	<g>
		<path id="SVGID_x5F_40_x5F_" class="st1" d="M599.3,789c-152.5,68.5-331.6,0.5-400.1-152"/>
		<text>		<textPath  xlink:href="#SVGID_x5F_40_x5F_" startOffset="40.649%">
<tspan  class="st3 st4 st5">Foi</tspan>		</textPath>
</text>
	</g>
	<g>
		<path id="SVGID_x5F_41_x5F_" class="st1" d="M558.6,746.1c-121.4,54.6-264.1,0.4-318.6-121"/>
		<text>		<textPath  xlink:href="#SVGID_x5F_41_x5F_" startOffset="38.818%">
<tspan  class="st3 st4 st5">Meneurs</tspan>		</textPath>
</text>
	</g>
	<path id="SVGID_x5F_42_x5F_" class="st1" d="M86.5,657c-96.8-187.7-23.1-418.4,164.6-515.2"/>
	<text>	<textPath  xlink:href="#SVGID_x5F_42_x5F_" startOffset="45.711%">
<tspan  class="st3" style="font-family:'FrenchScriptMT'; font-size:43px;">Néant</tspan>	</textPath>
</text>
	<path id="SVGID_x5F_43_x5F_" class="st1" d="M124.8,669.9c-92.1-167.5-31.1-378,136.5-470.1"/>
	<text>	<textPath  xlink:href="#SVGID_x5F_43_x5F_" startOffset="33.427%">
<tspan  class="st3" style="font-family:'EdwardianScriptITC'; font-size:49px;">Bel ouvrage</tspan>	</textPath>
</text>
	<g>
		<path id="SVGID_x5F_44_x5F_" class="st1" d="M168.3,621.1C91.7,472.6,150,290,298.6,213.4"/>
		<text>		<textPath  xlink:href="#SVGID_x5F_44_x5F_" startOffset="34.18%">
<tspan  class="st3 st4 st5">Civilisation</tspan>		</textPath>
</text>
	</g>
	<g>
		<path id="SVGID_x5F_45_x5F_" class="st1" d="M207.3,638.1C130.7,489.6,189,307,337.6,230.4"/>
		<text>		<textPath  xlink:href="#SVGID_x5F_45_x5F_" startOffset="39.168%">
<tspan  class="st3 st4 st5">Religion</tspan>		</textPath>
</text>
	</g>
	<g>
		<path id="SVGID_x5F_46_x5F_" class="st1" d="M241.9,592.6C180.9,474.3,227.3,329,345.6,268"/>
		<text>		<textPath  xlink:href="#SVGID_x5F_46_x5F_" startOffset="16.602%">
<tspan  class="st3 st4" style="font-size:18px;">Société de personnes</tspan>		</textPath>
</text>
	</g>
	
		<rect x="361.8" y="472.1" transform="matrix(0.8814 -0.4724 0.4724 0.8814 -195.932 234.4722)" class="st1" width="14.3" height="70.5"/>
	<path id="SVGID_x5F_47_x5F_" class="st1" d="M901.3,389.6c59,221-72.3,447.9-293.3,506.9"/>
	<text>	<textPath  xlink:href="#SVGID_x5F_47_x5F_" startOffset="31.019%">
<tspan  class="st3 st4" style="font-size:55px;">PARENTS</tspan>	</textPath>
</text>
	<path class="st2" d="M929,416.5c0.7,0.4,1.3,0.8,1.3,0.8S929.7,416.9,929,416.5s-1.3-0.8-1.3-0.8S928.3,416,929,416.5z"/>
	<path id="SVGID_x5F_48_x5F_" class="st1" d="M870,394.4c54.5,204.1-66.8,413.6-270.9,468.1"/>
	<text>	<textPath  xlink:href="#SVGID_x5F_48_x5F_" startOffset="23.777%">
<tspan  class="st3 st4" style="font-size:28px;">MERE FONDAMENTALE	</tspan>	</textPath>
</text>
	<path id="SVGID_x5F_49_x5F_" class="st1" d="M837.1,405.8c49.3,184.7-60.5,374.4-245.2,423.7"/>
	<text>	<textPath  xlink:href="#SVGID_x5F_49_x5F_" startOffset="38.752%">
<tspan  class="st3 st4" style="font-size:28px;">Matérialiste	</tspan>	</textPath>
</text>
	<g>
		<path id="SVGID_x5F_50_x5F_" class="st1" d="M815.1,393.8c49.3,184.7-60.5,374.4-245.2,423.7"/>
		<text>		<textPath  xlink:href="#SVGID_x5F_50_x5F_" startOffset="39.575%">
<tspan  class="st3 st4" style="font-size:18px;">Emanation vitale	</tspan>		</textPath>
</text>
	</g>
	<g>
		<path id="SVGID_x5F_51_x5F_" class="st1" d="M781.3,416.3c43.1,161.5-52.9,327.3-214.4,370.4"/>
		<text>		<textPath  xlink:href="#SVGID_x5F_51_x5F_" startOffset="37.866%">
<tspan  class="st3 st4" style="font-size:28px;">‘‘Sauvage’’</tspan>		</textPath>
</text>
	</g>
	<g>
		<path id="SVGID_x5F_52_x5F_" class="st1" d="M767.9,417.8c31.5,164.2-76.1,322.7-240.2,354.2"/>
		<text>		<textPath  xlink:href="#SVGID_x5F_52_x5F_" startOffset="37.866%">
<tspan  class="st3 st4" style="font-size:18px;">Naturaliste</tspan>		</textPath>
</text>
	</g>
	<path id="SVGID_x5F_53_x5F_" class="st1" d="M873.5,485.5c-146.3,37.3-234.7,186.2-197.4,332.5"/>
	<text>	<textPath  xlink:href="#SVGID_x5F_53_x5F_" startOffset="39.258%">
<tspan  class="st3 st4" style="font-size:18px;">Propitiation</tspan>	</textPath>
</text>
	<path id="SVGID_x5F_54_x5F_" class="st1" d="M849.9,478.1c-142.3,36.3-228.2,181-191.9,323.3"/>
	<text>	<textPath  xlink:href="#SVGID_x5F_54_x5F_" startOffset="33.056%">
<tspan  class="st3 st4" style="font-size:18px;">Coutumes . Rites</tspan>	</textPath>
</text>
	<path id="SVGID_x5F_55_x5F_" class="st1" d="M819.8,473.6c-128.2,32.7-213.2,175.6-180.5,304"/>
	<text>	<textPath  xlink:href="#SVGID_x5F_55_x5F_" startOffset="40.328%">
<tspan  class="st3 st4" style="font-size:18px;">Matriarcat</tspan>	</textPath>
</text>
	<g>
		<path id="SVGID_x5F_56_x5F_" class="st1" d="M789.2,477C674.1,503.2,594,630,620.2,745.5"/>
		<text>		<textPath  xlink:href="#SVGID_x5F_56_x5F_" startOffset="40.356%">
<tspan  class="st3 st4" style="font-size:18px;">Sang . Sol</tspan>		</textPath>
</text>
	</g>
	<g>
		<path id="SVGID_x5F_57_x5F_" class="st1" d="M768.9,470.3c-117.5,26.7-191,143.5-164.3,261"/>
		<text>		<textPath  xlink:href="#SVGID_x5F_57_x5F_" startOffset="33.789%">
<tspan  class="st3 st4" style="font-size:18px;">Etudes . Initiés</tspan>		</textPath>
</text>
	</g>
	<g>
		<path id="SVGID_x5F_58_x5F_" class="st1" d="M740,464.2C635.3,488,561.6,604.5,585.4,709.7"/>
		<text>		<textPath  xlink:href="#SVGID_x5F_58_x5F_" startOffset="13.831%">
<tspan  class="st3 st4" style="font-size:18px;">Mythes . Sorciers . Préceptes</tspan>		</textPath>
</text>
	</g>
	<path id="SVGID_x5F_59_x5F_" class="st1" d="M597.9,456.3c16.4,61.6-20.1,124.8-81.7,141.2"/>
	<text>	<textPath  xlink:href="#SVGID_x5F_59_x5F_" startOffset="35.458%">
<tspan  class="st3 st4" style="font-size:22px;">Egalité</tspan>	</textPath>
</text>
	<path id="SVGID_x5F_60_x5F_" class="st1" d="M573.3,452.4c15.1,56.4-18.5,114.4-74.9,129.5"/>
	<text>	<textPath  xlink:href="#SVGID_x5F_60_x5F_" startOffset="12.31%">
<tspan  class="st3 st4" style="font-size:22px;">Réactionnaire</tspan>	</textPath>
</text>
	<g>
		<path id="SVGID_x5F_61_x5F_" class="st1" d="M514.7,434.4c29.3,16.9,39.3,54.4,22.3,83.7c-16.9,29.3-54.4,39.3-83.7,22.3"/>
		<text>		<textPath  xlink:href="#SVGID_x5F_61_x5F_" startOffset="19.9625%">
<tspan  class="st3 st4" style="font-size:14px;">Rêve Communiste</tspan>		</textPath>
</text>
	</g>
	<path id="SVGID_x5F_62_x5F_" class="st1" d="M744.7,171.2c180.8,109.2,238.8,344.3,129.6,525.1"/>
	<text>	<textPath  xlink:href="#SVGID_x5F_62_x5F_" startOffset="40.514%">
<tspan  class="st3" style="font-family:'FrenchScriptMT'; font-size:43px;">Existence</tspan>	</textPath>
</text>
	<path id="SVGID_x5F_63_x5F_" class="st1" d="M722,190.5c158.4,107,200.1,322.2,93,480.6"/>
	<text>	<textPath  xlink:href="#SVGID_x5F_63_x5F_" startOffset="41.333%">
<tspan  class="st3" style="font-family:'EdwardianScriptITC'; font-size:49px;">Don</tspan>	</textPath>
</text>
	<g>
		<path id="SVGID_x5F_64_x5F_" class="st1" d="M695.9,235.5c138.5,93.6,174.9,281.7,81.3,420.2"/>
		<text>		<textPath  xlink:href="#SVGID_x5F_64_x5F_" startOffset="40.649%">
<tspan  class="st3 st4 st5">Fidélité</tspan>		</textPath>
</text>
	</g>
	<g>
		<path id="SVGID_x5F_65_x5F_" class="st1" d="M672.7,285.4C783,359.9,812,509.7,737.5,620"/>
		<text>		<textPath  xlink:href="#SVGID_x5F_65_x5F_" startOffset="38.818%">
<tspan  class="st3 st4 st5">Voués</tspan>		</textPath>
</text>
	</g>
	<path id="SVGID_x5F_66_x5F_" class="st1" d="M834.9,733.7C726.2,914.8,491.3,973.5,310.2,864.8"/>
	<text>	<textPath  xlink:href="#SVGID_x5F_66_x5F_" startOffset="45.801%">
<tspan  class="st3" style="font-family:'FrenchScriptMT'; font-size:43px;">Néant</tspan>	</textPath>
</text>
	<path id="SVGID_x5F_67_x5F_" class="st1" d="M793.1,702.7C700.5,870,489.9,930.5,322.6,838"/>
	<text>	<textPath  xlink:href="#SVGID_x5F_67_x5F_" startOffset="31.885%">
<tspan  class="st3" style="font-family:'EdwardianScriptITC'; font-size:49px;">Force féconde</tspan>	</textPath>
</text>
	<g>
		<path id="SVGID_x5F_68_x5F_" class="st1" d="M754.1,688.4c-86,143.3-271.9,189.8-415.2,103.8"/>
		<text>		<textPath  xlink:href="#SVGID_x5F_68_x5F_" startOffset="37.085%">
<tspan  class="st3 st4 st5">Tradition</tspan>		</textPath>
</text>
	</g>
	<g>
		<path id="SVGID_x5F_69_x5F_" class="st1" d="M740.2,648.2c-86,143.3-271.9,189.8-415.2,103.8"/>
		<text>		<textPath  xlink:href="#SVGID_x5F_69_x5F_" startOffset="32.525%">
<tspan  class="st3 st4 st5">Observance</tspan>		</textPath>
</text>
	</g>
	<g>
		<path id="SVGID_x5F_70_x5F_" class="st1" d="M699.3,635.8c-68.5,114.1-216.5,151.2-330.7,82.7"/>
		<text>		<textPath  xlink:href="#SVGID_x5F_70_x5F_" startOffset="24.628%">
<tspan  class="st3 st4" style="font-size:18px;">Système de choses</tspan>		</textPath>
</text>
	</g>
</g>
</svg>
