<?xml version="1.0" encoding="utf-8"?>
<!-- Generator: Adobe Illustrator 25.2.1, SVG Export Plug-In . SVG Version: 6.00 Build 0)  -->
<svg version="1.1" xmlns="http://www.w3.org/2000/svg" xmlns:xlink="http://www.w3.org/1999/xlink" x="0px" y="0px"
	 viewBox="0 0 970.8 969.7" style="enable-background:new 0 0 970.8 969.7;" xml:space="preserve">
<style type="text/css">

 @font-face {
    font-family: 'EdwardianScriptITC';
    font-style: normal;
    font-weight: 400;
    src: url(../font/ITCEDSCR.woff2) format('woff2');
  }

  @font-face {
    font-family: 'FrenchScriptMT';
    font-style: normal;
    font-weight: 400;
    src: url(../font/FrenchScriptMT.woff2) format('woff2');
  }

	.st0{display:none;}
	.st1{display:inline;stroke:#FFFFFF;stroke-miterlimit:10;}
	.st2{fill:none;}
	.st3{fill:#FFE77F;}
	.st4{fill:#FFFFFF;}
	.st5{font-family:'Georgia';}
	.st6{font-size:28px;}
	.st7{font-size:18px;}
</style>
<g id="Calque_1" class="st0">
	<path class="st1" d="M965,486.1c0,265.2-215,480.2-480.2,480.2S4.6,751.3,4.6,486.1S219.6,5.9,484.8,5.9
		c167.2,0,314.5,85.5,400.5,215.2C935.6,297,965,388.1,965,486.1z"/>
</g>
<g id="Calque_2">
	<path id="SVGID_x5F_1_x5F_" class="st2" d="M371.9,894.3c-222.2-54-358.6-277.9-304.6-500.2"/>
	<text>	<textPath  xlink:href="#SVGID_x5F_1_x5F_" startOffset="21.582%">
<tspan  class="st4 st5" style="font-size:55px;">COMM-ANAR</tspan>	</textPath>
</text>
	<path class="st3" d="M335.1,905.7c-0.7,0.4-1.3,0.8-1.3,0.8S334.3,906.1,335.1,905.7s1.3-0.8,1.3-0.8S335.8,905.2,335.1,905.7z"/>
	<path id="SVGID_x5F_2_x5F_" class="st2" d="M388,865.1C182.8,815.2,56.8,608.4,106.7,403.2"/>
	<text>	<textPath  xlink:href="#SVGID_x5F_2_x5F_" startOffset="27.905%">
<tspan  class="st4 st5" style="font-size:32px;">MATIERE.ESPRIT	</tspan>	</textPath>
</text>
	<path id="SVGID_x5F_3_x5F_" class="st2" d="M394.3,829.9C208.5,784.7,94.5,597.5,139.6,411.7"/>
	<text>	<textPath  xlink:href="#SVGID_x5F_3_x5F_" startOffset="41.333%">
<tspan  class="st4 st5 st6">Réaliste	</tspan>	</textPath>
</text>
	<g>
		<path id="SVGID_x5F_4_x5F_" class="st2" d="M393.3,788.6c-162.4-39.5-262.1-203.1-222.6-365.5"/>
		<text>		<textPath  xlink:href="#SVGID_x5F_4_x5F_" startOffset="32.983%">
<tspan  class="st4 st5 st6">‘‘Convenable’’</tspan>		</textPath>
</text>
	</g>
	<g>
		<path id="SVGID_x5F_5_x5F_" class="st2" d="M383.4,743.4C254,712,174.6,581.7,206.1,452.3"/>
		<text>		<textPath  xlink:href="#SVGID_x5F_5_x5F_" startOffset="18.776%">
<tspan  class="st4 st5 st6">Nature . Humanité</tspan>		</textPath>
</text>
	</g>
	<path id="SVGID_x5F_6_x5F_" class="st2" d="M301,823.9c37.3-146.3-51.1-295.2-197.4-332.5"/>
	<text>	<textPath  xlink:href="#SVGID_x5F_6_x5F_" startOffset="34.538%">
<tspan  class="st4 st5 st7">Dialectique totale</tspan>	</textPath>
</text>
	<path id="SVGID_x5F_7_x5F_" class="st2" d="M318.8,806.7c36.3-142.3-49.7-287-192-323.3"/>
	<text>	<textPath  xlink:href="#SVGID_x5F_7_x5F_" startOffset="35.645%">
<tspan  class="st4 st5 st7">Science du neuf</tspan>	</textPath>
</text>
	<path id="SVGID_x5F_8_x5F_" class="st2" d="M337.2,782.4c32.7-128.2-52.1-271.3-180.5-304"/>
	<text>	<textPath  xlink:href="#SVGID_x5F_8_x5F_" startOffset="36.377%">
<tspan  class="st4 st5 st7">Personnalisme</tspan>	</textPath>
</text>
	<g>
		<path id="SVGID_x5F_9_x5F_" class="st2" d="M348.8,754C380.9,640.4,308,509.3,194,477.1"/>
		<text>		<textPath  xlink:href="#SVGID_x5F_9_x5F_" startOffset="27.069%">
<tspan  class="st4 st5 st7">Volontariat . Gratuité</tspan>		</textPath>
</text>
	</g>
	<g>
		<path id="SVGID_x5F_10_x5F_" class="st2" d="M364.4,739.3c32.8-115.9-34.6-236.4-150.5-269.2"/>
		<text>		<textPath  xlink:href="#SVGID_x5F_10_x5F_" startOffset="30.713%">
<tspan  class="st4 st5 st7">Famille planétaire</tspan>		</textPath>
</text>
	</g>
	<g>
		<path id="SVGID_x5F_11_x5F_" class="st2" d="M383.6,716.8c29.2-103.3-37.7-223.8-141.5-253.2"/>
		<text>		<textPath  xlink:href="#SVGID_x5F_11_x5F_" startOffset="13.831%">
<tspan  class="st4 st5 st7">Critique . Invent. Responsable</tspan>		</textPath>
</text>
	</g>
	<path id="SVGID_x5F_12_x5F_" class="st2" d="M458.6,595.6c-61.9-15-99.9-77.4-84.9-139.3"/>
	<text>	<textPath  xlink:href="#SVGID_x5F_12_x5F_" startOffset="13.672%">
<tspan  class="st4 st5" style="font-size:22px;">Egalité  Liberté</tspan>	</textPath>
</text>
	<path id="SVGID_x5F_13_x5F_" class="st2" d="M476.7,573.9c-56.8-13.8-91.6-71-77.8-127.7"/>
	<text>	<textPath  xlink:href="#SVGID_x5F_13_x5F_" startOffset="23.08%">
<tspan  class="st4 st5" style="font-size:22px;">Tranquille</tspan>	</textPath>
</text>
	<g>
		<path id="SVGID_x5F_14_x5F_" class="st2" d="M521.4,533.2c-28.9,17.6-66.6,8.4-84.2-20.5c-17.6-28.9-8.4-66.6,20.5-84.2"/>
		<text>		<textPath  xlink:href="#SVGID_x5F_14_x5F_" startOffset="24.1235%">
<tspan  class="st4 st5" style="font-size:14px;">Nouveau Peuple</tspan>		</textPath>
</text>
	</g>
	<g>
		<text transform="matrix(2.036000e-02 -0.9998 0.9998 2.036000e-02 489.6394 949.5918)" class="st4 st5 st6">HISTOIRE</text>
	</g>
	<path id="SVGID_x5F_15_x5F_" class="st2" d="M666.2,877.5c-187.6,97-418.3,23.6-515.4-163.9"/>
	<text>	<textPath  xlink:href="#SVGID_x5F_15_x5F_" startOffset="40.514%">
<tspan  class="st4" style="font-family:'FrenchScriptMT'; font-size:43px;">Evidence</tspan>	</textPath>
</text>
	<path id="SVGID_x5F_16_x5F_" class="st2" d="M649.8,832.1C480,920,271.1,853.5,183.3,683.7"/>
	<text>	<textPath  xlink:href="#SVGID_x5F_16_x5F_" startOffset="41.333%">
<tspan  class="st4" style="font-family:'EdwardianScriptITC'; font-size:40px;">Prudence</tspan>	</textPath>
</text>
	<g>
		<path id="SVGID_x5F_17_x5F_" class="st2" d="M613.8,785.7C465.4,862.5,282.8,804.4,206,655.9"/>
		<text>		<textPath  xlink:href="#SVGID_x5F_17_x5F_" startOffset="40.649%">
<tspan  class="st4 st5" style="font-size:25px;">Credo</tspan>		</textPath>
</text>
	</g>
	<g>
		<path id="SVGID_x5F_18_x5F_" class="st2" d="M572.9,743.4c-118.2,61.2-263.6,14.9-324.8-103.3"/>
		<text>		<textPath  xlink:href="#SVGID_x5F_18_x5F_" startOffset="38.818%">
<tspan  class="st4 st5" style="font-size:25px;">Masculin</tspan>		</textPath>
</text>
	</g>
	<g>
		<text transform="matrix(0.8566 0.5159 -0.5159 0.8566 85.9571 241.9688)" class="st4 st5 st6">ESPACE</text>
	</g>
	<path id="SVGID_x5F_19_x5F_" class="st2" d="M114.8,672.3C-3.3,497.2,42.8,259.5,217.9,141.4"/>
	<text>	<textPath  xlink:href="#SVGID_x5F_19_x5F_" startOffset="40.514%">
<tspan  class="st4" style="font-family:'FrenchScriptMT'; font-size:43px;">Adéquation</tspan>	</textPath>
</text>
	<path id="SVGID_x5F_20_x5F_" class="st2" d="M157.9,652.4c-106.4-158.8-64-373.8,94.8-480.3"/>
	<text>	<textPath  xlink:href="#SVGID_x5F_20_x5F_" startOffset="43.262%">
<tspan  class="st4" style="font-family:'EdwardianScriptITC'; font-size:40px;">Patience</tspan>	</textPath>
</text>
	<g>
		<path id="SVGID_x5F_21_x5F_" class="st2" d="M182,622.1C97.3,478,145.5,292.6,289.6,207.9"/>
		<text>		<textPath  xlink:href="#SVGID_x5F_21_x5F_" startOffset="41.657%">
<tspan  class="st4 st5" style="font-size:25px;">Moeurs</tspan>		</textPath>
</text>
	</g>
	<g>
		<path id="SVGID_x5F_22_x5F_" class="st2" d="M218.2,595c-67.4-114.8-29.1-262.5,85.7-329.9"/>
		<text>		<textPath  xlink:href="#SVGID_x5F_22_x5F_" startOffset="37.939%">
<tspan  class="st4 st5" style="font-size:25px;">Féminin</tspan>		</textPath>
</text>
	</g>
	<path id="SVGID_x5F_23_x5F_" class="st2" d="M901.4,402.3c52.4,222.6-85.6,445.6-308.2,498"/>
	<text>	<textPath  xlink:href="#SVGID_x5F_23_x5F_" startOffset="25.083%">
<tspan  class="st4 st5" style="font-size:55px;">BOURGEOIS</tspan>	</textPath>
</text>
	<path class="st3" d="M928.2,430c0.7,0.4,1.3,0.8,1.3,0.8S929,430.4,928.2,430c-0.7-0.4-1.3-0.8-1.3-0.8S927.5,429.5,928.2,430z"/>
	<path id="SVGID_x5F_24_x5F_" class="st2" d="M868.1,401.1c48.4,205.6-79,411.5-284.6,459.9"/>
	<text>	<textPath  xlink:href="#SVGID_x5F_24_x5F_" startOffset="30.298%">
<tspan  class="st4 st5" style="font-size:32px;">PERE SUPREME	</tspan>	</textPath>
</text>
	<path id="SVGID_x5F_25_x5F_" class="st2" d="M833.8,411.5c43.8,186.1-71.5,372.5-257.6,416.3"/>
	<text>	<textPath  xlink:href="#SVGID_x5F_25_x5F_" startOffset="34.285%">
<tspan  class="st4 st5 st6">Spiritualiste	</tspan>	</textPath>
</text>
	<g>
		<path id="SVGID_x5F_26_x5F_" class="st2" d="M797.5,431c38.3,162.7-62.5,325.6-225.2,363.9"/>
		<text>		<textPath  xlink:href="#SVGID_x5F_26_x5F_" startOffset="35.2317%">
<tspan  class="st4 st5 st6">‘‘Policée’’</tspan>		</textPath>
</text>
	</g>
	<path id="SVGID_x5F_27_x5F_" class="st2" d="M870.7,497.4c-147.4,33-240.1,179.1-207.2,326.5"/>
	<text>	<textPath  xlink:href="#SVGID_x5F_27_x5F_" startOffset="40.57%">
<tspan  class="st4 st5 st7">Humaniste</tspan>	</textPath>
</text>
	<path id="SVGID_x5F_28_x5F_" class="st2" d="M847.4,489.2c-143.3,32-233.5,174.2-201.4,317.5"/>
	<text>	<textPath  xlink:href="#SVGID_x5F_28_x5F_" startOffset="43.803%">
<tspan  class="st4 st5 st7">Raison</tspan>	</textPath>
</text>
	<path id="SVGID_x5F_29_x5F_" class="st2" d="M817.4,483.9C688.2,512.7,599.1,653.1,628,782.4"/>
	<text>	<textPath  xlink:href="#SVGID_x5F_29_x5F_" startOffset="36.377%">
<tspan  class="st4 st5 st7">Contrat . Loi</tspan>	</textPath>
</text>
	<g>
		<path id="SVGID_x5F_30_x5F_" class="st2" d="M786.7,486.4C670.9,509.1,587,633.5,609.8,749.7"/>
		<text>		<textPath  xlink:href="#SVGID_x5F_30_x5F_" startOffset="35.57%">
<tspan  class="st4 st5 st7">Marché . Etat</tspan>		</textPath>
</text>
	</g>
	<g>
		<path id="SVGID_x5F_31_x5F_" class="st2" d="M766.6,479.1c-118.2,23.2-195.2,137.8-172,256"/>
		<text>		<textPath  xlink:href="#SVGID_x5F_31_x5F_" startOffset="10.479%">
<tspan  class="st4 st5 st7">Cellules privées . Org. publiques</tspan>		</textPath>
</text>
	</g>
	<g>
		<path id="SVGID_x5F_32_x5F_" class="st2" d="M737.9,472.1c-105.4,20.7-182.5,134.9-161.7,240.7"/>
		<text>		<textPath  xlink:href="#SVGID_x5F_32_x5F_" startOffset="13.831%">
<tspan  class="st4 st5 st7">Dogme . Intello . Morale</tspan>		</textPath>
</text>
	</g>
	<g>
		<path id="SVGID_x5F_33_x5F_" class="st2" d="M598.1,457.6c14.6,62-23.8,124.1-85.8,138.7"/>
		<text>		<textPath  xlink:href="#SVGID_x5F_33_x5F_" startOffset="35.156%">
<tspan  class="st4 st5" style="font-size:22px;">Liberté</tspan>		</textPath>
</text>
	</g>
	<path id="SVGID_x5F_34_x5F_" class="st2" d="M573.7,452.2c13.4,56.9-21.9,113.8-78.7,127.2"/>
	<text>	<textPath  xlink:href="#SVGID_x5F_34_x5F_" startOffset="6.91%">
<tspan  class="st4 st5" style="font-size:22px;">Révolutionnaire</tspan>	</textPath>
</text>
	<g>
		<path id="SVGID_x5F_35_x5F_" class="st2" d="M515.5,431.5c28.8,17.8,37.7,55.6,19.9,84.3c-17.8,28.8-55.6,37.7-84.3,19.9"/>
		<text>		<textPath  xlink:href="#SVGID_x5F_35_x5F_" startOffset="23.5455%">
<tspan  class="st4 st5" style="font-size:14px;">Ideal Anarchiste</tspan>		</textPath>
</text>
	</g>
	<g>
		<text transform="matrix(-0.8664 0.4994 -0.4994 -0.8664 891.7573 270.2331)" class="st4 st5 st6">TEMPS</text>
	</g>
	<path id="SVGID_x5F_36_x5F_" class="st2" d="M762.6,174.5C934,297.9,973,536.9,849.6,708.3"/>
	<text>	<textPath  xlink:href="#SVGID_x5F_36_x5F_" startOffset="42.254%">
<tspan  class="st4" style="font-family:'FrenchScriptMT'; font-size:43px;">Etre</tspan>	</textPath>
</text>
	<path id="SVGID_x5F_37_x5F_" class="st2" d="M722.8,199.9c155.2,111.7,190.4,328,78.8,483.2"/>
	<text>	<textPath  xlink:href="#SVGID_x5F_37_x5F_" startOffset="41.333%">
<tspan  class="st4" style="font-family:'EdwardianScriptITC'; font-size:40px;">Promesse</tspan>	</textPath>
</text>
	<g>
		<path id="SVGID_x5F_38_x5F_" class="st2" d="M697.5,241.1c135.7,97.6,166.5,286.8,68.9,422.4"/>
		<text>		<textPath  xlink:href="#SVGID_x5F_38_x5F_" startOffset="40.649%">
<tspan  class="st4 st5" style="font-size:25px;">Foi</tspan>		</textPath>
</text>
	</g>
	<g>
		<path id="SVGID_x5F_39_x5F_" class="st2" d="M676,291.3c108,77.8,132.6,228.4,54.8,336.4"/>
		<text>		<textPath  xlink:href="#SVGID_x5F_39_x5F_" startOffset="38.818%">
<tspan  class="st4 st5" style="font-size:25px;">Meneurs</tspan>		</textPath>
</text>
	</g>
	<path id="SVGID_x5F_40_x5F_" class="st2" d="M832.2,745.2C718.2,923,481.6,974.8,303.8,860.8"/>
	<text>	<textPath  xlink:href="#SVGID_x5F_40_x5F_" startOffset="45.711%">
<tspan  class="st4" style="font-family:'FrenchScriptMT'; font-size:43px;">Néant</tspan>	</textPath>
</text>
	<path id="SVGID_x5F_41_x5F_" class="st2" d="M800.1,717.1C696.9,878,482.8,924.9,321.9,821.7"/>
	<text>	<textPath  xlink:href="#SVGID_x5F_41_x5F_" startOffset="39.926%">
<tspan  class="st4" style="font-family:'EdwardianScriptITC'; font-size:40px;">Promesse</tspan>	</textPath>
</text>
	<g>
		<path id="SVGID_x5F_42_x5F_" class="st2" d="M760.1,692.4C669.9,833.1,482.7,874,342,783.8"/>
		<text>		<textPath  xlink:href="#SVGID_x5F_42_x5F_" startOffset="39.168%">
<tspan  class="st4 st5" style="font-size:25px;">Religion</tspan>		</textPath>
</text>
	</g>
	<g>
		<path id="SVGID_x5F_43_x5F_" class="st2" d="M704.1,674.8c-71.8,112.1-220.9,144.7-333,72.8"/>
		<text>		<textPath  xlink:href="#SVGID_x5F_43_x5F_" startOffset="1.208%">
<tspan  class="st4 st5" style="font-size:25px;">Société de personne</tspan>		</textPath>
</text>
	</g>
	
		<rect x="526" y="568.6" transform="matrix(0.5263 -0.8503 0.8503 0.5263 -223.7039 749.9581)" class="st2" width="70.5" height="14.3"/>
	<path id="SVGID_x5F_44_x5F_" class="st2" d="M192.6,173.9c161.7-161.7,423.9-161.7,585.7,0"/>
	<text>	<textPath  xlink:href="#SVGID_x5F_44_x5F_" startOffset="31.019%">
<tspan  class="st4 st5" style="font-size:55px;">PARENTS</tspan>	</textPath>
</text>
	<path class="st3" d="M202,136.5c0-0.8,0-1.5,0-1.5S202,135.6,202,136.5s0,1.5,0,1.5S202,137.3,202,136.5z"/>
	<path id="SVGID_x5F_45_x5F_" class="st2" d="M209.1,202.8c149.3-149.3,391.5-149.3,540.8,0"/>
	<text>	<textPath  xlink:href="#SVGID_x5F_45_x5F_" startOffset="18.774%">
<tspan  class="st4 st5" style="font-size:32px;">MERE FONDAMENTALE	</tspan>	</textPath>
</text>
	<path id="SVGID_x5F_46_x5F_" class="st2" d="M236,226.5c135.2-135.2,354.4-135.2,489.5,0"/>
	<text>	<textPath  xlink:href="#SVGID_x5F_46_x5F_" startOffset="38.752%">
<tspan  class="st4 st5 st6">Matérialiste	</tspan>	</textPath>
</text>
	<g>
		<path id="SVGID_x5F_47_x5F_" class="st2" d="M271.7,247.1c118.2-118.2,309.8-118.2,428,0"/>
		<text>		<textPath  xlink:href="#SVGID_x5F_47_x5F_" startOffset="37.866%">
<tspan  class="st4 st5 st6">‘‘Sauvage’’</tspan>		</textPath>
</text>
	</g>
	<path id="SVGID_x5F_48_x5F_" class="st2" d="M289.6,149.9c105.6,108,278.7,109.9,386.7,4.3"/>
	<text>	<textPath  xlink:href="#SVGID_x5F_48_x5F_" startOffset="39.258%">
<tspan  class="st4 st5 st7">Propitiation</tspan>	</textPath>
</text>
	<path id="SVGID_x5F_49_x5F_" class="st2" d="M295,174.1c102.7,105,271,106.9,375.9,4.2"/>
	<text>	<textPath  xlink:href="#SVGID_x5F_49_x5F_" startOffset="33.056%">
<tspan  class="st4 st5 st7">Coutumes . Rites</tspan>	</textPath>
</text>
	<path id="SVGID_x5F_50_x5F_" class="st2" d="M306.2,202.4c92.5,94.6,258.8,96.6,353.5,4"/>
	<text>	<textPath  xlink:href="#SVGID_x5F_50_x5F_" startOffset="40.328%">
<tspan  class="st4 st5 st7">Matriarcat</tspan>	</textPath>
</text>
	<g>
		<path id="SVGID_x5F_51_x5F_" class="st2" d="M324.4,227.1c80.3,86.5,230.2,92.4,317,11.9"/>
		<text>		<textPath  xlink:href="#SVGID_x5F_51_x5F_" startOffset="40.356%">
<tspan  class="st4 st5 st7">Sang . Sol</tspan>		</textPath>
</text>
	</g>
	<g>
		<path id="SVGID_x5F_52_x5F_" class="st2" d="M328.8,248.1c81.9,88.3,219.9,93.5,308.2,11.5"/>
		<text>		<textPath  xlink:href="#SVGID_x5F_52_x5F_" startOffset="33.789%">
<tspan  class="st4 st5 st7">Etudes . Initiés</tspan>		</textPath>
</text>
	</g>
	<g>
		<path id="SVGID_x5F_53_x5F_" class="st2" d="M338,276.2c73,78.7,210.8,84.2,289.8,10.9"/>
		<text>		<textPath  xlink:href="#SVGID_x5F_53_x5F_" startOffset="13.831%">
<tspan  class="st4 st5 st7">Mythes . Sorciers . Préceptes</tspan>		</textPath>
</text>
	</g>
	<path id="SVGID_x5F_54_x5F_" class="st2" d="M402.3,403.1c45-45,118.1-45,163.1,0"/>
	<text>	<textPath  xlink:href="#SVGID_x5F_54_x5F_" startOffset="35.458%">
<tspan  class="st4 st5" style="font-size:22px;">Egalité</tspan>	</textPath>
</text>
	<path id="SVGID_x5F_55_x5F_" class="st2" d="M411.3,426.4c41.3-41.3,108.3-41.3,149.6,0"/>
	<text>	<textPath  xlink:href="#SVGID_x5F_55_x5F_" startOffset="12.31%">
<tspan  class="st4 st5" style="font-size:22px;">Réactionnaire</tspan>	</textPath>
</text>
	<g>
		<path id="SVGID_x5F_56_x5F_" class="st2" d="M425,486.1c0-33.8,27.4-61.3,61.3-61.3s61.3,27.4,61.3,61.3"/>
		<text>		<textPath  xlink:href="#SVGID_x5F_56_x5F_" startOffset="19.9625%">
<tspan  class="st4 st5" style="font-size:14px;">Rêve Communiste</tspan>		</textPath>
</text>
	</g>
	<path id="SVGID_x5F_57_x5F_" class="st2" d="M82,418.8C86,207.7,260.4,39.7,471.6,43.7"/>
	<text>	<textPath  xlink:href="#SVGID_x5F_57_x5F_" startOffset="40.514%">
<tspan  class="st4" style="font-family:'FrenchScriptMT'; font-size:43px;">Evidence</tspan>	</textPath>
</text>
	<path id="SVGID_x5F_58_x5F_" class="st2" d="M110.1,428.8c13.3-190.7,178.7-334.5,369.4-321.2"/>
	<text>	<textPath  xlink:href="#SVGID_x5F_58_x5F_" startOffset="41.333%">
<tspan  class="st4" style="font-family:'EdwardianScriptITC'; font-size:40px;">Don</tspan>	</textPath>
</text>
	<g>
		<path id="SVGID_x5F_59_x5F_" class="st2" d="M160.5,430.7c11.6-166.7,156.2-292.5,323-280.8"/>
		<text>		<textPath  xlink:href="#SVGID_x5F_59_x5F_" startOffset="40.649%">
<tspan  class="st4 st5" style="font-size:25px;">Fidélité</tspan>		</textPath>
</text>
	</g>
	<g>
		<path id="SVGID_x5F_60_x5F_" class="st2" d="M216.9,424c9.3-132.8,124.4-232.9,257.2-223.7"/>
		<text>		<textPath  xlink:href="#SVGID_x5F_60_x5F_" startOffset="38.818%">
<tspan  class="st4 st5" style="font-size:25px;">Voués</tspan>		</textPath>
</text>
	</g>
	<path id="SVGID_x5F_61_x5F_" class="st2" d="M523.7,59.1C734.9,62.5,903.4,236.4,900,447.6"/>
	<text>	<textPath  xlink:href="#SVGID_x5F_61_x5F_" startOffset="45.801%">
<tspan  class="st4" style="font-family:'FrenchScriptMT'; font-size:43px;">Néant</tspan>	</textPath>
</text>
	<path id="SVGID_x5F_62_x5F_" class="st2" d="M517.9,107.3c191.2,3,343.7,160.4,340.6,351.6"/>
	<text>	<textPath  xlink:href="#SVGID_x5F_62_x5F_" startOffset="31.885%">
<tspan  class="st4" style="font-family:'EdwardianScriptITC'; font-size:40px;">Force féconde</tspan>	</textPath>
</text>
	<g>
		<path id="SVGID_x5F_63_x5F_" class="st2" d="M519.3,150.2c167.1,2.6,300.5,140.3,297.8,307.4"/>
		<text>		<textPath  xlink:href="#SVGID_x5F_63_x5F_" startOffset="37.085%">
<tspan  class="st4 st5" style="font-size:25px;">Tradition</tspan>		</textPath>
</text>
	</g>
	<g>
		<path id="SVGID_x5F_64_x5F_" class="st2" d="M528.1,198.3c133.1,2.1,239.3,111.7,237.2,244.8"/>
		<text>		<textPath  xlink:href="#SVGID_x5F_64_x5F_" startOffset="10.087%">
<tspan  class="st4 st5" style="font-size:25px;">Système de chose</tspan>		</textPath>
</text>
	</g>
	<g>
		<text transform="matrix(1 0 0 1 441.7525 206.4294)" class="st4 st5 st7">Naturaliste</text>
	</g>
</g>
</svg>
