<?xml version="1.0" encoding="utf-8"?>
<!-- Generator: Adobe Illustrator 25.2.1, SVG Export Plug-In . SVG Version: 6.00 Build 0)  -->
<svg version="1.1" xmlns="http://www.w3.org/2000/svg" xmlns:xlink="http://www.w3.org/1999/xlink" x="0px" y="0px"
	 viewBox="0 0 960 960" style="enable-background:new 0 0 960 960;" xml:space="preserve">
<style type="text/css">
	.st0{display:none;}
	.st1{display:inline;stroke:#FFFFFF;stroke-miterlimit:10;}
	.st2{display:inline;opacity:0.2;fill:#FFE77F;}
	.st3{display:inline;opacity:0.15;fill:#FFE77F;}
	.st4{display:inline;opacity:0.1;fill:#FFE77F;}
	.st5{fill:none;}
	.st6{fill:#FFE77F;}
	.st7{fill:#FFFFFF;}
	.st8{font-family:'Georgia';}
	.st9{font-size:28px;}
	.st10{font-size:18px;}
</style>
<g id="Calque_1" class="st0">
	<path class="st1" d="M960.7,479c0,265.2-215,480.2-480.2,480.2S0.3,744.2,0.3,479S215.3-1.3,480.5-1.3
		C647.8-1.3,795,84.2,881,213.9C931.4,289.9,960.7,381,960.7,479z"/>
	<path class="st2" d="M79.3,220.1c0,0,123-231.1,411.9-219.3c279.4,11.4,396.2,225,396.2,225L477.5,472.5L79.3,220.1z"/>
	<path class="st3" d="M471.1,959.6c0,0-268.2,3.1-411.7-245.5s12.5-482.9,12.5-482.9l401.7,249L471.1,959.6z"/>
	<path class="st4" d="M892,240.3c0,0,140.2,208.7,8.3,463.3c-132.6,256-412.1,255.8-412.1,255.8l-6.6-480.1L892,240.3z"/>
</g>
<g id="Calque_2">
	<path id="SVGID_x5F_1_x5F_" class="st5" d="M367.7,886.6C145.4,832.6,9,608.6,63,386.4"/>
	<text>	<textPath  xlink:href="#SVGID_x5F_1_x5F_" startOffset="21.582%">
<tspan  class="st7 st8" style="font-size:55px;">COMM-ANAR</tspan>	</textPath>
</text>
	<path class="st6" d="M330.8,898c-0.7,0.4-1.3,0.8-1.3,0.8S330.1,898.4,330.8,898c0.7-0.4,1.3-0.8,1.3-0.8S331.5,897.6,330.8,898z"
		/>
	<path id="SVGID_x5F_2_x5F_" class="st5" d="M383.8,857.5C178.5,807.6,52.6,600.8,102.4,395.5"/>
	<text>	<textPath  xlink:href="#SVGID_x5F_2_x5F_" startOffset="27.905%">
<tspan  class="st7 st8" style="font-size:32px;">MATIERE.ESPRIT	</tspan>	</textPath>
</text>
	<path id="SVGID_x5F_3_x5F_" class="st5" d="M390,822.2C204.3,777.1,90.3,589.9,135.4,404.1"/>
	<text>	<textPath  xlink:href="#SVGID_x5F_3_x5F_" startOffset="41.333%">
<tspan  class="st7 st8 st9">Réaliste	</tspan>	</textPath>
</text>
	<g>
		<path id="SVGID_x5F_4_x5F_" class="st5" d="M389.1,780.9C226.7,741.5,127,577.8,166.5,415.4"/>
		<text>		<textPath  xlink:href="#SVGID_x5F_4_x5F_" startOffset="32.983%">
<tspan  class="st7 st8 st9">‘‘Convenable’’</tspan>		</textPath>
</text>
	</g>
	<g>
		<path id="SVGID_x5F_5_x5F_" class="st5" d="M379.1,735.8C249.8,704.3,170.4,574,201.8,444.7"/>
		<text>		<textPath  xlink:href="#SVGID_x5F_5_x5F_" startOffset="18.776%">
<tspan  class="st7 st8 st9">Nature&lt;-&gt;Humanité</tspan>		</textPath>
</text>
	</g>
	<path id="SVGID_x5F_6_x5F_" class="st5" d="M296.7,816.2C334,669.9,245.6,521,99.3,483.7"/>
	<text>	<textPath  xlink:href="#SVGID_x5F_6_x5F_" startOffset="34.538%">
<tspan  class="st7 st8 st10">Dialectique totale</tspan>	</textPath>
</text>
	<path id="SVGID_x5F_7_x5F_" class="st5" d="M314.5,799.1c36.3-142.3-49.7-287-192-323.3"/>
	<text>	<textPath  xlink:href="#SVGID_x5F_7_x5F_" startOffset="35.645%">
<tspan  class="st7 st8 st10">Science du neuf</tspan>	</textPath>
</text>
	<path id="SVGID_x5F_8_x5F_" class="st5" d="M332.9,774.7c32.7-128.2-52.1-271.3-180.5-304"/>
	<text>	<textPath  xlink:href="#SVGID_x5F_8_x5F_" startOffset="36.377%">
<tspan  class="st7 st8 st10">Personnalisme</tspan>	</textPath>
</text>
	<g>
		<path id="SVGID_x5F_9_x5F_" class="st5" d="M344.5,746.3c32.1-113.6-40.8-244.6-154.7-276.9"/>
		<text>		<textPath  xlink:href="#SVGID_x5F_9_x5F_" startOffset="27.069%">
<tspan  class="st7 st8 st10">Volontariat . Gratuité</tspan>		</textPath>
</text>
	</g>
	<g>
		<path id="SVGID_x5F_10_x5F_" class="st5" d="M360.2,731.6c32.8-115.9-34.6-236.4-150.5-269.2"/>
		<text>		<textPath  xlink:href="#SVGID_x5F_10_x5F_" startOffset="30.713%">
<tspan  class="st7 st8 st10">Famille planétaire</tspan>		</textPath>
</text>
	</g>
	<g>
		<path id="SVGID_x5F_11_x5F_" class="st5" d="M379.4,709.2c29.2-103.3-37.7-223.8-141.5-253.2"/>
		<text>		<textPath  xlink:href="#SVGID_x5F_11_x5F_" startOffset="13.831%">
<tspan  class="st7 st8 st10">Critique . Invent. Responsable</tspan>		</textPath>
</text>
	</g>
	<path id="SVGID_x5F_12_x5F_" class="st5" d="M448.4,591.9c-61.9-15-99.9-77.4-84.9-139.3"/>
	<text>	<textPath  xlink:href="#SVGID_x5F_12_x5F_" startOffset="19.25%">
<tspan  class="st7 st8 st10">Egalité . Liberté</tspan>	</textPath>
</text>
	<path id="SVGID_x5F_13_x5F_" class="st5" d="M458.4,575.3c-56.8-13.8-91.6-71-77.8-127.7"/>
	<text>	<textPath  xlink:href="#SVGID_x5F_13_x5F_" startOffset="27.148%">
<tspan  class="st7 st8" style="font-size:16.5041px;">Tranquille</tspan>	</textPath>
</text>
	<g>
		<path id="SVGID_x5F_14_x5F_" class="st5" d="M526.7,543.1c-38.3,23.3-88.3,11.2-111.6-27.1c-23.3-38.3-11.2-88.3,27.1-111.6"/>
		<text>		<textPath  xlink:href="#SVGID_x5F_14_x5F_" startOffset="27.7555%">
<tspan  class="st7 st8" style="font-size:16.5041px;">Nouveau Peuple</tspan>		</textPath>
</text>
	</g>
	<g>
		<text transform="matrix(2.036000e-02 -0.9998 0.9998 2.036000e-02 460.9952 947.8521)" class="st7 st8 st9">HISTOIRE</text>
	</g>
	<path id="SVGID_x5F_15_x5F_" class="st5" d="M652,824.5c-187.6,97-418.3,23.6-515.4-163.9"/>
	<text>	<textPath  xlink:href="#SVGID_x5F_15_x5F_" startOffset="40.514%">
<tspan  class="st7 st8" style="font-size:25px;">Evidence</tspan>	</textPath>
</text>
	<path id="SVGID_x5F_16_x5F_" class="st5" d="M633.6,793.8c-169.8,87.8-378.7,21.4-466.5-148.4"/>
	<text>	<textPath  xlink:href="#SVGID_x5F_16_x5F_" startOffset="41.333%">
<tspan  class="st7 st8" style="font-size:25px;">Prudence</tspan>	</textPath>
</text>
	<g>
		<path id="SVGID_x5F_17_x5F_" class="st5" d="M605.8,763.3C457.3,840.1,274.7,782,197.9,633.6"/>
		<text>		<textPath  xlink:href="#SVGID_x5F_17_x5F_" startOffset="40.649%">
<tspan  class="st7 st8" style="font-size:25px;">Credo</tspan>		</textPath>
</text>
	</g>
	<g>
		<path id="SVGID_x5F_18_x5F_" class="st5" d="M568.6,735.8C450.4,796.9,305,750.7,243.8,632.4"/>
		<text>		<textPath  xlink:href="#SVGID_x5F_18_x5F_" startOffset="38.818%">
<tspan  class="st7 st8" style="font-size:25px;">Masculin</tspan>		</textPath>
</text>
	</g>
	<g>
		<text transform="matrix(0.8809 0.4734 -0.4734 0.8809 68.0882 248.0284)" class="st7 st8 st9">ESPACE</text>
	</g>
	<path id="SVGID_x5F_19_x5F_" class="st5" d="M129.8,675.4c-107-182.1-46.1-416.5,136-523.5"/>
	<text>	<textPath  xlink:href="#SVGID_x5F_19_x5F_" startOffset="40.514%">
<tspan  class="st7 st8" style="font-size:25px;">Adéquation</tspan>	</textPath>
</text>
	<path id="SVGID_x5F_20_x5F_" class="st5" d="M159.5,655.3c-96.8-164.8-41.7-377,123.1-473.8"/>
	<text>	<textPath  xlink:href="#SVGID_x5F_20_x5F_" startOffset="43.262%">
<tspan  class="st7 st8" style="font-size:25px;">Patience</tspan>	</textPath>
</text>
	<g>
		<path id="SVGID_x5F_21_x5F_" class="st5" d="M188.4,626C103.8,481.8,152,296.4,296.1,211.7"/>
		<text>		<textPath  xlink:href="#SVGID_x5F_21_x5F_" startOffset="41.657%">
<tspan  class="st7 st8" style="font-size:25px;">Moeurs</tspan>		</textPath>
</text>
	</g>
	<g>
		<path id="SVGID_x5F_22_x5F_" class="st5" d="M213.9,587.4c-67.4-114.8-29.1-262.5,85.7-329.9"/>
		<text>		<textPath  xlink:href="#SVGID_x5F_22_x5F_" startOffset="37.9395%">
<tspan  class="st7 st8" style="font-size:25px;">Féminin</tspan>		</textPath>
</text>
	</g>
	<path id="SVGID_x5F_23_x5F_" class="st5" d="M897.1,394.6c52.4,222.6-85.6,445.6-308.2,498"/>
	<text>	<textPath  xlink:href="#SVGID_x5F_23_x5F_" startOffset="25.083%">
<tspan  class="st7 st8" style="font-size:55px;">BOURGEOIS</tspan>	</textPath>
</text>
	<path class="st6" d="M924,422.3c0.7,0.4,1.3,0.8,1.3,0.8S924.7,422.8,924,422.3c-0.7-0.4-1.3-0.8-1.3-0.8S923.3,421.9,924,422.3z"
		/>
	<path id="SVGID_x5F_24_x5F_" class="st5" d="M863.9,393.4c48.4,205.6-79,411.5-284.6,459.9"/>
	<text>	<textPath  xlink:href="#SVGID_x5F_24_x5F_" startOffset="30.298%">
<tspan  class="st7 st8" style="font-size:32px;">PERE SUPREME	</tspan>	</textPath>
</text>
	<path id="SVGID_x5F_25_x5F_" class="st5" d="M829.6,403.8c43.8,186.1-71.5,372.5-257.6,416.3"/>
	<text>	<textPath  xlink:href="#SVGID_x5F_25_x5F_" startOffset="34.285%">
<tspan  class="st7 st8 st9">Spiritualiste	</tspan>	</textPath>
</text>
	<g>
		<path id="SVGID_x5F_26_x5F_" class="st5" d="M793.2,423.3C831.5,586,730.7,749,568,787.3"/>
		<text>		<textPath  xlink:href="#SVGID_x5F_26_x5F_" startOffset="32.983%">
<tspan  class="st7 st8 st9">‘‘POLICEE’’</tspan>		</textPath>
</text>
	</g>
	<path id="SVGID_x5F_27_x5F_" class="st5" d="M866.5,489.7c-147.4,33-240.1,179.1-207.2,326.5"/>
	<text>	<textPath  xlink:href="#SVGID_x5F_27_x5F_" startOffset="40.57%">
<tspan  class="st7 st8 st10">Humaniste</tspan>	</textPath>
</text>
	<path id="SVGID_x5F_28_x5F_" class="st5" d="M843.1,481.6c-143.3,32-233.5,174.2-201.4,317.5"/>
	<text>	<textPath  xlink:href="#SVGID_x5F_28_x5F_" startOffset="43.803%">
<tspan  class="st7 st8 st10">Raison</tspan>	</textPath>
</text>
	<path id="SVGID_x5F_29_x5F_" class="st5" d="M813.1,476.2C684,505.1,594.8,645.4,623.7,774.7"/>
	<text>	<textPath  xlink:href="#SVGID_x5F_29_x5F_" startOffset="36.377%">
<tspan  class="st7 st8 st10">Contrat . Loi</tspan>	</textPath>
</text>
	<g>
		<path id="SVGID_x5F_30_x5F_" class="st5" d="M782.5,478.7C666.7,501.5,582.8,625.8,605.6,742"/>
		<text>		<textPath  xlink:href="#SVGID_x5F_30_x5F_" startOffset="35.57%">
<tspan  class="st7 st8 st10">Marché . Etat</tspan>		</textPath>
</text>
	</g>
	<g>
		<path id="SVGID_x5F_31_x5F_" class="st5" d="M762.4,471.4c-118.2,23.2-195.2,137.8-172,256"/>
		<text>		<textPath  xlink:href="#SVGID_x5F_31_x5F_" startOffset="10.479%">
<tspan  class="st7 st8 st10">Cellules privées . Org. publiques</tspan>		</textPath>
</text>
	</g>
	<g>
		<path id="SVGID_x5F_32_x5F_" class="st5" d="M733.7,464.5c-105.4,20.7-182.5,134.9-161.7,240.7"/>
		<text>		<textPath  xlink:href="#SVGID_x5F_32_x5F_" startOffset="13.831%">
<tspan  class="st7 st8 st10">Dogme . Intello . Morale</tspan>		</textPath>
</text>
	</g>
	<path id="SVGID_x5F_33_x5F_" class="st5" d="M597.8,456c14.6,62-23.8,124.1-85.8,138.7"/>
	<text>	<textPath  xlink:href="#SVGID_x5F_33_x5F_" startOffset="35.156%">
<tspan  class="st7 st8 st10">Liberté</tspan>	</textPath>
</text>
	<path id="SVGID_x5F_34_x5F_" class="st5" d="M578.4,454.6c13.4,56.9-21.9,113.8-78.7,127.2"/>
	<text>	<textPath  xlink:href="#SVGID_x5F_34_x5F_" startOffset="19.922%">
<tspan  class="st7 st8" style="font-size:16.5041px;">Révolutionnaire</tspan>	</textPath>
</text>
	<g>
		<path id="SVGID_x5F_35_x5F_" class="st5" d="M518.9,408.3c38.1,23.6,49.9,73.6,26.3,111.8c-23.6,38.1-73.6,49.9-111.8,26.3"/>
		<text>		<textPath  xlink:href="#SVGID_x5F_35_x5F_" startOffset="27.7555%">
<tspan  class="st7 st8" style="font-size:16.5041px;">Ideal Anarchiste</tspan>		</textPath>
</text>
	</g>
	<g>
		<text transform="matrix(-0.9008 0.4343 -0.4343 -0.9008 909.5245 283.7189)" class="st7 st8 st9">TEMPS</text>
	</g>
	<path id="SVGID_x5F_36_x5F_" class="st5" d="M713.1,169.2c171.4,123.4,210.4,362.4,87,533.8"/>
	<text>	<textPath  xlink:href="#SVGID_x5F_36_x5F_" startOffset="40.514%">
<tspan  class="st7 st8" style="font-size:25px;">Etre</tspan>	</textPath>
</text>
	<path id="SVGID_x5F_37_x5F_" class="st5" d="M694.1,199.5c155.2,111.7,190.4,328,78.8,483.2"/>
	<text>	<textPath  xlink:href="#SVGID_x5F_37_x5F_" startOffset="41.333%">
<tspan  class="st7 st8" style="font-size:25px;">Promesse</tspan>	</textPath>
</text>
	<g>
		<path id="SVGID_x5F_38_x5F_" class="st5" d="M679.5,238.1c135.7,97.6,166.5,286.8,68.9,422.4"/>
		<text>		<textPath  xlink:href="#SVGID_x5F_38_x5F_" startOffset="40.649%">
<tspan  class="st7 st8" style="font-size:25px;">Foi</tspan>		</textPath>
</text>
	</g>
	<g>
		<path id="SVGID_x5F_39_x5F_" class="st5" d="M671.7,283.7c108,77.8,132.6,228.4,54.8,336.4"/>
		<text>		<textPath  xlink:href="#SVGID_x5F_39_x5F_" startOffset="38.818%">
<tspan  class="st7 st8" style="font-size:25px;">Meneurs</tspan>		</textPath>
</text>
	</g>
	<path id="SVGID_x5F_40_x5F_" class="st5" d="M816.4,702.3c-114,177.8-350.5,229.6-528.3,115.6"/>
	<text>	<textPath  xlink:href="#SVGID_x5F_40_x5F_" startOffset="48.992%">
<tspan  class="st7 st8" style="font-size:25px;">Néant</tspan>	</textPath>
</text>
	<path id="SVGID_x5F_41_x5F_" class="st5" d="M785.1,684.9C682,845.9,467.9,892.7,306.9,789.5"/>
	<text>	<textPath  xlink:href="#SVGID_x5F_41_x5F_" startOffset="39.926%">
<tspan  class="st7 st8" style="font-size:25px;">Promesse</tspan>	</textPath>
</text>
	<g>
		<path id="SVGID_x5F_42_x5F_" class="st5" d="M745.8,672.4c-90.2,140.7-277.4,181.7-418.1,91.5"/>
		<text>		<textPath  xlink:href="#SVGID_x5F_42_x5F_" startOffset="39.168%">
<tspan  class="st7 st8" style="font-size:25px;">Religion</tspan>		</textPath>
</text>
	</g>
	<g>
		<path id="SVGID_x5F_43_x5F_" class="st5" d="M699.9,667.1c-71.8,112.1-220.9,144.7-333,72.8"/>
		<text>		<textPath  xlink:href="#SVGID_x5F_43_x5F_" startOffset="1.208%">
<tspan  class="st7 st8" style="font-size:25px;">Société de personne</tspan>		</textPath>
</text>
	</g>
	
		<rect x="521.7" y="560.9" transform="matrix(0.5263 -0.8503 0.8503 0.5263 -219.2036 742.7167)" class="st5" width="70.5" height="14.3"/>
	<path id="SVGID_x5F_44_x5F_" class="st5" d="M188.3,166.3C350.1,4.5,612.3,4.5,774,166.3"/>
	<text>	<textPath  xlink:href="#SVGID_x5F_44_x5F_" startOffset="31.019%">
<tspan  class="st7 st8" style="font-size:55px;">PARENTS</tspan>	</textPath>
</text>
	<path class="st6" d="M197.8,128.8c0-0.8,0-1.5,0-1.5S197.8,128,197.8,128.8s0,1.5,0,1.5S197.8,129.7,197.8,128.8z"/>
	<path id="SVGID_x5F_45_x5F_" class="st5" d="M204.9,195.1c149.3-149.3,391.5-149.3,540.8,0"/>
	<text>	<textPath  xlink:href="#SVGID_x5F_45_x5F_" startOffset="18.774%">
<tspan  class="st7 st8" style="font-size:32px;">MERE FONDAMENTALE	</tspan>	</textPath>
</text>
	<path id="SVGID_x5F_46_x5F_" class="st5" d="M231.7,218.9c135.2-135.2,354.4-135.2,489.5,0"/>
	<text>	<textPath  xlink:href="#SVGID_x5F_46_x5F_" startOffset="38.752%">
<tspan  class="st7 st8 st9">Matérialiste	</tspan>	</textPath>
</text>
	<g>
		<path id="SVGID_x5F_47_x5F_" class="st5" d="M267.4,239.5c118.2-118.2,309.8-118.2,428,0"/>
		<text>		<textPath  xlink:href="#SVGID_x5F_47_x5F_" startOffset="37.866%">
<tspan  class="st7 st8 st9">‘‘Sauvage’’</tspan>		</textPath>
</text>
	</g>
	<path id="SVGID_x5F_48_x5F_" class="st5" d="M285.4,142.3c105.6,108,278.7,109.9,386.7,4.3"/>
	<text>	<textPath  xlink:href="#SVGID_x5F_48_x5F_" startOffset="39.258%">
<tspan  class="st7 st8 st10">Propitiation</tspan>	</textPath>
</text>
	<path id="SVGID_x5F_49_x5F_" class="st5" d="M290.7,166.4c102.7,105,271,106.9,375.9,4.2"/>
	<text>	<textPath  xlink:href="#SVGID_x5F_49_x5F_" startOffset="33.056%">
<tspan  class="st7 st8 st10">Coutumes . Rites</tspan>	</textPath>
</text>
	<path id="SVGID_x5F_50_x5F_" class="st5" d="M301.9,194.8c92.5,94.6,258.8,96.6,353.5,4"/>
	<text>	<textPath  xlink:href="#SVGID_x5F_50_x5F_" startOffset="40.328%">
<tspan  class="st7 st8 st10">Matriarcat</tspan>	</textPath>
</text>
	<g>
		<path id="SVGID_x5F_51_x5F_" class="st5" d="M320.2,219.5c80.3,86.5,230.2,92.4,317,11.9"/>
		<text>		<textPath  xlink:href="#SVGID_x5F_51_x5F_" startOffset="40.356%">
<tspan  class="st7 st8 st10">Sang . Sol</tspan>		</textPath>
</text>
	</g>
	<g>
		<path id="SVGID_x5F_52_x5F_" class="st5" d="M324.6,240.4c81.9,88.3,219.9,93.5,308.2,11.5"/>
		<text>		<textPath  xlink:href="#SVGID_x5F_52_x5F_" startOffset="33.789%">
<tspan  class="st7 st8 st10">Etudes . Initiés</tspan>		</textPath>
</text>
	</g>
	<g>
		<path id="SVGID_x5F_53_x5F_" class="st5" d="M333.8,268.5c73,78.7,210.8,84.2,289.8,10.9"/>
		<text>		<textPath  xlink:href="#SVGID_x5F_53_x5F_" startOffset="13.831%">
<tspan  class="st7 st8 st10">Mythes . Sorciers . Préceptes</tspan>		</textPath>
</text>
	</g>
	<path id="SVGID_x5F_54_x5F_" class="st5" d="M398,388.5c45-45,118.1-45,163.1,0"/>
	<text>	<textPath  xlink:href="#SVGID_x5F_54_x5F_" startOffset="35.458%">
<tspan  class="st7 st8 st10">Egalité</tspan>	</textPath>
</text>
	<path id="SVGID_x5F_55_x5F_" class="st5" d="M407,405.7c41.3-41.3,108.3-41.3,149.6,0"/>
	<text>	<textPath  xlink:href="#SVGID_x5F_55_x5F_" startOffset="19.387%">
<tspan  class="st7 st8" style="font-size:16.5041px;">Réactionnaire</tspan>	</textPath>
</text>
	<g>
		<path id="SVGID_x5F_56_x5F_" class="st5" d="M399,480.7c0-44.8,36.4-81.2,81.2-81.2s81.2,36.4,81.2,81.2"/>
		<text>		<textPath  xlink:href="#SVGID_x5F_56_x5F_" startOffset="27.7555%">
<tspan  class="st7 st8" style="font-size:16.5041px;">Rêve Commun</tspan>		</textPath>
</text>
	</g>
	<path id="SVGID_x5F_57_x5F_" class="st5" d="M93.5,441.4C108.2,230.7,290.9,71.8,501.6,86.5"/>
	<text>	<textPath  xlink:href="#SVGID_x5F_57_x5F_" startOffset="40.514%">
<tspan  class="st7 st8" style="font-size:25px;">Evidence</tspan>	</textPath>
</text>
	<path id="SVGID_x5F_58_x5F_" class="st5" d="M129.3,441.6C142.6,250.9,308,107.1,498.7,120.4"/>
	<text>	<textPath  xlink:href="#SVGID_x5F_58_x5F_" startOffset="41.333%">
<tspan  class="st7 st8" style="font-size:25px;">Don</tspan>	</textPath>
</text>
	<g>
		<path id="SVGID_x5F_59_x5F_" class="st5" d="M169.8,433.7C181.4,267,326,141.3,492.7,152.9"/>
		<text>		<textPath  xlink:href="#SVGID_x5F_59_x5F_" startOffset="40.649%">
<tspan  class="st7 st8" style="font-size:25px;">Fidélité</tspan>		</textPath>
</text>
	</g>
	<g>
		<path id="SVGID_x5F_60_x5F_" class="st5" d="M212.6,416.3c9.3-132.8,124.4-232.9,257.2-223.7"/>
		<text>		<textPath  xlink:href="#SVGID_x5F_60_x5F_" startOffset="38.818%">
<tspan  class="st7 st8" style="font-size:25px;">Voués</tspan>		</textPath>
</text>
	</g>
	<path id="SVGID_x5F_61_x5F_" class="st5" d="M492.5,72.9c211.2,3.3,379.7,177.3,376.3,388.4"/>
	<text>	<textPath  xlink:href="#SVGID_x5F_61_x5F_" startOffset="49.121%">
<tspan  class="st7 st8" style="font-size:25px;">Néant</tspan>	</textPath>
</text>
	<path id="SVGID_x5F_62_x5F_" class="st5" d="M494.1,108.7c191.2,3,343.7,160.4,340.6,351.6"/>
	<text>	<textPath  xlink:href="#SVGID_x5F_62_x5F_" startOffset="31.885%">
<tspan  class="st7 st8" style="font-size:25px;">Force féconde</tspan>	</textPath>
</text>
	<g>
		<path id="SVGID_x5F_63_x5F_" class="st5" d="M504.2,148.7C671.3,151.4,804.6,289,802,456.1"/>
		<text>		<textPath  xlink:href="#SVGID_x5F_63_x5F_" startOffset="37.085%">
<tspan  class="st7 st8" style="font-size:25px;">Tradition</tspan>		</textPath>
</text>
	</g>
	<g>
		<path id="SVGID_x5F_64_x5F_" class="st5" d="M523.9,190.6C657,192.7,763.1,302.3,761,435.4"/>
		<text>		<textPath  xlink:href="#SVGID_x5F_64_x5F_" startOffset="10.087%">
<tspan  class="st7 st8" style="font-size:25px;">Système de chose</tspan>		</textPath>
</text>
	</g>
	<g>
		<text transform="matrix(1 0 0 1 437.5038 198.7698)" class="st7 st8 st10">Naturaliste</text>
	</g>
</g>
</svg>
