<?xml version="1.0" encoding="utf-8"?>
<!-- Generator: Adobe Illustrator 25.2.1, SVG Export Plug-In . SVG Version: 6.00 Build 0)  -->
<svg version="1.1" id="Calque_1" xmlns="http://www.w3.org/2000/svg" xmlns:xlink="http://www.w3.org/1999/xlink" x="0px" y="0px"
	 viewBox="0 0 437.6 255.9" style="enable-background:new 0 0 437.6 255.9;" xml:space="preserve">
<style type="text/css">
	.st0{fill:#FFFFFF;}
	.st1{fill:none;stroke:#FFFFFF;stroke-miterlimit:10;}
	.st2{fill:none;}
	.st3{fill:none;stroke:#FFFFFF;stroke-width:0.25;stroke-miterlimit:10;}
	.st4{font-family:'SegoeUI';}
	.st5{font-size:8px;}
	.st6{font-size:6px;}
	.st7{fill:#FFFFFF;stroke:#FFFFFF;stroke-miterlimit:10;}
	.st8{font-family:'Georgia';}
	.st9{font-size:18.1431px;}
	.st10{display:none;}
	.st11{opacity:0.1;fill:none;stroke:#FFFFFF;stroke-width:3;stroke-miterlimit:10;}
</style>
<g>
	<line class="st0" x1="69.9" y1="56.3" x2="57.6" y2="43.4"/>
	<g>
		<line class="st1" x1="67.4" y1="53.7" x2="63.7" y2="49.9"/>
		<g>
			<path class="st0" d="M70,51c1.4,1.5,1.4,3.9-0.1,5.3c-1.5,1.4-3.9,1.4-5.3-0.1c-1.4-1.5-1.4-3.9,0.1-5.3
				C66.2,49.4,68.5,49.5,70,51z"/>
		</g>
		<g>
			<polygon class="st0" points="69.5,46.9 57.6,43.4 60.5,55.5 			"/>
		</g>
	</g>
</g>
<path id="SVGID_x5F_1_x5F_" class="st2" d="M48,66.3c-5.8-9.9-2.8-23.1,6.8-29.5s22.1-3.6,28,6.2"/>
<text><textPath  xlink:href="#SVGID_x5F_1_x5F_" startOffset="5.957%">
<tspan  class="st0 st8" style="font-size:9.7478px;">PROBLEME</tspan></textPath>
</text>
<path id="SVGID_x5F_2_x5F_" class="st2" d="M39.2,70.4c-8.4-14.1-4-33,9.7-42.2s31.7-5.2,40,8.9"/>
<text><textPath  xlink:href="#SVGID_x5F_2_x5F_" startOffset="3.1468%">
<tspan  class="st0 st8" style="font-size:5.9986px;">Secret | Enigmatique | Evident</tspan></textPath>
</text>
<g>
	<g>
		<line class="st0" x1="70.2" y1="190.8" x2="57.3" y2="203.1"/>
		<g>
			<line class="st1" x1="67.6" y1="193.2" x2="63.8" y2="196.9"/>
			<g>
				<path class="st0" d="M64.9,190.6c1.5-1.4,3.9-1.4,5.3,0.1s1.4,3.9-0.1,5.3c-1.5,1.4-3.9,1.4-5.3-0.1
					C63.3,194.5,63.4,192.1,64.9,190.6z"/>
			</g>
			<g>
				<polygon class="st0" points="60.8,191.1 57.3,203.1 69.4,200.1 				"/>
			</g>
		</g>
	</g>
	<path id="SVGID_x5F_3_x5F_" class="st2" d="M80.1,212.6c-9.9,5.8-23.1,2.8-29.5-6.8s-3.6-22.1,6.2-28"/>
	<text>	<textPath  xlink:href="#SVGID_x5F_3_x5F_" startOffset="17.1875%">
<tspan  class="st0 st8" style="font-size:9.7478px;">ACTION</tspan>	</textPath>
</text>
	<path id="SVGID_x5F_4_x5F_" class="st2" d="M84.3,221.5c-14.1,8.4-33,4-42.2-9.7s-5.2-31.7,8.9-40"/>
	<text>	<textPath  xlink:href="#SVGID_x5F_4_x5F_" startOffset="3.1468%">
<tspan  class="st0 st8" style="font-size:5.9986px;">Propice| Morale| Convenable</tspan>	</textPath>
</text>
</g>
<g>
	<g>
		<line class="st0" x1="370.6" y1="53.3" x2="383.5" y2="41"/>
		<g>
			<line class="st1" x1="373.2" y1="50.9" x2="377" y2="47.2"/>
			<g>
				<path class="st0" d="M375.9,53.5c-1.5,1.4-3.9,1.4-5.3-0.1c-1.4-1.5-1.4-3.9,0.1-5.3c1.5-1.4,3.9-1.4,5.3,0.1
					C377.4,49.7,377.4,52,375.9,53.5z"/>
			</g>
			<g>
				<polygon class="st0" points="380,53 383.5,41 371.4,44 				"/>
			</g>
		</g>
	</g>
	<path id="SVGID_x5F_5_x5F_" class="st2" d="M360.6,31.5c9.9-5.8,23.1-2.8,29.5,6.8s3.6,22.1-6.2,28"/>
	<text>	<textPath  xlink:href="#SVGID_x5F_5_x5F_" startOffset="9.1797%">
<tspan  class="st0 st8" style="font-size:9.7478px;">REACTION</tspan>	</textPath>
</text>
	<path id="SVGID_x5F_6_x5F_" class="st2" d="M356.5,22.6c14.1-8.4,33-4,42.2,9.7c9.2,13.7,5.2,31.7-8.9,40"/>
	<text>	<textPath  xlink:href="#SVGID_x5F_6_x5F_" startOffset="1.6001%">
<tspan  class="st0 st8" style="font-size:5.9986px;">(Antago)| Hégémon.| Congénéré</tspan>	</textPath>
</text>
</g>
<g>
	<g>
		<line class="st0" x1="371.4" y1="191.9" x2="383.7" y2="204.8"/>
		<g>
			<line class="st1" x1="373.8" y1="194.5" x2="377.5" y2="198.3"/>
			<g>
				<path class="st0" d="M371.2,197.2c-1.4-1.5-1.4-3.9,0.1-5.3c1.5-1.4,3.9-1.4,5.3,0.1c1.4,1.5,1.4,3.9-0.1,5.3
					C375,198.8,372.7,198.7,371.2,197.2z"/>
			</g>
			<g>
				<polygon class="st0" points="371.7,201.3 383.7,204.8 380.7,192.7 				"/>
			</g>
		</g>
	</g>
	<path id="SVGID_x5F_7_x5F_" class="st2" d="M393.2,182c5.8,9.9,2.8,23.1-6.8,29.5c-9.6,6.4-22.1,3.6-28-6.2"/>
	<text>	<textPath  xlink:href="#SVGID_x5F_7_x5F_" startOffset="9.766%">
<tspan  class="st0 st8" style="font-size:9.7478px;">SOLUTION</tspan>	</textPath>
</text>
	<path id="SVGID_x5F_8_x5F_" class="st2" d="M402,177.8c8.4,14.1,4,33-9.8,42.2s-31.7,5.2-40-8.9"/>
	<text>	<textPath  xlink:href="#SVGID_x5F_8_x5F_" startOffset="2.0875%">
<tspan  class="st0 st8" style="font-size:5.9986px;">Heureuse | Boîteuse| Venimeuse</tspan>	</textPath>
</text>
</g>
<rect x="98.1" y="59.6" class="st3" width="69.2" height="30.1"/>
<rect x="98.1" y="89.8" class="st3" width="69.2" height="30.1"/>
<rect x="98" y="119.9" class="st3" width="69.2" height="30.1"/>
<rect x="98" y="150" class="st3" width="69.2" height="30.1"/>
<text transform="matrix(0.9455 0 0 1 109.3178 72.253)"><tspan x="0" y="0" class="st0 st4 st5">CONCEPTION</tspan><tspan x="4.8" y="9" class="st0 st4 st6">Réalité-Monde</tspan></text>
<path class="st0" d="M84.6,51.2L353.9,51L84.6,51.2z"/>
<path class="st7" d="M67.7,67.3L68,174.4L67.7,67.3z"/>
<text transform="matrix(0.9455 0 0 1 208.2921 46.2765)" class="st0 st4 st5">Nature</text>
<text transform="matrix(0.9455 0 0 1 112.8138 46.1709)" class="st0 st4 st5">Humaine</text>
<text transform="matrix(0.9455 0 0 1 293.1641 46.8666)" class="st0 st4 st5">Humaine</text>
<text transform="matrix(5.789416e-17 -0.9455 1 6.123234e-17 86.1713 103.0373)" class="st0 st8 st5">Créance</text>
<text transform="matrix(5.789416e-17 -0.9455 1 6.123234e-17 86.1715 165.968)" class="st0 st8 st5">Prudence</text>
<g>
	<text transform="matrix(0.9455 0 0 1 34.0502 122.1063)" class="st0 st8 st6">Pourquoi</text>
</g>
<circle class="st7" cx="68.1" cy="149.1" r="2.7"/>
<circle class="st7" cx="67.6" cy="90.1" r="2.7"/>
<path class="st7" d="M64.1,120.7H72H64.1z"/>
<g>
	<text transform="matrix(5.789416e-17 -0.9455 1 6.123234e-17 56.7853 100.2141)" class="st0 st8 st6">Origine</text>
</g>
<g>
	<text transform="matrix(5.789416e-17 -0.9455 1 6.123234e-17 56.7852 161.4558)" class="st0 st8 st6">Moment</text>
</g>
<text transform="matrix(0.9455 0 0 1 90.0674 94.3067)" class="st0 st4 st9">{</text>
<text transform="matrix(0.9455 0 0 1 90.0674 154.7024)" class="st0 st4 st9">{</text>
<text transform="matrix(0.9455 0 0 1 114.67 101.3902)"><tspan x="0" y="0" class="st0 st4 st5">METHODE</tspan><tspan x="2.9" y="9" class="st0 st4 st6">Fin-Moyens</tspan></text>
<text transform="matrix(0.9455 0 0 1 114.9483 131.1774)"><tspan x="0" y="0" class="st0 st4 st5">EXERCICE</tspan><tspan x="-6.3" y="9" class="st0 st4 st6">Faits-Evènements</tspan></text>
<text transform="matrix(0.9455 0 0 1 120.9874 162.837)"><tspan x="0" y="0" class="st0 st4 st5">BILAN</tspan><tspan x="-6.2" y="9" class="st0 st4 st6">Parole-Geste</tspan></text>
<rect x="272.8" y="60.3" class="st3" width="69.2" height="30.1"/>
<rect x="272.7" y="90.4" class="st3" width="69.2" height="30.1"/>
<rect x="272.7" y="120.5" class="st3" width="69.2" height="30.1"/>
<rect x="272.7" y="150.6" class="st3" width="69.2" height="30.1"/>
<text transform="matrix(0.9455 0 0 1 288.9673 76.8647)" class="st0 st4 st5">Vie Pensée</text>
<text transform="matrix(0.9455 0 0 1 282.028 106.0019)" class="st0 st4 st5">Pensée vivante</text>
<text transform="matrix(0.9455 0 0 1 283.045 135.7891)" class="st0 st4 st5">Pensée vécue</text>
<text transform="matrix(0.9455 0 0 1 284.3239 165.4487)" class="st0 st4 st5">Vie pensante</text>
<rect x="186.7" y="65.2" class="st3" width="65.7" height="18.7"/>
<rect x="186.7" y="95.2" class="st3" width="65.7" height="18.7"/>
<rect x="186.7" y="125.2" class="st3" width="65.7" height="18.7"/>
<rect x="186.7" y="155.1" class="st3" width="65.7" height="18.7"/>
<text transform="matrix(0.9455 0 0 1 203.557 77.3092)" class="st0 st4 st5">Mentalité</text>
<text transform="matrix(0.9455 0 0 1 206.7184 106.8514)" class="st0 st4 st5">Moeurs</text>
<text transform="matrix(0.9455 0 0 1 209.1765 136.394)" class="st0 st4 st5">Savoir</text>
<text transform="matrix(0.9455 0 0 1 211.3884 165.936)" class="st0 st4 st5">Faire</text>
<path class="st10" d="M168.2,76.1"/>
<path class="st1" d="M167.2,74.6l19.6-0.1L167.2,74.6z"/>
<path class="st1" d="M167.2,104.6l19.6-0.1L167.2,104.6z"/>
<path class="st1" d="M167.2,134.6l19.6-0.1L167.2,134.6z"/>
<path class="st1" d="M167.2,164.6l19.6-0.1L167.2,164.6z"/>
<path class="st1" d="M252.4,73.8l20.3,0L252.4,73.8z"/>
<path class="st1" d="M252.4,104.8l20.3,0L252.4,104.8z"/>
<path class="st1" d="M252.4,134.8l20.3,0L252.4,134.8z"/>
<path class="st1" d="M252.4,164.8l20.3,0L252.4,164.8z"/>
<path class="st1" d="M272.7,73.8l-105.5,30.8L272.7,73.8z"/>
<path class="st1" d="M272.7,104.8l-105.5,29.8L272.7,104.8z"/>
<path class="st1" d="M272.7,134.8l-105.5,29.8L272.7,134.8z"/>
<path class="st11" d="M167.2,74.6l105.5,90.2L167.2,74.6z"/>
<line class="st11" x1="272.7" y1="73.8" x2="167.2" y2="164.6"/>
<path class="st1" d="M381.2,236.4h-321c-20.2,0-36.6-16.4-36.6-36.6V49c0-20.2,16.4-36.6,36.6-36.6h321c20.2,0,36.6,16.4,36.6,36.6
	v150.8C417.8,220,401.4,236.4,381.2,236.4z"/>
<path class="st0" d="M85.5,193.4l269.4-0.3L85.5,193.4z"/>
<text transform="matrix(0.9455 0 0 1 209.1946 204.502)" class="st0 st4 st5">Nature</text>
<text transform="matrix(0.9455 0 0 1 113.7162 204.3964)" class="st0 st4 st5">Humaine</text>
<text transform="matrix(0.9455 0 0 1 294.0665 205.0921)" class="st0 st4 st5">Humaine</text>
<g>
	<g>
		<line class="st1" x1="168.6" y1="43" x2="185.5" y2="43.2"/>
		<g>
			<polygon class="st0" points="181.3,48.2 180.5,47.3 185,43.2 180.5,38.9 181.4,38 186.9,43.2 			"/>
		</g>
	</g>
</g>
<g>
	<g>
		<line class="st1" x1="252.8" y1="43.2" x2="269.7" y2="43.3"/>
		<g>
			<polygon class="st0" points="265.5,48.4 264.7,47.5 269.2,43.3 264.7,39.1 265.6,38.2 271.1,43.3 			"/>
		</g>
	</g>
</g>
<g>
	<g>
		<line class="st1" x1="169" y1="201.6" x2="185.9" y2="201.7"/>
		<g>
			<polygon class="st0" points="181.7,206.8 180.9,205.9 185.4,201.7 181,197.5 181.8,196.6 187.3,201.7 			"/>
		</g>
	</g>
</g>
<g>
	<g>
		<line class="st1" x1="253.2" y1="201.7" x2="270.1" y2="201.9"/>
		<g>
			<polygon class="st0" points="266,206.9 265.1,206 269.7,201.9 265.2,197.6 266,196.7 271.5,201.9 			"/>
		</g>
	</g>
</g>
<g>
	<text transform="matrix(5.789416e-17 -0.9455 1 6.123234e-17 16.9616 103.8577)" class="st0 st8 st5">Théorie</text>
</g>
<g>
	<text transform="matrix(5.789416e-17 -0.9455 1 6.123234e-17 15.0389 165.2341)" class="st0 st8 st5">Pratique</text>
</g>
<path class="st1" d="M46.4,126.1L28,149.3L46.4,126.1z"/>
<path class="st1" d="M28,90.1l18.4,23.1L28,90.1z"/>
<path class="st7" d="M371.8,174.4l-0.3-107.1L371.8,174.4z"/>
<text transform="matrix(-1.736825e-16 0.9455 -1 -1.836970e-16 353.3393 137.2089)" class="st0 st8 st5">Présence</text>
<text transform="matrix(-1.736825e-16 0.9455 -1 -1.836970e-16 353.3393 77.29)" class="st0 st8 st5">Patience</text>
<g>
	<text transform="matrix(0.9455 0 0 1 381.4587 122.8315)" class="st0 st8 st6">Comment</text>
</g>
<circle class="st7" cx="371.4" cy="92.6" r="2.7"/>
<circle class="st7" cx="371.9" cy="151.5" r="2.7"/>
<path class="st7" d="M375.4,121h-7.9H375.4z"/>
<g>
	<text transform="matrix(-1.736825e-16 0.9455 -1 -1.836970e-16 382.7255 141.2343)" class="st0 st8 st6">Endroit</text>
</g>
<g>
	<text transform="matrix(-1.736825e-16 0.9455 -1 -1.836970e-16 382.7255 81.8383)" class="st0 st8 st6">Instant</text>
</g>
<text transform="matrix(-0.9455 0 0 -1 349.4438 147.3743)" class="st0 st4 st9">{</text>
<text transform="matrix(-0.9455 0 0 -1 349.4438 86.9787)" class="st0 st4 st9">{</text>
<g>
	<text transform="matrix(-1.736825e-16 0.9455 -1 -1.836970e-16 422.5497 132.5009)" class="st0 st8 st5">Manisfeste</text>
</g>
<g>
	<text transform="matrix(-1.736825e-16 0.9455 -1 -1.836970e-16 424.4726 75.7046)" class="st0 st8 st5">Potentiel</text>
</g>
<path class="st1" d="M393.1,115.6l18.4-23.1L393.1,115.6z"/>
<path class="st1" d="M411.5,151.6l-18.4-23.1L411.5,151.6z"/>
</svg>
