<?xml version="1.0" encoding="utf-8"?>
<!-- Generator: Adobe Illustrator 25.2.1, SVG Export Plug-In . SVG Version: 6.00 Build 0)  -->
<svg version="1.1" xmlns="http://www.w3.org/2000/svg" xmlns:xlink="http://www.w3.org/1999/xlink" x="0px" y="0px"
	 viewBox="0 0 1088 675" style="enable-background:new 0 0 1088 675;" xml:space="preserve">
<style type="text/css">
	.st0{fill:#D2B181;stroke:#D2B181;stroke-width:0.75;stroke-miterlimit:10;}
	.st1{fill:#F6E8CD;}
	.st2{fill:#F6E8CD;stroke:#D2B181;stroke-miterlimit:10;}
	.st3{fill:#F6E8CD;stroke:#D2B181;stroke-width:0.75;stroke-miterlimit:10;}
	.st4{fill:none;stroke:#D2B181;stroke-miterlimit:10;}
</style>
<g id="Calque_1">
	<g>
		<path class="st0" d="M40,309l1009-2L40,309z"/>
		<path class="st0" d="M423,640V29V640z"/>
		<path class="st0" d="M42,153l1004,403L42,153z"/>
		<path class="st0" d="M50,645L714,35L50,645z"/>
		<path class="st0" d="M305,36l264,608L305,36z"/>
		<path class="st0" d="M137,37l641,606L137,37z"/>
		<path class="st0" d="M274,643L535,36L274,643z"/>
	</g>
</g>
<g id="Calque_2">
	<rect y="1" class="st1" width="1089" height="673"/>
	<g>
		<g>
			<path class="st0" d="M38,95h1012H38z"/>
			<path class="st0" d="M282,28L63,649L282,28z"/>
			<path class="st0" d="M196,30l606,614L196,30z"/>
			<path class="st0" d="M396,30L35,203L396,30z"/>
			<path class="st0" d="M308,31L36,350L308,31z"/>
			<path class="st0" d="M87,30l958,376L87,30z"/>
		</g>
		<path class="st0" d="M228,29l275,621L228,29z"/>
	</g>
	<g>
		<g>
			<path class="st0" d="M780.8,654.9L505,32L780.8,654.9z"/>
			<path class="st0" d="M936.9,461.5L458,649L936.9,461.5z"/>
			<path class="st0" d="M735,647l-1-619L735,647z"/>
			<path class="st0" d="M1001,651L18,264L1001,651z"/>
			<path class="st0" d="M621,647l428-397L621,647z"/>
			<path class="st0" d="M690,648L949,35L690,648z"/>
			<path class="st0" d="M1055,544L31,543L1055,544z"/>
		</g>
		<path class="st0" d="M822,636.9L242,28L822,636.9z"/>
	</g>
	<g>
		<path class="st0" d="M1046,37L40,431L1046,37z"/>
		<path class="st0" d="M866,34l199,431.6L866,34z"/>
		<path class="st0" d="M925,33L661.7,646.5L925,33z"/>
		<path class="st0" d="M1050,232L827,33L1050,232z"/>
		<path class="st0" d="M1052,161L755,35L1052,161z"/>
		<path class="st0" d="M897,25l4,620L897,25z"/>
	</g>
	<path class="st0" d="M961,34L314,645L961,34z"/>
	<g>
		<path class="st0" d="M40,431l1007,2L40,431z"/>
		<path class="st0" d="M161,645l-1-617L161,645z"/>
		<path class="st0" d="M43,382l624,266L43,382z"/>
		<path class="st0" d="M29,552L602,28L29,552z"/>
		<path class="st0" d="M39,156l217,485L39,156z"/>
		<path class="st0" d="M35,312l366,334L35,312z"/>
		<path class="st0" d="M63,649L340,31L63,649z"/>
	</g>
	<path class="st0" d="M40,476l1011-358L40,476z"/>
	<path class="st2" d="M260.5,89.4"/>
</g>
<g id="Calque_3">
	<g>
		<circle class="st3" cx="257.3" cy="92.8" r="15.3"/>
		<polygon class="st4" points="254.6,89.9 257.3,76.3 260.5,89.4 273,92.8 260.9,95.7 258.1,107.7 254.4,96.3 241.6,92.7 		"/>
		<polygon class="st4" points="258.1,92.8 258.1,107.7 257.3,76.3 257.3,92.8 241.6,92.7 273,92.8 		"/>
		<polygon class="st4" points="246.6,102.9 254.1,97.4 254.6,97.1 252.1,95.8 		"/>
		<polygon class="st4" points="252.7,90 246.3,81.2 254.2,87.8 254.6,89.9 		"/>
		<polygon class="st4" points="260.7,87.2 268,82.6 263,89.7 260.5,89.4 		"/>
		<polygon class="st4" points="268.3,103.5 261.2,97.7 260.9,95.7 262.9,96.1 		"/>
	</g>
	<g>
		<circle class="st3" cx="896.5" cy="95.1" r="12.5"/>
		<polygon class="st4" points="894.2,92.8 896.2,81.6 899.1,92.3 909.4,94.7 899.5,97.4 897.5,107.2 894.2,98 883.7,95.4 		"/>
		<polygon class="st4" points="897.2,95.1 897.5,107.2 896.2,81.6 896.5,95.1 883.7,95.4 909.4,94.7 		"/>
		<polygon class="st4" points="888,103.6 894,98.9 894.4,98.7 892.4,97.7 		"/>
		<polygon class="st4" points="892.7,92.9 887.3,85.9 893.9,91.1 894.2,92.8 		"/>
		<polygon class="st4" points="899.2,90.5 905.1,86.5 901.2,92.4 899.1,92.3 		"/>
		<polygon class="st4" points="905.8,103.6 899.8,99 899.5,97.4 901.2,97.7 		"/>
	</g>
	<g>
		<circle class="st3" cx="160.2" cy="431.2" r="12.5"/>
		<polygon class="st4" points="157.9,428.9 159.9,417.7 162.8,428.4 173.1,430.9 163.2,433.5 161.2,443.4 157.9,434.2 147.4,431.6 
					"/>
		<polygon class="st4" points="160.9,431.2 161.2,443.4 159.9,417.7 160.2,431.2 147.4,431.6 173.1,430.9 		"/>
		<polygon class="st4" points="151.7,439.8 157.7,435.1 158.1,434.8 156.1,433.8 		"/>
		<polygon class="st4" points="156.4,429.1 151,422 157.6,427.3 157.9,428.9 		"/>
		<polygon class="st4" points="162.9,426.6 168.8,422.7 164.8,428.6 162.8,428.4 		"/>
		<polygon class="st4" points="169.4,439.8 163.5,435.2 163.2,433.5 164.8,433.9 		"/>
	</g>
	<g>
		<circle class="st3" cx="733.3" cy="543.3" r="15.3"/>
		<polygon class="st4" points="730.6,540.4 733.3,526.8 736.5,540 749,543.3 736.8,546.2 734.1,558.2 730.4,546.9 717.6,543.3 		"/>
		<polygon class="st4" points="734.1,543.3 734.1,558.2 733.3,526.8 733.3,543.3 717.6,543.3 749,543.3 		"/>
		<polygon class="st4" points="722.6,553.5 730.1,547.9 730.6,547.6 728.1,546.3 		"/>
		<polygon class="st4" points="728.7,540.6 722.3,531.8 730.2,538.4 730.6,540.4 		"/>
		<polygon class="st4" points="736.7,537.8 744,533.1 739,540.2 736.5,540 		"/>
		<polygon class="st4" points="744.3,554.1 737.2,548.2 736.8,546.2 738.8,546.7 		"/>
	</g>
	<path class="st0" d="M257.5,28.5l8,618L257.5,28.5z"/>
</g>
</svg>
