<?xml version="1.0" encoding="utf-8"?>
<!-- Generator: Adobe Illustrator 25.2.1, SVG Export Plug-In . SVG Version: 6.00 Build 0)  -->
<svg version="1.1" xmlns="http://www.w3.org/2000/svg" xmlns:xlink="http://www.w3.org/1999/xlink" x="0px" y="0px"
	 viewBox="0 0 1026 626" style="enable-background:new 0 0 1026 626;" xml:space="preserve">
<style type="text/css">
	.st0{fill:#D2B181;stroke:#D2B181;stroke-width:0.75;stroke-miterlimit:10;}
	.st1{fill:#F6E8CD;}
	.st2{fill:#F6E8CD;stroke:#D2B181;stroke-miterlimit:10;}
	.st3{fill:#F6E8CD;stroke:#D2B181;stroke-width:0.75;stroke-miterlimit:10;}
	.st4{fill:none;stroke:#D2B181;stroke-miterlimit:10;}
</style>
<g id="Calque_1">
	<g>
		<path class="st0" d="M5,282l1009-2L5,282z"/>
		<path class="st0" d="M388,613V2V613z"/>
		<path class="st0" d="M7,126l1004,403L7,126z"/>
		<path class="st0" d="M15,618L679,8L15,618z"/>
		<path class="st0" d="M270,9l264,608L270,9z"/>
		<path class="st0" d="M102,10l641,606L102,10z"/>
		<path class="st0" d="M239,616L500,9L239,616z"/>
	</g>
</g>
<g id="Calque_2">
	<rect y="1" class="st1" width="1026" height="625"/>
	<g>
		<g>
			<path class="st0" d="M3,68h1012H3z"/>
			<path class="st0" d="M247,1L28,622L247,1z"/>
			<path class="st0" d="M161,3l606,614L161,3z"/>
			<path class="st0" d="M361,3L0,176L361,3z"/>
			<path class="st0" d="M278.5,3.5L1,323L278.5,3.5z"/>
			<path class="st0" d="M52,3l958,376L52,3z"/>
		</g>
		<path class="st0" d="M193,2l275,621L193,2z"/>
	</g>
	<g>
		<g>
			<path class="st0" d="M745.8,627.9L470,5L745.8,627.9z"/>
			<path class="st0" d="M901.9,434.5L423,622L901.9,434.5z"/>
			<path class="st0" d="M700,620L699,1L700,620z"/>
			<path class="st0" d="M966,624L-17,237L966,624z"/>
			<path class="st0" d="M586,620l428-397L586,620z"/>
			<path class="st0" d="M655,621L914,8L655,621z"/>
			<path class="st0" d="M1020,517L-4,516L1020,517z"/>
		</g>
		<path class="st0" d="M787,609.9L207,1L787,609.9z"/>
	</g>
	<g>
		<path class="st0" d="M1011,10L5,404L1011,10z"/>
		<path class="st0" d="M831,7l199,431.6L831,7z"/>
		<path class="st0" d="M890,6L626.7,619.5L890,6z"/>
		<path class="st0" d="M1015,205L792,6L1015,205z"/>
		<path class="st0" d="M1017,134L720,8L1017,134z"/>
		<path class="st0" d="M862-2l4,620L862-2z"/>
	</g>
	<path class="st0" d="M926,7L279,618L926,7z"/>
	<g>
		<path class="st0" d="M5,404l1007,2L5,404z"/>
		<path class="st0" d="M126,618L125,1L126,618z"/>
		<path class="st0" d="M8,355l624,266L8,355z"/>
		<path class="st0" d="M-6,525L567,1L-6,525z"/>
		<path class="st0" d="M4,129l217,485L4,129z"/>
		<path class="st0" d="M0,285l366,334L0,285z"/>
		<path class="st0" d="M28,622L305,4L28,622z"/>
	</g>
	<path class="st0" d="M5,449L1016,91L5,449z"/>
	<path class="st2" d="M225.5,62.4"/>
</g>
<g id="Calque_3">
	<g>
		<circle class="st3" cx="222.3" cy="65.8" r="15.3"/>
		<polygon class="st4" points="219.6,62.9 222.3,49.3 225.5,62.4 238,65.8 225.9,68.7 223.1,80.7 219.4,69.3 206.6,65.7 		"/>
		<polygon class="st4" points="223.1,65.8 223.1,80.7 222.3,49.3 222.3,65.8 206.6,65.7 238,65.8 		"/>
		<polygon class="st4" points="211.6,75.9 219.1,70.4 219.6,70.1 217.1,68.8 		"/>
		<polygon class="st4" points="217.7,63 211.3,54.2 219.2,60.8 219.6,62.9 		"/>
		<polygon class="st4" points="225.7,60.2 233,55.6 228,62.7 225.5,62.4 		"/>
		<polygon class="st4" points="233.3,76.5 226.2,70.7 225.9,68.7 227.9,69.1 		"/>
	</g>
	<g>
		<circle class="st3" cx="861.5" cy="68.1" r="12.5"/>
		<polygon class="st4" points="859.2,65.8 861.2,54.6 864.1,65.3 874.4,67.7 864.5,70.4 862.5,80.2 859.2,71 848.7,68.4 		"/>
		<polygon class="st4" points="862.2,68.1 862.5,80.2 861.2,54.6 861.5,68.1 848.7,68.4 874.4,67.7 		"/>
		<polygon class="st4" points="853,76.6 859,71.9 859.4,71.7 857.4,70.7 		"/>
		<polygon class="st4" points="857.7,65.9 852.3,58.9 858.9,64.1 859.2,65.8 		"/>
		<polygon class="st4" points="864.2,63.5 870.1,59.5 866.2,65.4 864.1,65.3 		"/>
		<polygon class="st4" points="870.8,76.6 864.8,72 864.5,70.4 866.2,70.7 		"/>
	</g>
	<g>
		<circle class="st3" cx="125.2" cy="404.2" r="12.5"/>
		<polygon class="st4" points="122.9,401.9 124.9,390.7 127.8,401.4 138.1,403.9 128.2,406.5 126.2,416.4 122.9,407.2 112.4,404.6 
					"/>
		<polygon class="st4" points="125.9,404.2 126.2,416.4 124.9,390.7 125.2,404.2 112.4,404.6 138.1,403.9 		"/>
		<polygon class="st4" points="116.7,412.8 122.7,408.1 123.1,407.8 121.1,406.8 		"/>
		<polygon class="st4" points="121.4,402.1 116,395 122.6,400.3 122.9,401.9 		"/>
		<polygon class="st4" points="127.9,399.6 133.8,395.7 129.8,401.6 127.8,401.4 		"/>
		<polygon class="st4" points="134.4,412.8 128.5,408.2 128.2,406.5 129.8,406.9 		"/>
	</g>
	<g>
		<circle class="st3" cx="698.3" cy="516.3" r="15.3"/>
		<polygon class="st4" points="695.6,513.4 698.3,499.8 701.5,513 714,516.3 701.8,519.2 699.1,531.2 695.4,519.9 682.6,516.3 		"/>
		<polygon class="st4" points="699.1,516.3 699.1,531.2 698.3,499.8 698.3,516.3 682.6,516.3 714,516.3 		"/>
		<polygon class="st4" points="687.6,526.5 695.1,520.9 695.6,520.6 693.1,519.3 		"/>
		<polygon class="st4" points="693.7,513.6 687.3,504.8 695.2,511.4 695.6,513.4 		"/>
		<polygon class="st4" points="701.7,510.8 709,506.1 704,513.2 701.5,513 		"/>
		<polygon class="st4" points="709.3,527.1 702.2,521.2 701.8,519.2 703.8,519.7 		"/>
	</g>
	<path class="st0" d="M222.5,1.5l8,618L222.5,1.5z"/>
</g>
</svg>
