<?xml version="1.0" encoding="utf-8"?>
<!-- Generator: Adobe Illustrator 25.2.1, SVG Export Plug-In . SVG Version: 6.00 Build 0)  -->
<svg version="1.1" id="Calque_1" xmlns="http://www.w3.org/2000/svg" xmlns:xlink="http://www.w3.org/1999/xlink" x="0px" y="0px"
	 viewBox="0 0 960 572.4" style="enable-background:new 0 0 960 572.4;" xml:space="preserve">
<style type="text/css">
	.st0{fill:#1E3E7D;}
	.st1{fill:#85677A;}
	.st2{fill:#64597D;}
	.st3{fill:#48446C;}
</style>
<path class="st0" d="M808.8,30.9c-0.3,0.8,0.1,1.6,0.2,2.4c0.1,0.9,0.1,1.8-0.8,2c-0.9,0.2-1.9,0.1-2.1-1.3c-0.2-1-0.2-2.1-0.3-3.1
	C806.8,30.9,807.8,30.9,808.8,30.9z M808.2,33.9c0.1-0.5-0.1-0.6-0.4-0.7c-0.4-0.1-0.5,0.2-0.6,0.6c-0.2,0.5,0.2,0.6,0.4,0.7
	C807.9,34.5,808.1,34.3,808.2,33.9z"/>
<path class="st1" d="M937.8,270.8c-1.7-2.2-1.7-2.2,0-4.3C937.8,268,937.8,269.4,937.8,270.8z"/>
<path class="st2" d="M897.7,122.4c-1.7-0.9-1.3-2.4-0.8-3.9c0.6,0.4,1.2,1,2,1c0.1,0.6,0.2,1.2,0.3,1.8c-0.2,0.8,0.3,1.5,0.4,2.3
	C899,123.1,898.4,122.5,897.7,122.4z"/>
<path class="st0" d="M921.3,160.3c0.8,0.2,1.1,0.7,0.9,1.5c-0.2,1.1-0.7,2-1.7,2.1c-0.9,0.1-0.8-0.9-0.8-1.5
	C919.8,161.3,920.2,160.4,921.3,160.3z"/>
<path class="st1" d="M50.2,165.2c-0.2,0.2-0.5,0.4-0.7,0.5c-0.4,0.3-0.9,0.8-1.2,0.1c-0.2-0.3-0.2-0.9-0.1-1.3
	c0.3-0.9,1-1.3,1.8-1.6C50,163.6,50.1,164.4,50.2,165.2z"/>
<path class="st1" d="M928.1,181.6c0-0.1,0-0.1,0-0.2c-0.3,0.4-0.6,1-0.9,1.3c-0.4,0.3-1,0.2-1.4-0.2c-0.1-0.1-0.2-0.4-0.1-0.6
	c0.2-0.6,0.5-1.1,1.1-0.9c0.4,0.1,0.7,0.4,1.1,0.5C927.9,181.5,928,181.5,928.1,181.6z"/>
<path class="st0" d="M712.7,192.1c1.7-0.8,2.6-1.1,3.3,0.2c0.1,0.1-0.1,0.5-0.2,0.6C714.7,193.8,714.1,192.6,712.7,192.1z"/>
<path class="st1" d="M416.7,293.2c0.2-1.5,0.6-2.4,1.9-1.9c0.4,0.1,0.5,0.8,0.4,1.2C418.5,293.8,417.6,293.2,416.7,293.2z"/>
<path class="st1" d="M802.6,197.7c0,0.7-0.3,1.3-1,1.3c-0.5,0-1-0.2-1-0.9c0-0.8,0.3-1.4,1-1.4C802.1,196.7,802.5,197,802.6,197.7z"
	/>
<path class="st0" d="M74.5,99.2c-0.5-0.1-0.8-0.4-0.7-0.9c0.1-0.8,0.5-1.3,1.2-1.2c0.5,0,0.7,0.4,0.7,0.9
	C75.6,98.8,75.1,99.1,74.5,99.2z"/>
<path class="st0" d="M892.8,201.8c0,0.7-0.4,1-0.9,1.1c-0.4,0-0.9-0.2-0.9-0.7c0-0.7,0.4-1.1,0.9-1.2
	C892.3,201,892.7,201.2,892.8,201.8z"/>
<path class="st2" d="M813.9,242.5c-0.5,1.5-1.4,1.7-2.6,0.9c0.4-1.4,1.3-1.3,2.2-1.4C813.6,242.2,813.8,242.4,813.9,242.5z"/>
<path class="st2" d="M123.7,113c0.2,0.6,0.2,1.3,0,1.9c-0.7,0.2-1.4,0.1-1.7-0.8l-0.2-0.2C122.3,113.4,122.9,113,123.7,113z"/>
<path class="st0" d="M127.6,169.7c-0.1,0.7-0.4,1-1,1c-0.4,0-0.7-0.4-0.7-0.9c0-0.7,0.4-1,1-1C127.4,168.8,127.6,169.2,127.6,169.7z
	"/>
<path class="st2" d="M850.4,178.1c-0.1,0.7-0.5,1.1-1.1,1c-0.5-0.1-1-0.3-0.8-1.1c0.1-0.6,0.4-1.2,1-1
	C850,177.1,850.4,177.5,850.4,178.1z"/>
<path class="st1" d="M709.4,197.1c-0.1,0.7-0.6,1.1-1.2,1c-0.5-0.1-0.9-0.6-0.7-1.3c0.2-0.8,0.7-1.1,1.4-0.9
	C709.3,196.1,709.5,196.4,709.4,197.1z"/>
<path class="st0" d="M106.5,119.6c0,0.5-0.2,0.9-0.6,1s-0.8,0-0.8-0.6c-0.1-0.5,0.2-0.9,0.6-1S106.4,119.1,106.5,119.6z"/>
<path class="st3" d="M57.3,79.8c-0.5,0.1-0.9,0.2-1.4,0.3c0-0.8-0.1-1.8,0.8-1.8C57.6,78.2,57.5,79.1,57.3,79.8z"/>
<path class="st1" d="M699.9,212.7c-0.5-0.1-0.9-0.2-0.9-1c0.1-0.7,0.5-1,1-1c0.6,0,1,0.2,0.9,1C700.9,212.4,700.6,212.7,699.9,212.7
	z"/>
<path class="st0" d="M837.8,180.6c-0.2,0.7-0.6,0.9-1.1,0.7c-0.4-0.2-0.6-0.6-0.4-1.1c0.2-0.5,0.5-0.7,0.9-0.6
	C837.7,179.7,837.9,180.1,837.8,180.6z"/>
<path class="st1" d="M930.5,191.6c-0.1,0.7-0.4,1-1,1c-0.4,0-0.8-0.2-0.7-0.8c0.1-0.5,0.4-0.8,0.8-0.9
	C930.1,190.9,930.5,191,930.5,191.6z"/>
<path class="st1" d="M744.7,192.6c-0.1,0.7-0.5,1.2-1.2,1.1c-0.4-0.1-0.7-0.5-0.6-1c0.1-0.6,0.5-1,1-1
	C744.5,191.7,744.7,192,744.7,192.6z"/>
<path class="st3" d="M847.7,247c0.6,0.5,1.2,0.9,1.8,1.4l-0.1,0.2c-1.1,0-2.3,0.5-3.2-0.6C846.5,247.3,847,247,847.7,247z"/>
<path class="st0" d="M894.6,205.7c-0.3-0.1-0.5-0.3-0.5-0.7c0.1-0.5,0.4-0.7,0.8-0.7c0.3,0,0.6,0.3,0.5,0.6
	C895.4,205.5,895,205.7,894.6,205.7z"/>
<path class="st1" d="M780.4,233.8c-0.5-0.1-0.6-0.5-0.5-1s0.4-0.7,0.8-0.7c0.4,0,0.8,0.2,0.7,0.8C781.4,233.5,781,233.9,780.4,233.8
	z"/>
<path class="st0" d="M929,203c0.3,0,0.6,0.1,0.7,0.5c0,0.6-0.3,0.8-0.8,0.8c-0.3,0-0.5-0.3-0.5-0.7C928.4,203.3,928.6,203.1,929,203
	z"/>
<path class="st1" d="M708.5,215.7c-0.1,0.6-0.4,1-0.9,1.1c-0.3,0-0.6-0.1-0.6-0.6c0-0.6,0.4-1.1,0.9-1.1
	C708.2,215.1,708.4,215.3,708.5,215.7z"/>
<path class="st2" d="M803.6,191.6c0-0.1-0.2,0.3-0.6,0.3c-0.4,0-0.8-0.2-0.6-0.8c0.1-0.4,0.4-0.8,0.8-0.7
	C803.5,190.4,803.8,190.6,803.6,191.6z"/>
<path class="st2" d="M768.1,252.1c0,1-0.6,1.4-1.3,1.7C766.2,252.1,766.3,252,768.1,252.1z"/>
<path class="st2" d="M829.6,212.2c0.4,0.1,0.7,0.2,0.7,0.6c0,0.7-0.4,0.9-0.9,1c-0.3,0-0.6-0.2-0.6-0.6
	C828.7,212.4,829.1,212.2,829.6,212.2z"/>
<path class="st1" d="M715.2,182c-0.2-0.3-0.5-0.5-0.7-0.8c0.1-0.9,0.3-1.6,1.2-1.6c0.4,0,0.8,0.3,0.8,0.8
	C716.5,181.4,715.9,181.7,715.2,182z"/>
<path class="st2" d="M611.4,326.2c-0.5,0.2-1.3,0.8-1.4-0.2c-0.1-0.9,0.7-0.9,1.3-0.6C611.3,325.6,611.3,325.9,611.4,326.2z"/>
<path class="st3" d="M813,178.6c0.5,0.1,0.9,0.4,1,1.1c-0.4,0.2-0.9,0.5-1.3,0C812.4,179.3,812.8,178.9,813,178.6z"/>
<path class="st0" d="M719.5,196.5c-0.1,0.3-0.2,0.6-0.3,0.9c-0.1,0.4-0.3,1-0.7,0.8c-0.5-0.2-0.3-0.7-0.2-1.1c0-0.2,0.1-0.4,0.1-0.7
	C718.7,196.5,719.1,196.5,719.5,196.5z"/>
<path class="st0" d="M604.8,298.6c0.2,0,0.4,0,0.6,0c0.4,0,0.8,0,0.8,0.6c0,0.1-0.1,0.2-0.1,0.3c-0.4,0.4-0.7,0.1-0.9-0.3
	C605.1,299,605,298.8,604.8,298.6C604.9,298.6,604.8,298.6,604.8,298.6z"/>
<path class="st3" d="M791,217.4c-0.3-0.1-0.6-0.3-0.4-0.7c0-0.2,0.3-0.3,0.4-0.3c0.3,0,0.5,0.3,0.5,0.7
	C791.4,217.2,791.2,217.3,791,217.4z"/>
<path class="st2" d="M719.5,196.5c-0.4,0-0.8-0.1-1.2-0.1c0.2-0.5,0.4-1.2,1-1C719.9,195.6,719.6,196.1,719.5,196.5z"/>
<path class="st2" d="M256.6,173.7c-0.1,0.2-0.1,0.4-0.2,0.5c-0.3,0.2-0.6,0.2-0.7-0.2c0-0.2,0-0.5,0.2-0.6
	C256.2,173.3,256.5,173.3,256.6,173.7z"/>
<path class="st2" d="M280.1,149.4c0.3,0,0.6,0.2,0.6,0.5c0.1,0.4-0.2,0.6-0.5,0.6c-0.2,0-0.4-0.2-0.5-0.3
	C279.6,149.9,279.7,149.6,280.1,149.4z"/>
<path class="st2" d="M211.1,143.8c-0.1,0.2-0.1,0.4-0.2,0.6c-0.3,0.2-0.6,0.2-0.7-0.3c0-0.2,0.1-0.5,0.2-0.6
	C210.6,143.3,210.9,143.4,211.1,143.8z"/>
<path class="st3" d="M276.8,135.1c0.8-0.5,1.4-0.4,1.5,0.9C277.6,136.3,277.2,135.8,276.8,135.1z"/>
<path class="st2" d="M645.8,300.6c0,0.4-0.1,0.7-0.4,0.7c-0.1,0-0.4-0.2-0.4-0.4c-0.1-0.3,0.1-0.7,0.4-0.7
	C645.5,300.2,645.7,300.4,645.8,300.6z"/>
<path class="st0" d="M675.8,262.8c-0.1-0.2-0.3-0.3-0.3-0.5c0-0.4,0.3-0.6,0.6-0.4c0.1,0.1,0.2,0.4,0.2,0.6
	C676.2,262.6,675.9,262.7,675.8,262.8z"/>
<path class="st0" d="M340.6,242.9c-0.3-0.1-0.5-0.3-0.4-0.7c0-0.2,0.3-0.3,0.4-0.3c0.3,0,0.5,0.3,0.4,0.7
	C341,242.7,340.7,242.8,340.6,242.9z"/>
<path class="st1" d="M424.1,242.3c0.1-0.6,0.2-1.1,0.8-1c0.1,0,0.4,0.3,0.4,0.4c0.1,0.8-0.5,0.8-0.9,0.9
	C424.3,242.5,424.2,242.4,424.1,242.3z"/>
<path class="st3" d="M434.7,305.7c0.1-0.2,0.1-0.3,0.2-0.5c0.1,0.1,0.4,0.2,0.4,0.3c0,0.2-0.1,0.3-0.2,0.5
	C435,305.8,434.8,305.8,434.7,305.7z"/>
<path class="st3" d="M438.4,303.2c0.1,0.1,0.4,0.1,0.4,0.3c0,0.2-0.1,0.4-0.2,0.5c-0.2,0.2-0.4,0-0.4-0.2
	C438.2,303.6,438.3,303.4,438.4,303.2z"/>
<path class="st1" d="M637.9,302.4c-0.8-0.2-0.7-0.8-0.4-1.5C638.3,301.1,638.7,301.5,637.9,302.4z"/>
<path class="st0" d="M301.5,179.3c-0.1-0.1-0.2-0.2-0.4-0.3c0.1-0.1,0.2-0.3,0.3-0.4c0,0,0.2,0.1,0.2,0.2
	C301.7,179,301.6,179.1,301.5,179.3z"/>
<path class="st0" d="M718.4,219c-0.1-0.1-0.3-0.2-0.4-0.3c0.1-0.1,0.2-0.3,0.4-0.3c0,0,0.2,0.1,0.2,0.2
	C718.7,218.7,718.6,218.9,718.4,219z"/>
<path class="st0" d="M767.2,220.2c-0.1,0.1-0.2,0.3-0.4,0.4c-0.1-0.1-0.2-0.3-0.2-0.4c0,0,0.1-0.2,0.2-0.2
	C766.9,220,767,220.1,767.2,220.2z"/>
<path class="st3" d="M361.2,221c0.2-0.2,0.5-0.5,0.7-0.7c0.2,0.3,0.5,0.7,0.2,1.1C361.7,221.7,361.4,221.3,361.2,221z"/>
<path class="st1" d="M290.9,201.7c-0.3-0.1-0.5-0.4-0.3-0.7c0.1-0.3,0.4-0.5,0.7-0.3c0.1,0.1,0.3,0.4,0.2,0.5
	C291.5,201.6,291.2,201.8,290.9,201.7z"/>
<path class="st3" d="M734.9,212.2c-0.2-0.1-0.3-0.3-0.1-0.5c0.1-0.1,0.3-0.2,0.5-0.3c0,0.2,0.2,0.4,0.1,0.5
	C735.3,212,735.1,212.1,734.9,212.2z"/>
<path class="st2" d="M229.3,190.9c-0.1,0.4-0.3,0.6-0.6,0.4c-0.1-0.1-0.3-0.4-0.3-0.5c0-0.4,0.3-0.5,0.6-0.4
	C229.1,190.4,229.2,190.7,229.3,190.9z"/>
<path class="st0" d="M236.5,132.5c0.6,0.1,1.1,0.2,1.4,0.9C236.9,134.3,236.7,133.5,236.5,132.5z"/>
<path class="st0" d="M718.4,238.9c0.1-0.1,0.2-0.3,0.3-0.4c0.1,0.1,0.2,0.3,0.2,0.4c0,0-0.1,0.2-0.2,0.2
	C718.6,239.3,718.5,239.2,718.4,238.9z"/>
<path class="st0" d="M627,256.4c0.1,0,0.2,0.1,0.2,0.1c0,0.1-0.1,0.2-0.1,0.2C626.8,256.7,626.8,256.6,627,256.4z"/>
<path class="st0" d="M770.3,258.7c0-0.3,0.1-0.5,0.1-0.8c0.5,0,1,0,1.5,0c-0.1,0.7-0.5,1.2-0.9,1.6
	C770.8,259.3,770.5,259,770.3,258.7z"/>
<path class="st3" d="M593.7,268.7c-0.1,0.1-0.2,0.3-0.3,0.3c-0.2,0-0.3-0.2-0.2-0.4c0-0.1,0.2-0.2,0.2-0.2
	C593.5,268.5,593.6,268.6,593.7,268.7z"/>
<path class="st0" d="M604.9,298.6c-0.3-0.1-0.6-0.3-0.9-0.4c0.1-0.2,0.3-0.3,0.4-0.5C604.6,298,604.7,298.3,604.9,298.6
	C604.8,298.6,604.9,298.6,604.9,298.6z"/>
<path class="st0" d="M604,298.1c0-0.2-0.1-0.4-0.1-0.6c0.2,0,0.3,0.1,0.5,0.1C604.3,297.8,604.2,298,604,298.1z"/>
<path class="st0" d="M215.3,206.4c0.4,0.9,1.2,1.9,1.4,3c0.2,1-0.8,1.2-1.5,1.3c-1.3,0.2-2.1-0.5-2.3-2
	C212.9,207.3,213.5,206.6,215.3,206.4z"/>
<path class="st1" d="M794.9,242.5c0.7,0.2,1.4,0.4,1.3,1.5c0,1-0.5,1.8-1.5,1.7c-0.7-0.1-1.3-0.6-1.2-1.7
	C793.7,243.1,794.1,242.5,794.9,242.5z"/>
<path class="st1" d="M49.5,216.5c0.7-0.1,1,0.4,1.1,1c0.1,1-0.6,1.4-1.2,1.7c-0.5,0.3-0.7-0.1-0.8-0.6
	C48.3,217.6,48.8,217,49.5,216.5z"/>
<path class="st2" d="M934.3,270.9c0,0.6-0.2,0.9-0.7,0.9c-0.4,0-0.9-0.1-0.9-0.7c0-0.2,0.4-0.6,0.6-0.7
	C933.8,270.2,934.2,270.3,934.3,270.9z"/>
<path class="st2" d="M926.5,240.8c-0.1,0.7-0.4,1-1,1c-0.3,0-0.7-0.2-0.6-0.6c0.1-0.7,0.5-1,1.1-1
	C926.2,240.1,926.4,240.4,926.5,240.8z"/>
<path class="st2" d="M904.4,308.5c0,0.5-0.1,0.9-0.5,1.2c-0.5,0.4-0.9,0.3-1.2-0.2c-0.4-0.7,0.1-1,0.6-1.2c0.3-0.1,0.6,0,0.8,0
	C904.2,308.3,904.2,308.4,904.4,308.5z"/>
<path class="st1" d="M714.4,303.6c-0.2,0.7-0.5,1-1.1,0.8c-0.5-0.1-0.6-0.5-0.5-1.1c0.1-0.5,0.5-0.7,0.9-0.7
	C714.1,302.7,714.5,303,714.4,303.6z"/>
<path class="st2" d="M122.6,209.6c0.6-0.5,0.3-1.9,1.5-1.7c0.3,0.1,0.6,0.3,0.5,0.7C124.2,209.7,123.2,209.1,122.6,209.6
	L122.6,209.6z"/>
<path class="st2" d="M856.1,276.3c-0.3-0.1-0.6-0.3-0.5-0.7c0-0.6,0.4-0.7,0.9-0.7c0.3,0,0.6,0.3,0.6,0.7
	C856.9,276.1,856.6,276.3,856.1,276.3z"/>
<path class="st2" d="M816.2,284.4c-0.3,0-0.6-0.1-0.7-0.4c-0.1-0.7,0.3-1.1,0.8-1.1c0.3,0,0.6,0.2,0.6,0.6
	C816.9,284,816.7,284.4,816.2,284.4z"/>
<path class="st2" d="M774.2,283c-0.1-0.1-0.4-0.2-0.4-0.4c0-0.4,0.2-0.6,0.5-0.6c0.1,0,0.4,0.2,0.4,0.4
	C774.8,282.8,774.6,283,774.2,283z"/>
<path class="st2" d="M711.6,360.5c-0.4,1.4-1.3,1.2-2.2,1.2C709.5,359.9,710.6,360.3,711.6,360.5z"/>
<path class="st2" d="M801.5,307.8c-0.1,0.5-0.4,0.8-0.8,0.8c-0.3,0-0.6-0.2-0.6-0.6c0.1-0.5,0.4-0.8,0.8-0.8
	C801.2,307.2,801.5,307.3,801.5,307.8z"/>
<path class="st2" d="M122.6,209.6c-0.1,0.1-0.3,0.3-0.4,0.4c-0.2,0.3-0.3,0.6-0.6,0.5c-0.1,0-0.2-0.4-0.2-0.5
	c0.1-0.4,0.4-0.3,0.7-0.3C122.2,209.7,122.4,209.7,122.6,209.6L122.6,209.6z"/>
<path class="st0" d="M870.7,293.5c-0.1,0.2-0.2,0.4-0.3,0.5c-0.4,0.1-0.5-0.2-0.4-0.6c0-0.1,0.3-0.3,0.4-0.3
	C870.5,293,870.6,293.3,870.7,293.5z"/>
<path class="st2" d="M683.9,329.7c0.1,0.2,0.3,0.3,0.3,0.4c-0.1,0.4-0.3,0.5-0.6,0.3c-0.1-0.1-0.2-0.4-0.1-0.5
	C683.6,329.8,683.8,329.8,683.9,329.7z"/>
<path class="st0" d="M633.5,323.2c-0.2,0.1-0.3,0.3-0.5,0.3c-0.4,0-0.5-0.3-0.3-0.7c0.1-0.1,0.4-0.2,0.5-0.2
	C633.3,322.7,633.4,323,633.5,323.2z"/>
<path class="st3" d="M831.7,286.6c0.1-0.1,0.3-0.4,0.4-0.4c0.2-0.1,0.4,0.1,0.4,0.4c0,0.2-0.2,0.4-0.4,0.4
	C832,287,831.8,286.8,831.7,286.6z"/>
<path class="st2" d="M796.6,298.3c-0.1,0.2-0.1,0.4-0.3,0.6s-0.4,0.1-0.5-0.2c0-0.2,0.1-0.5,0.2-0.6
	C796.2,298.1,796.4,298.3,796.6,298.3z"/>
<path class="st1" d="M323.3,297.3c-0.1,0.3-0.3,0.6-0.6,0.5c-0.3-0.1-0.5-0.2-0.4-0.7c0.1-0.3,0.2-0.6,0.6-0.5
	C323.2,296.7,323.4,296.9,323.3,297.3z"/>
<path class="st2" d="M244.3,218.1c-0.3-0.1-0.5-0.3-0.4-0.6c0.1-0.1,0.3-0.3,0.5-0.3c0.3,0,0.5,0.3,0.4,0.7
	C244.8,218,244.5,218.1,244.3,218.1z"/>
<path class="st2" d="M691.2,378.9c0.3,0.3,0.5,0.6,0.2,1.1c-0.1,0.1-0.2,0.1-0.2,0.1c-0.5-0.2-0.3-0.7-0.4-1
	C690.9,379,691,379,691.2,378.9z"/>
<path class="st2" d="M579.5,366.9c-0.1,0.1-0.2,0.4-0.4,0.4c-0.3,0-0.5-0.3-0.3-0.6c0.1-0.1,0.3-0.3,0.5-0.2
	C579.4,366.4,579.5,366.7,579.5,366.9z"/>
<path class="st2" d="M515.3,347.9c-0.1,0.1-0.2,0.4-0.4,0.4c-0.3,0-0.6-0.1-0.4-0.6c0-0.1,0.3-0.3,0.5-0.2
	C515.1,347.5,515.2,347.8,515.3,347.9z"/>
<path class="st2" d="M608.3,340.5c0.1-0.1,0.2-0.4,0.3-0.4c0.2,0,0.3,0.2,0.2,0.4c0,0.1-0.1,0.2-0.2,0.2
	C608.5,340.6,608.4,340.5,608.3,340.5z"/>
<path class="st2" d="M407.9,340.4c-0.1,0.2-0.2,0.3-0.3,0.5c-0.1-0.2-0.2-0.3-0.2-0.5c0-0.1,0.1-0.2,0.2-0.3
	C407.8,340,407.9,340.1,407.9,340.4z"/>
<path class="st2" d="M704.9,334.1c0.1-0.2,0.1-0.4,0.2-0.5c0.1-0.1,0.3,0.1,0.5,0.2c-0.1,0.2-0.1,0.4-0.2,0.6
	C705.2,334.2,705,334.2,704.9,334.1z"/>
<path class="st3" d="M658.3,392.6c0.5,0,0.9,0.2,1.2,0.7C658.9,393.3,658.5,393.1,658.3,392.6z"/>
<path class="st0" d="M660.5,394.8c-0.2,0-0.3,0-0.5,0c0-0.3,0-0.5,0-0.8c0.3,0.1,0.6,0.2,0.8,0.4
	C660.8,394.5,660.6,394.7,660.5,394.8z"/>
<path class="st3" d="M659.4,393.3c0.2,0.2,0.4,0.5,0.6,0.7C659.7,393.9,659.5,393.7,659.4,393.3z"/>
<path class="st3" d="M658.2,391.7c0,0.3,0,0.5,0,0.8C657.8,392.3,658,392,658.2,391.7z"/>
<path class="st1" d="M667.2,74c-0.7-0.5-1.4-1.2-1.4-2c-0.2-1.4-0.4-2.4-1.8-2.8c-0.4-0.1-0.5-0.7-0.3-1.2c0.2-0.6,0.7-0.9,1.2-0.7
	c0.5,0.1,0.7,0.7,0.5,1.1c-1.1,2.6-0.1,3.6,2,4c0.4,0.1,0.7,0.5,0.4,1C667.8,73.6,667.5,73.8,667.2,74z"/>
<path class="st0" d="M907.8,39.5c-0.1,0.4-0.2,0.7-0.3,1.1c-0.6-0.2-1.1-0.3-1.7-0.5c-0.3-0.4-0.6-0.9-0.9-1.3c0-0.7,0-1.3,0-2
	c0.4,0,0.8-0.1,1.2-0.1C907.1,37.2,907.6,38.2,907.8,39.5z"/>
<path class="st2" d="M810.7,80.9c0.6-1.7,2.6-1.1,3.2-2.8c0-0.1,0.6,0,0.7,0.2c0.1,0.2,0.1,0.7-0.1,0.9c-0.6,0.7-1.6,0.8-1.8,2.1
	C812.1,80.6,811.4,80.7,810.7,80.9z"/>
<path class="st1" d="M292.3,42.8c-0.8,0-1.2-0.7-1.1-1.6c0.1-1.1,0.8-1.6,1.7-1.6c0.7,0.1,1.4,0.3,1.4,1.4
	C294.1,42.4,293.2,42.6,292.3,42.8z"/>
<path class="st0" d="M825.2,54.4c0,0.7-0.3,1.1-0.8,1.2c-0.8,0.2-1.3-0.5-1.4-1.4c-0.1-0.7,0.4-1,0.9-1.1
	C824.7,53.2,825.1,53.6,825.2,54.4z"/>
<path class="st1" d="M707.1,92.6c0,0.8-0.3,1.3-1.1,1.4s-1.4-0.4-1.4-1.3c0-1,0.6-1.4,1.4-1.4C706.7,91.3,707,91.8,707.1,92.6z"/>
<path class="st1" d="M495.6,94.4c0.2,2.4,0,2.7-2,1.7c0-0.2-0.1-0.5-0.1-0.7C494.1,94.9,494.7,94.1,495.6,94.4L495.6,94.4z"/>
<path class="st1" d="M802.4,99.9c-0.3,0.1-0.6,0.2-0.8,0.3c-0.5,0-1.1,0.2-1.1-0.6c-0.1-0.8,0.3-1.3,1-1.2c0.5,0.1,0.9,0.3,1.4,0.4
	C802.6,99,802.4,99.4,802.4,99.9z"/>
<path class="st0" d="M784.4,79.2c1.5-0.5,2.3-1.1,3.1-0.2c0.1,0.1,0,0.5-0.1,0.6C786.5,80.7,785.8,79.5,784.4,79.2z"/>
<path class="st1" d="M495.9,37c0,0.5-0.3,0.9-0.8,1c-0.3,0-0.6-0.2-0.6-0.6c0-0.6,0.2-1.1,0.8-1.1C495.6,36.2,495.8,36.4,495.9,37z"
	/>
<path class="st1" d="M810.7,80.9c0.7-0.2,1.4-0.3,2.1,0.4c0,0.3-0.1,0.6-0.1,0.9l-0.2,0.1v0.2c-0.4,0-0.9,0-1.3,0.1
	c-0.2-0.2-0.3-0.4-0.5-0.6C810.6,81.6,810.7,81.3,810.7,80.9z"/>
<path class="st3" d="M608.5,43.5c0,0.5-0.1,0.9-0.4,1c-0.6,0.2-0.9-0.3-1-0.9c-0.1-0.4-0.1-0.7,0.3-0.7
	C607.9,42.9,608.4,42.9,608.5,43.5z"/>
<path class="st1" d="M601.7,118.7c-0.4-0.1-1.2,0.2-1.1-0.6c0.1-1,0.7-1.2,1.4-0.7C602,117.8,601.8,118.3,601.7,118.7z"/>
<path class="st1" d="M320.6,45.6c-0.1,0.5-0.1,0.9-0.6,1c-0.4,0.1-0.8-0.1-0.9-0.6c-0.1-0.7,0.2-1.1,0.7-1.2
	C320.3,44.7,320.5,45,320.6,45.6z"/>
<path class="st0" d="M597.4,58.2c0,0.3-0.2,0.6-0.5,0.6s-0.5-0.4-0.4-0.8c0.1-0.2,0.2-0.4,0.4-0.5C597.2,57.4,597.3,57.7,597.4,58.2
	z"/>
<path class="st0" d="M706.1,60.8c0.3,0.1,0.5,0.4,0.4,0.7s-0.4,0.5-0.6,0.6c-0.3,0.1-0.6-0.2-0.5-0.6
	C705.3,61,705.6,60.8,706.1,60.8z"/>
<path class="st1" d="M753.7,112c0.1,1.7-0.6,1.9-1.8,1.4C752.1,112.2,752.7,111.7,753.7,112z"/>
<path class="st0" d="M251.3,71.8c-0.7,0.1-1.2-0.2-1.5-1c0.4-0.3,0.8-0.6,1.2-0.9c0.2,0.1,0.3,0.2,0.5,0.2
	C251.4,70.7,251.3,71.2,251.3,71.8z"/>
<path class="st2" d="M560.6,81.2c0,0.6-0.3,1.1-0.8,1c-0.3,0-0.5-0.2-0.5-0.6c0-0.7,0.3-1,0.9-1.1C560.4,80.5,560.6,80.8,560.6,81.2
	z"/>
<path class="st2" d="M724.7,122c-0.1,0.1-0.2,0.2-0.2,0.3c-0.4,0.1-1.1,0.6-1.3-0.1c-0.3-1.3,0.7-1,1.3-1.2
	C724.6,121.3,724.7,121.6,724.7,122z"/>
<path class="st2" d="M542.9,136.3c0.2-0.5,0.8-1.2,1-0.7c0.3,0.7,0.1,1.8-0.9,2C542.9,137.2,542.9,136.7,542.9,136.3z"/>
<path class="st0" d="M615.3,110.7c-0.3-0.1-0.5-0.4-0.4-0.8c0.1-0.3,0.3-0.6,0.7-0.4c0.1,0.1,0.3,0.4,0.3,0.6
	C615.8,110.5,615.6,110.7,615.3,110.7z"/>
<path class="st0" d="M702.8,43.7c-0.1,0.2-0.1,0.5-0.2,0.6c-0.3,0.2-0.6,0-0.6-0.4c0-0.2,0.2-0.4,0.3-0.5
	C702.4,43.4,702.6,43.6,702.8,43.7z"/>
<path class="st0" d="M506.1,136.4c0.4,0.1,0.7,0.4,0.7,0.9c0,0.4-0.3,0.6-0.6,0.4c-0.2-0.1-0.5-0.4-0.5-0.7
	C505.6,136.7,505.8,136.5,506.1,136.4z"/>
<path class="st1" d="M357.3,54.3c0,0.4-0.2,0.7-0.5,0.7c-0.5,0-0.7-0.3-0.6-0.8c0-0.4,0.3-0.6,0.6-0.6
	C357.1,53.7,357.3,53.9,357.3,54.3z"/>
<path class="st3" d="M655.4,59c-0.1,0.3-0.3,0.5-0.6,0.4c-0.3-0.1-0.4-0.4-0.3-0.8c0.1-0.2,0.3-0.4,0.4-0.4
	C655.3,58.2,655.5,58.5,655.4,59z"/>
<path class="st1" d="M566.9,68.6c-0.3-0.1-0.5-0.3-0.5-0.7c0-0.5,0.3-0.8,0.7-0.9c0.5-0.1,0.7,0.3,0.6,0.8S567.3,68.6,566.9,68.6z"
	/>
<path class="st1" d="M663.8,79.3c-0.1,0.6-0.4,0.8-0.8,0.8c-0.5,0-0.7-0.4-0.7-0.9c0-0.6,0.4-0.8,0.8-0.8
	C663.6,78.4,663.8,78.7,663.8,79.3z"/>
<path class="st1" d="M420.9,84.1c0,0.5-0.1,1-0.6,1c-0.4,0-0.8-0.2-0.7-0.8c0-0.3,0.3-0.6,0.5-0.7C420.5,83.3,420.8,83.5,420.9,84.1
	z"/>
<path class="st0" d="M465.8,87.3c0.7,0.7,1.3,1.1,0.9,1.9c0,0.1-0.4,0.2-0.5,0.1C465.5,88.8,465.9,88.2,465.8,87.3z"/>
<path class="st1" d="M495,144.5c0.6,0.4,0.9,0.9,0.3,1.5c-0.2,0.2-0.6,0.3-0.8,0.2c-0.6-0.6-0.3-1.2,0.1-1.7
	C494.8,144.6,494.9,144.6,495,144.5z"/>
<path class="st2" d="M479.3,87.6c0.3,0.1,0.6,0.2,0.6,0.6s-0.3,0.6-0.6,0.6c-0.3,0-0.6-0.2-0.5-0.6C478.8,87.8,479,87.6,479.3,87.6z
	"/>
<path class="st2" d="M539.4,89.3c0.4-0.3,0.6-1,1.2-0.6c0.1,0.1,0.2,0.5,0.1,0.6C540.3,90,539.8,89.5,539.4,89.3L539.4,89.3z"/>
<path class="st2" d="M663.7,65c-0.2,0.5-0.4,0.7-0.9,0.6c-0.1,0-0.2-0.4-0.2-0.6c0.1-0.5,0.4-0.8,0.8-0.6
	C663.5,64.4,663.6,64.8,663.7,65z"/>
<path class="st2" d="M543.6,65.1c-0.3,0-0.5-0.1-0.6-0.5c0-0.5,0.2-0.9,0.6-0.8c0.2,0,0.4,0.2,0.4,0.3
	C544.2,64.5,544,64.9,543.6,65.1z"/>
<path class="st2" d="M405.6,37.3c0,0.1-0.3,0.2-0.6,0.2c-0.3,0-0.5-0.3-0.5-0.7c0-0.4,0.3-0.6,0.6-0.6
	C405.4,36.2,405.6,36.5,405.6,37.3z"/>
<path class="st2" d="M617,43.6c0,0.4-0.1,0.7-0.4,0.8c-0.3,0.1-0.6-0.1-0.6-0.4s0.2-0.6,0.4-0.8C616.7,43,616.9,43.2,617,43.6z"/>
<path class="st0" d="M219.9,49.6c-0.6-0.1-0.8-0.4-0.8-0.8c0-0.4,0.2-0.7,0.6-0.6c0.5,0,0.7,0.4,0.6,0.9
	C220.2,49.4,219.9,49.6,219.9,49.6z"/>
<path class="st0" d="M829.5,65.4c0.1,0.2,0.3,0.3,0.2,0.5c0,0.2-0.2,0.4-0.3,0.4c-0.4,0.1-0.5-0.2-0.3-0.6
	C829.1,65.5,829.3,65.5,829.5,65.4z"/>
<path class="st2" d="M283.3,68.7c-0.5,0.1-1,0.2-1.5-0.1c0.1-0.6,0.1-1.2,0.6-1.6h0.2C283.1,67.3,283.4,67.9,283.3,68.7z"/>
<path class="st2" d="M309.3,70.1c0.1,0.4-0.1,0.7-0.4,0.7c-0.3,0.1-0.6-0.1-0.6-0.5c-0.1-0.4,0.1-0.7,0.4-0.8
	C309,69.5,309.2,69.7,309.3,70.1z"/>
<path class="st1" d="M379.9,87.6c0.5-0.1,0.7,0.3,0.8,0.8c0,0.5-0.2,0.9-0.6,0.9c-0.5,0.1-0.7-0.3-0.8-0.8S379.5,87.7,379.9,87.6z"
	/>
<path class="st2" d="M738.4,87.4c0.5-0.1,0.9-0.2,1.4-0.2c0,0.7-0.2,1.5-0.9,1.3C738.4,88.4,738.5,87.8,738.4,87.4z"/>
<path class="st0" d="M790.7,107.1c0.1-0.3,0.3-0.5,0.6-0.4s0.4,0.4,0.3,0.7c-0.1,0.2-0.3,0.4-0.4,0.4
	C790.9,107.8,790.6,107.6,790.7,107.1z"/>
<path class="st0" d="M819.1,108.5c-1.2,0.1-1.8-0.3-1.2-1.8C818.6,106.9,819.1,107.5,819.1,108.5z"/>
<path class="st0" d="M737.4,127.4c-1-1.9,0.4-1.5,1.2-1.7C738.5,126.5,738.1,127.1,737.4,127.4z"/>
<path class="st3" d="M794.5,118.4c0.3-0.6,0.5-1.3,1.2-1.1c0.4,0.1,0.4,0.7,0.4,1.1C795.6,118.4,795,118.4,794.5,118.4z"/>
<path class="st0" d="M551.7,110c-0.3,0.1-0.6,0.2-0.9,0.3c-0.4-0.4-0.6-0.9-0.7-1.5c0.6-0.1,1.2-0.1,1.6,0.5
	C551.8,109.5,551.7,109.7,551.7,110z"/>
<path class="st2" d="M604.4,48.2c0.1,0.1,0.3,0.2,0.4,0.3c0.1,0.6-0.2,0.9-0.6,0.8c-0.1,0-0.3-0.3-0.3-0.5
	C603.9,48.6,604.1,48.3,604.4,48.2z"/>
<path class="st0" d="M544.5,116.4c-0.1,0.2-0.1,0.5-0.2,0.5c-0.3,0.2-0.6,0-0.6-0.4c0-0.2,0.2-0.4,0.3-0.4
	C544.2,116.1,544.3,116.3,544.5,116.4z"/>
<path class="st0" d="M554.7,90.1c0.1,0.1,0.3,0.3,0.3,0.4c0,0.4-0.2,0.6-0.5,0.5c-0.1,0-0.2-0.4-0.2-0.5
	C554.3,90.3,554.5,90.2,554.7,90.1z"/>
<path class="st3" d="M349.4,93.6c-0.3,0.2-0.7,0.4-1-0.1c-0.2-0.3,0.1-0.6,0.2-0.8C349,93,349.2,93.3,349.4,93.6z"/>
<path class="st0" d="M763.2,99.9c0.4,0,0.8-0.1,1.2-0.1c0,0.7-0.3,1.2-0.6,1.7c-0.2,0-0.4-0.1-0.6-0.1
	C763.2,100.9,763.2,100.4,763.2,99.9z"/>
<path class="st0" d="M531.5,143.9c-0.2-0.1-0.3-0.3-0.2-0.5c0.1-0.1,0.3-0.2,0.5-0.3c0.1,0.2,0.2,0.4,0.1,0.5
	C531.9,143.8,531.7,143.8,531.5,143.9z"/>
<path class="st1" d="M495.7,139.3c0.4,0,0.9,0,0.9,0.6c0.1,0.8-0.5,0.8-1,0.8C495.7,140.3,495.7,139.8,495.7,139.3z"/>
<path class="st3" d="M544.1,33.2c0,0.3-0.1,0.4-0.3,0.4c-0.2-0.1-0.3-0.3-0.2-0.5c0-0.1,0.1-0.2,0.2-0.2
	C544,32.8,544.1,32.9,544.1,33.2z"/>
<path class="st2" d="M385.2,51.8c-0.1,0.1-0.2,0.4-0.3,0.4c-0.3,0-0.6-0.2-0.4-0.6c0.1-0.1,0.3-0.3,0.5-0.3
	C385,51.3,385.1,51.6,385.2,51.8z"/>
<path class="st0" d="M407.4,60.3c0.1,0.1,0.3,0.3,0.3,0.4c0,0.4-0.2,0.6-0.5,0.5c-0.1,0-0.2-0.4-0.2-0.6
	C407,60.5,407.2,60.4,407.4,60.3z"/>
<path class="st1" d="M253.3,66.1c-0.4-1.3,0.2-1.7,1.1-1.8C254.7,65.4,254.2,65.9,253.3,66.1z"/>
<path class="st3" d="M499.7,72c-0.1-0.2-0.2-0.4-0.2-0.5c0.1-0.3,0.3-0.5,0.6-0.3c0.1,0.1,0.1,0.4,0.1,0.5
	C500,71.9,499.8,72,499.7,72z"/>
<path class="st0" d="M330.1,82.1c-0.8,0.1-1.2-0.4-1.2-1.4C329.5,80.9,329.9,81.4,330.1,82.1z"/>
<path class="st3" d="M404.9,84.4c-0.1,0.2-0.3,0.3-0.4,0.1c-0.1-0.1,0-0.4,0-0.5l0.2-0.1C404.8,84.1,404.8,84.2,404.9,84.4z"/>
<path class="st3" d="M438,115.6c-0.2,0-0.3,0.1-0.5,0.1c-0.3-0.3-0.6-0.9-0.1-1.1C438.1,114.2,437.9,115.1,438,115.6z"/>
<path class="st0" d="M726.6,114.2c-0.2,0.1-0.4,0.2-0.5,0.3c-0.3-0.2-0.7-0.6-0.3-1C726.3,113,726.5,113.7,726.6,114.2z"/>
<path class="st2" d="M558.1,110c0.4-0.1,0.8-0.1,1.3-0.2c0,0.3,0.1,0.6,0.1,0.8c-0.3,0.3-0.5,0.5-0.8,0.8
	C558.1,111.2,558.1,110.6,558.1,110z"/>
<path class="st0" d="M699.4,89.9c-0.2-0.1-0.3-0.3-0.2-0.5c0.1-0.1,0.3-0.2,0.5-0.3c0.1,0.2,0.1,0.4,0.2,0.6
	C699.8,89.7,699.6,89.8,699.4,89.9z"/>
<path class="st2" d="M810.6,81.9c0.2,0.2,0.3,0.4,0.5,0.6C810.7,82.6,810.5,82.4,810.6,81.9z"/>
<polygon class="st2" points="812.4,82.5 812.5,82.3 812.6,82.2 812.6,82.4 "/>
<path class="st1" d="M832,336.3c-0.5,0-0.7-0.4-0.7-0.9c0.1-0.7,0.6-0.9,1.1-0.7c0.2,0.1,0.5,0.4,0.5,0.6
	C833,335.9,832.5,336.1,832,336.3z"/>
<path class="st0" d="M689.6,417.2c-0.2,0.2-0.3,0.4-0.5,0.6"/>
<path class="st2" d="M882.9,370.6c-0.3-0.1-0.6-0.2-0.6-0.6c0-0.5,0.3-0.8,0.7-0.8s0.7,0.3,0.7,0.8
	C883.7,370.5,883.3,370.6,882.9,370.6z"/>
<path class="st2" d="M197,278.6c-0.1,0.3-0.3,0.6-0.6,0.4c-0.3-0.1-0.4-0.5-0.3-0.8c0.1-0.2,0.3-0.3,0.5-0.3
	C196.9,277.9,197.1,278.1,197,278.6z"/>
<path class="st0" d="M603.1,419.1c-0.1,0.4-0.3,0.6-0.6,0.5c-0.2-0.1-0.5-0.4-0.6-0.7c-0.1-0.4,0.1-0.7,0.5-0.7
	C602.7,418.3,603,418.7,603.1,419.1z"/>
<path class="st3" d="M887.7,317.7c-0.1,0.3-0.4,0.4-0.7,0.3s-0.4-0.4-0.2-0.8c0.1-0.1,0.3-0.2,0.5-0.2
	C887.6,317.1,887.8,317.3,887.7,317.7z"/>
<path class="st2" d="M915,314.5c0.6,0,0.9,0.2,0.9,0.6s-0.3,0.6-0.6,0.6s-0.6-0.1-0.6-0.6C914.7,314.9,914.9,314.6,915,314.5z"/>
<path class="st1" d="M666.2,427.5c0.5-0.1,1-0.2,1.2,0.6c0.1,0.6-0.2,0.9-0.7,0.9c-0.7,0-0.8-0.5-0.7-1.2
	C666.1,427.8,666.1,427.7,666.2,427.5z"/>
<path class="st2" d="M77.5,312.1c-0.4,0.1-0.8,0.2-1.2,0.2c-0.2-0.7-0.2-1.5,0.6-1.5C77.5,310.8,77.5,311.5,77.5,312.1z"/>
<path class="st2" d="M910,308.2c0,0.4-0.2,0.6-0.4,0.7c-0.3,0.1-0.6-0.1-0.5-0.5c0-0.2,0.2-0.4,0.3-0.5
	C909.6,307.8,909.8,307.9,910,308.2z"/>
<path class="st2" d="M735.4,357.7c0-0.5,0.3-0.8,0.7-0.8c0.3,0,0.6,0.3,0.4,0.7c-0.1,0.3-0.4,0.6-0.6,0.7
	C735.7,358.4,735.4,358.1,735.4,357.7z"/>
<path class="st1" d="M474.7,434.6c0.1-0.4,0.3-0.6,0.6-0.5c0.3,0.1,0.4,0.4,0.3,0.7c-0.1,0.3-0.4,0.5-0.7,0.3
	C474.8,435.1,474.8,434.8,474.7,434.6z"/>
<path class="st2" d="M889.7,321.4c0.1,0.4-0.2,0.7-0.5,0.7c-0.2,0-0.5-0.2-0.5-0.3c-0.1-0.4,0.2-0.7,0.5-0.7
	C889.4,321,889.6,321.2,889.7,321.4z"/>
<path class="st2" d="M212,319.8c-0.3-0.1-0.5-0.3-0.4-0.7c0-0.4,0.3-0.6,0.5-0.6c0.4,0,0.7,0.3,0.6,0.9
	C212.6,319.7,212.3,319.9,212,319.8z"/>
<path class="st2" d="M875.1,322c-0.1-0.1-0.4-0.3-0.4-0.4c0-0.4,0.3-0.6,0.6-0.5c0.1,0,0.3,0.4,0.2,0.5
	C875.5,321.8,875.2,321.9,875.1,322z"/>
<path class="st1" d="M784.9,375.3c0,0.6-0.2,0.9-0.7,1c-0.4,0-0.8-0.1-0.8-0.7c0-0.5,0.2-0.9,0.7-0.9
	C784.5,374.7,784.9,374.8,784.9,375.3z"/>
<path class="st1" d="M268.2,363.3c-0.3,0.1-0.6-0.1-0.7-0.5s0.1-0.7,0.5-0.8c0.3-0.1,0.6,0.1,0.7,0.4
	C268.7,362.9,268.5,363.1,268.2,363.3z"/>
<path class="st0" d="M194.6,275.9c-0.1,0.2-0.2,0.4-0.3,0.5c-0.3,0.1-0.5-0.2-0.4-0.6c0-0.2,0.3-0.3,0.4-0.3
	S194.5,275.7,194.6,275.9z"/>
<path class="st2" d="M802.4,357.7c-0.2-0.1-0.5-0.1-0.5-0.3c-0.1-0.4,0.2-0.6,0.5-0.6c0.2,0,0.4,0.1,0.5,0.3
	C803,357.5,802.7,357.6,802.4,357.7z"/>
<path class="st2" d="M219.7,319.1c-0.1-0.1-0.3-0.3-0.3-0.4c0.1-0.4,0.3-0.5,0.6-0.4c0.1,0.1,0.2,0.4,0.2,0.6
	C220.1,319,219.9,319,219.7,319.1z"/>
<path class="st2" d="M362.5,437.9c-0.6,0-0.8-0.5-0.9-1c0.1-0.1,0.2-0.3,0.3-0.4c0.3,0,0.5,0,0.8,0
	C362.6,437,362.5,437.5,362.5,437.9z"/>
<path class="st0" d="M689.7,417.2c0.3,0.3,0.9,0.7,0.3,1.2c-0.3,0.3-0.6-0.3-0.8-0.7C689.3,417.6,689.5,417.4,689.7,417.2z"/>
<path class="st2" d="M594.7,454.4c-0.3,0.6-0.8,0.8-1.4,0.7C593.5,454.1,594,454,594.7,454.4z"/>
<path class="st0" d="M660.6,394.8c0-0.1,0.2-0.3,0.3-0.4c0.4,0.3,0.8,0.6,1.1,0.8"/>
<polygon class="st0" points="691.7,419.4 691.7,419.1 691.9,419.2 "/>
<path class="st0" d="M662,395.2"/>
<path class="st0" d="M616.5,439.4c0,1.3-0.9,2.4-1.9,2.3c-1.1-0.1-1.6-0.9-1.6-2.1c0-1.3,0.7-1.9,1.8-1.9
	C615.8,437.6,616.4,438.3,616.5,439.4z M614.8,440.5c0.5-0.2,0.9-0.4,0.9-1.2c0-0.5-0.4-0.8-0.8-0.9c-0.6-0.1-1,0.4-1,1
	C613.8,440.2,614.2,440.5,614.8,440.5z"/>
<path class="st2" d="M74.4,385.9c0.6,0.8,1.7,1.3,0.8,2.5c-0.2,0.2-0.6,0.4-0.8,0.2C73.4,387.9,74,386.9,74.4,385.9z"/>
<path class="st1" d="M105.5,397.8c-0.6,0.5-1.3,1.1-1.7,0c-0.5-1.3,0.5-1.5,1.3-1.7C105.4,396.6,105.9,397.1,105.5,397.8z"/>
<path class="st1" d="M881.5,402.9c0,0.7-0.3,1.3-1.1,1.2c-0.5-0.1-0.9-0.6-0.9-1.2s0.5-1,1-1.1C881.2,401.7,881.5,402.2,881.5,402.9
	z"/>
<path class="st1" d="M70.9,349.7c0.3,0,0.6,0.2,0.6,0.6c0,0.5-0.3,0.9-0.7,0.9c-0.3,0-0.6-0.2-0.6-0.6
	C70.2,350.1,70.5,349.8,70.9,349.7z"/>
<path class="st0" d="M430.8,502.8c0.3,0,0.6,0.2,0.6,0.5c0,0.5-0.2,0.9-0.6,1c-0.3,0.1-0.6-0.2-0.6-0.5
	C430.2,503.3,430.4,502.9,430.8,502.8z"/>
<path class="st2" d="M504.9,476.4c-0.4,0-0.8-0.3-0.7-0.8c0.1-0.5,0.5-0.5,0.9-0.5c0.3,0,0.6,0.1,0.6,0.5
	C505.6,476,505.3,476.3,504.9,476.4z"/>
<path class="st0" d="M605.1,500.7c-0.4,0-0.5-0.3-0.5-0.7c0-0.2,0.2-0.5,0.3-0.5c0.4,0,0.5,0.3,0.5,0.7
	C605.3,500.4,605.2,500.6,605.1,500.7z"/>
<path class="st1" d="M809.1,404.6c0,0.5-0.3,0.8-0.7,0.9s-0.8-0.1-0.8-0.6s0.2-0.9,0.7-0.9C808.7,403.9,809,404.1,809.1,404.6z"/>
<path class="st2" d="M147.4,389.8c-0.3-0.1-0.5-0.2-0.5-0.6c0.1-0.3,0.4-0.5,0.6-0.4c0.1,0.1,0.3,0.3,0.3,0.4
	C147.9,389.6,147.7,389.7,147.4,389.8z"/>
<path class="st1" d="M749.6,428.9c-0.3,0-0.7-0.1-0.7-0.5c0-0.8,0.6-0.8,1.1-0.8c0.4,0,0.5,0.3,0.5,0.7
	C750.4,428.9,750,428.9,749.6,428.9z"/>
<path class="st2" d="M890.6,406.3c-0.2-0.1-0.4-0.3-0.3-0.7c0.1-0.3,0.4-0.5,0.7-0.3c0.1,0.1,0.3,0.3,0.3,0.5
	C891.2,406.1,891,406.3,890.6,406.3z"/>
<path class="st0" d="M499.6,497.1c0.1,0.1,0.4,0.2,0.4,0.3c0.1,0.2-0.1,0.4-0.3,0.3c-0.1,0-0.2-0.1-0.2-0.2
	C499.3,497.3,499.3,497.2,499.6,497.1z"/>
<path class="st2" d="M642.9,456c-0.1,0.2-0.1,0.5-0.2,0.6c-0.3,0.2-0.6,0.1-0.7-0.3c0-0.2,0.1-0.5,0.2-0.6
	C642.4,455.4,642.7,455.6,642.9,456z"/>
<path class="st2" d="M832.1,403.5c-0.7,0-1-0.2-1-0.6s0.3-0.5,0.6-0.5s0.6,0.1,0.6,0.5C832.2,403.3,832,403.5,832.1,403.5z"/>
<path class="st2" d="M153,399.4c-0.5,0.2-1,0.3-1.6,0C151.9,398.5,152.5,398.1,153,399.4z"/>
<path class="st2" d="M510.5,472.6c-0.1,0.2-0.1,0.5-0.2,0.5c-0.1,0.1-0.4-0.1-0.5-0.2c-0.1-0.2,0-0.5,0.2-0.5
	C510.1,472.4,510.3,472.5,510.5,472.6z"/>
<path class="st2" d="M661.9,492.8c-0.5,0.4-0.9,0.6-1.4,0C661,492.2,661.5,492.2,661.9,492.8z"/>
<polygon class="st0" points="544.2,498.5 544.4,498.6 544.2,498.7 "/>
<path class="st2" d="M563.6,461.5c0.1-0.1,0.3-0.3,0.4-0.3c0.2,0,0.2,0.3,0.1,0.5c-0.1,0.1-0.1,0.2-0.2,0.2
	C563.6,461.9,563.5,461.7,563.6,461.5z"/>
<path class="st1" d="M171.9,518.9c0.4,0,0.8,0.1,0.8,0.7c0,0.4-0.4,0.8-0.8,0.8c-0.4,0.1-0.8-0.2-0.8-0.7
	C171.2,519.2,171.5,519,171.9,518.9z"/>
<path class="st2" d="M818,507.8c-0.1,0.1-0.3,0.3-0.4,0.4c-0.1-0.2-0.3-0.4-0.2-0.5c0-0.1,0.2-0.4,0.4-0.4S818,507.5,818,507.8z"/>
<path class="st3" d="M550.3,529c-0.3-0.2-0.5-0.3-0.8-0.5C549.8,528.7,550,528.8,550.3,529z"/>
<path class="st0" d="M73.1,51.6c0-0.8,0.5-1.6,1.5-1.9c0.5-0.1,0.7,0.3,0.7,0.8c0,1.3-0.7,1.9-1.6,2.1
	C73.4,52.8,73.1,52.5,73.1,51.6z"/>
<path class="st0" d="M556.4,212.6c-0.5,0-0.8-0.2-0.8-0.8c0-0.9-0.1-2,0.9-2.2c0.5-0.1,1,0.5,1.1,1
	C557.9,211.7,557,212.1,556.4,212.6z"/>
<path class="st1" d="M142.5,93.3c0.1,1-0.5,1.4-1.1,1.7c-0.5,0.2-1-0.1-1-0.8c-0.1-0.9,0.4-1.5,1.1-1.7
	C142.1,92.3,142.4,92.7,142.5,93.3z"/>
<path class="st2" d="M78.6,48.1c-0.6,0-0.9-0.2-1-0.7c-0.1-0.9,0.4-1.3,1-1.4c0.5-0.1,0.7,0.2,0.8,0.7C79.5,47.5,79,47.9,78.6,48.1z
	"/>
<path class="st0" d="M83.5,35.9c-0.5,1.7-1.7,2.5-3,3.1C81.2,35.6,81.3,35.5,83.5,35.9z"/>
<path class="st3" d="M108.7,72.7c-0.2,0.8-0.7,1.1-1.3,1c-0.3-0.1-0.5-0.4-0.5-0.7c0-0.8,0.4-1.3,1.1-1.2
	C108.4,71.7,108.7,72.1,108.7,72.7z"/>
<path class="st0" d="M97.4,39.6c1.8,0.4,1.8,0.6,1,2.4c-0.6,0.1-1.2,0.2-1.8,0.3c0-0.5,0-0.9,0-1.4C96.9,40.5,97.1,40.1,97.4,39.6z"
	/>
<path class="st3" d="M129.1,107.2c-0.6-1-1.9-1.9,0-2.9C129.7,105.3,130.8,106.3,129.1,107.2z"/>
<path class="st0" d="M543.6,223c-0.4-0.1-0.8,0-1-0.5c-0.2-0.4,0.1-0.6,0.4-0.7c0.4-0.1,0.8,0.1,1,0.6
	C544.2,222.8,544,223,543.6,223z"/>
<path class="st3" d="M252.8,102.9c-0.3,1-0.8,1.5-1.7,1.1C251.2,102.5,251.9,102.5,252.8,102.9z"/>
<path class="st0" d="M204.6,100.4c0.3,0.1,0.6,0.3,0.6,0.6c0,0.5-0.4,0.7-0.8,0.7c-0.3,0-0.5-0.3-0.5-0.6
	C203.9,100.5,204.2,100.3,204.6,100.4z"/>
<path class="st0" d="M295.2,112.4c-0.2,0.1-0.5,0.2-0.7,0.3c-0.3-0.8-0.3-1.7-0.2-2.6c0.7,0.4,1.1,1.1,1.2,2
	C295.4,112.2,295.3,112.3,295.2,112.4z"/>
<path class="st0" d="M540.7,206.1c-0.1,0.1-0.3,0.3-0.4,0.3c-0.3,0-0.5-0.3-0.4-0.7c0-0.1,0.3-0.3,0.4-0.3
	C540.6,205.4,540.8,205.7,540.7,206.1z"/>
<path class="st2" d="M383.1,176v0.1c-0.2,0.4-0.4,0.8-0.8,0.5c-0.3-0.2-0.3-0.6-0.1-0.8C382.6,175.3,382.9,175.6,383.1,176z"/>
<path class="st0" d="M273.2,98.8c1-0.2,1.6,0,1.1,1.4C273.7,100,273.4,99.4,273.2,98.8z"/>
<path class="st2" d="M453.9,236.7c-0.3,0-0.6,0-0.5-0.4c0-0.2,0.4-0.4,0.6-0.5c0.1,0,0.4,0.2,0.4,0.3
	C454.5,236.5,454.2,236.6,453.9,236.7z"/>
<path class="st3" d="M249.7,97.9c0.7,0.1,1.2,0.5,1.2,1.4C250.1,99.3,249.8,98.7,249.7,97.9z"/>
<path class="st1" d="M361.8,162.7c-0.1,0.2-0.2,0.5-0.3,0.5c-0.3,0.1-0.6,0-0.6-0.4c0-0.2,0.1-0.5,0.3-0.5
	C361.5,162.1,361.7,162.4,361.8,162.7z"/>
<path class="st1" d="M343.7,161.3c-0.1,0.4-0.3,0.6-0.6,0.5c-0.3-0.1-0.4-0.5-0.3-0.8c0-0.2,0.3-0.3,0.4-0.3
	C343.5,160.6,343.8,160.8,343.7,161.3z"/>
<path class="st0" d="M336.1,138.8c0.1,0.1,0.2,0.2,0.3,0.4c-0.1,0.1-0.2,0.2-0.4,0.3l-0.2-0.2C336,139.1,336,139,336.1,138.8z"/>
<path class="st2" d="M428.3,234.8c0.1,0.1,0.4,0.2,0.4,0.3c0.1,0.4-0.1,0.6-0.4,0.7c-0.1,0-0.4-0.1-0.4-0.3
	C427.9,235.2,428,234.9,428.3,234.8z"/>
<path class="st2" d="M678.4,143.2c0.1-0.7,0.3-1.4,1-1.4s0.6,0.7,0.5,1.3C679.5,143.4,679,143.6,678.4,143.2z"/>
<path class="st1" d="M315.6,89.4c-0.4-0.1-0.7-0.4-0.7-0.9c0-0.7,0.3-1.1,0.9-1c0.4,0.1,0.8,0.4,0.8,0.9
	C316.5,89,316.2,89.4,315.6,89.4z"/>
<path class="st0" d="M702.6,137.6c0.5,0.2,0.9,0.6,0.7,1.3c-0.1,0.3-0.4,0.6-0.6,0.7c-0.7,0.1-0.7-0.6-0.8-1.1
	C702.2,138.2,702.4,137.9,702.6,137.6z"/>
<path class="st1" d="M411.8,148.4c0,0.4-0.1,0.8-0.1,1.3l-0.1,0.1c-0.3,0.1-0.6,0.1-0.9,0.2C410.2,148.3,410.2,148.1,411.8,148.4z"
	/>
<path class="st2" d="M574.6,202.8c0.9-0.5,1.4-0.3,1.3,1.1C575,204.3,574.5,204.1,574.6,202.8z"/>
<path class="st0" d="M611.5,202.4c-0.1-0.3,0-0.4,0.3-0.5c0.2,0,0.4-0.1,0.5,0c0.2,0.1,0.2,0.4,0,0.4
	C612,202.4,611.7,202.4,611.5,202.4z"/>
<path class="st3" d="M449.5,141.6c-0.1,0.2-0.2,0.4-0.2,0.6c-0.2-0.1-0.4-0.1-0.5-0.3s0-0.5,0.2-0.6
	C449.2,141.2,449.4,141.3,449.5,141.6z"/>
<path class="st3" d="M328.5,112.7c0-0.4,0-0.8,0-1.2c0.4,0,0.9,0,0.9,0.6C329.3,112.7,328.9,112.7,328.5,112.7z"/>
<path class="st1" d="M384.8,109.3c-0.2,0.3-0.5,0.5-0.7,0.8c-0.4-0.4-0.7-0.9-0.2-1.4C384.3,108.4,384.7,108.8,384.8,109.3z"/>
<path class="st3" d="M313.4,109.8c0-1,0.4-1.4,1.2-1.3C314.5,109.4,314,109.7,313.4,109.8z"/>
<path class="st0" d="M580.3,210.1c0.2,0,0.4,0.1,0.6,0.1c-0.1,0.6-0.5,1-0.9,1.3c-0.2-0.3-0.4-0.5-0.6-0.7
	C579.7,210.6,580,210.3,580.3,210.1z"/>
<path class="st0" d="M579.7,211.9c-0.2-0.1-0.5-0.1-0.7-0.2c0.1-0.3,0.3-0.7,0.4-1c0.2,0.2,0.4,0.5,0.6,0.7
	C579.9,211.7,579.8,211.8,579.7,211.9z"/>
<path class="st1" d="M53.9,449.9c-0.6-0.1-0.9-0.4-0.9-0.9c0-0.8,0.2-1.4,1-1.4c0.4,0,0.8,0.3,0.8,0.8
	C54.9,449.3,54.4,449.8,53.9,449.9z"/>
<path class="st0" d="M89.6,463.1c-0.1,0.5-0.4,0.8-0.8,0.8c-0.6-0.1-0.8-0.5-0.7-1.2c0.1-0.5,0.5-0.7,0.9-0.6
	C89.5,462.3,89.6,462.6,89.6,463.1z"/>
<path class="st2" d="M134.5,427.7c-0.3-0.1-0.6-0.3-0.5-0.7c0.1-0.5,0.4-0.7,0.9-0.7c0.3,0.1,0.6,0.3,0.5,0.7
	C135.3,427.6,134.9,427.7,134.5,427.7z"/>
<path class="st1" d="M143.3,454.4c-0.3-0.1-0.5-0.3-0.5-0.7c0-0.8,0.5-0.9,1-0.8c0.3,0.1,0.5,0.4,0.4,0.7
	C144.1,454.2,143.8,454.5,143.3,454.4z"/>
<path class="st0" d="M217.1,473.7c-0.1,0.2-0.2,0.5-0.3,0.5s-0.4-0.1-0.4-0.3c-0.1-0.4,0-0.7,0.4-0.7
	C216.9,473.2,217,473.5,217.1,473.7z"/>
<path class="st2" d="M108.6,442.7c-0.6,0-0.9-0.2-0.8-0.6c0-0.4,0.3-0.6,0.6-0.6c0.3,0,0.6,0.2,0.6,0.6
	C108.9,442.4,108.6,442.7,108.6,442.7z"/>
<path class="st0" d="M372.6,506.5c-0.1,0.1-0.2,0.3-0.4,0.4c-0.1,0-0.2-0.2-0.4-0.3c0.1-0.1,0.2-0.3,0.4-0.4
	S372.6,506.2,372.6,506.5z"/>
<polygon class="st0" points="226.9,478.8 226.9,478.6 227,478.7 "/>
<path class="st2" d="M61,431.8c0.1-0.1,0.2-0.3,0.4-0.4c0.2,0,0.3,0.2,0.3,0.5c0,0.1-0.1,0.2-0.2,0.2C61.2,432.2,61,432.1,61,431.8z
	"/>
<path class="st0" d="M888.9,114.7c-0.2-0.8-0.5-1.5-0.6-2.3c-0.2-0.9-0.2-2,0.8-2.2c0.9-0.2,1.4,0.5,1.6,1.6c0.1,0.7,0.2,1.4,0.3,2
	C890.2,114.2,889.6,114.7,888.9,114.7z"/>
<path class="st2" d="M865.8,136c0.4,1.2,0.4,2.4-1,2.5c-1.5,0.1-0.9-1.6-1.3-2.5C864.3,135.9,865,135.9,865.8,136z"/>
<path class="st0" d="M909.9,112.6c-0.1-1.1-1-2.7,1-2.5c0.6,0.1,1.1,0.6,1,1.4c-0.1,1.3-1,1.1-1.8,1.2
	C910.2,112.7,909.9,112.6,909.9,112.6z"/>
<path class="st1" d="M901.1,66.5c-0.2,0.4-0.3,0.8-0.5,1.3c-0.1-0.1-0.2-0.1-0.3-0.2c-0.5-0.4-1.5,0-1.4-1.3c0-0.5,0.2-0.9,0.6-1
	C900.4,65.1,900.8,65.8,901.1,66.5z"/>
<path class="st2" d="M740,174.9c-0.8-0.4-1.3,0.7-2,1.2c-0.3,0.2-0.6,0.1-0.8-0.2c-0.3-0.5,0.1-1,0.4-1
	C738.5,174.8,739.4,174.9,740,174.9z"/>
<path class="st2" d="M726.6,144.8c-0.1,0.5-0.5,0.8-1.1,0.8c-0.3,0-0.6-0.3-0.5-0.7c0.1-0.7,0.5-1,1.1-0.9
	C726.4,144,726.6,144.2,726.6,144.8z"/>
<path class="st0" d="M752.3,173.3c0.1-0.1,0.2-0.2,0.3-0.4c1.5,0.7,1.6,0.9,0.5,2.7c-0.2-0.3-0.4-0.6-0.6-0.9
	C752.4,174.3,752.3,173.8,752.3,173.3z"/>
<path class="st2" d="M743.1,166.3c-0.4-0.1-0.8-0.1-0.8-0.7c0.1-0.7,0.5-0.9,1-0.9c0.4,0,0.8,0.1,0.8,0.7S743.7,166.3,743.1,166.3z"
	/>
<path class="st0" d="M802.4,168.9c-0.1,0.4-0.4,0.6-0.8,0.6c-0.3,0-0.6-0.2-0.5-0.6c0.1-0.5,0.4-0.8,0.8-0.8
	C802.2,168.2,802.5,168.4,802.4,168.9z"/>
<path class="st2" d="M681.4,177c0.2-0.1,0.4-0.4,0.6-0.5c0.3-0.1,0.6,0.2,0.5,0.6c0,0.4-0.3,0.6-0.6,0.6
	C681.7,177.7,681.5,177.5,681.4,177z"/>
<path class="st0" d="M713,154c-0.1,0.3-0.3,0.5-0.7,0.4c-0.3-0.1-0.4-0.5-0.3-0.8c0.1-0.2,0.3-0.3,0.5-0.3
	C712.9,153.3,713.1,153.5,713,154z"/>
<path class="st3" d="M643.4,196.5c-0.1,0.4-0.3,0.6-0.6,0.5s-0.5-0.4-0.3-0.7c0.1-0.2,0.3-0.4,0.4-0.4
	C643.2,195.9,643.3,196.1,643.4,196.5z"/>
<path class="st3" d="M761.6,141.7c-0.4,0.1-0.8,0.1-0.8-0.4c-0.1-0.5,0.3-0.7,0.7-0.9C761.7,140.8,761.7,141.2,761.6,141.7z"/>
<path class="st0" d="M690.4,187.6c-0.1,0.3-0.3,0.6-0.6,0.6c-0.1,0-0.2-0.3-0.2-0.5c0-0.4,0.2-0.6,0.6-0.6
	C690.3,187.1,690.3,187.4,690.4,187.6z"/>
<path class="st0" d="M875.8,97.4c-0.1,0.1-0.3,0.4-0.4,0.4c-0.4,0-0.5-0.4-0.3-0.7c0.1-0.1,0.4-0.2,0.5-0.2
	C875.7,96.9,875.7,97.2,875.8,97.4z"/>
<path class="st3" d="M781.5,169.7c-0.3,0.3-0.6,0.5-0.9,0.8c-0.2-0.4-0.3-0.9,0-1.2C781,169,781.3,169.3,781.5,169.7z"/>
<path class="st0" d="M724.4,138.5c-0.1,0.2-0.1,0.4-0.2,0.5c-0.1,0.1-0.3-0.1-0.5-0.2c0.1-0.2,0.1-0.4,0.2-0.5
	C724.1,138.2,724.3,138.4,724.4,138.5z"/>
<path class="st1" d="M908.8,450.4c0,0.4-0.1,0.7-0.4,0.8c-0.4,0.2-0.8,0-1-0.5c-0.1-0.4,0.1-0.6,0.4-0.8
	C908.2,449.8,908.6,450,908.8,450.4z"/>
<path class="st2" d="M871.5,469.3c-0.1,0.4-0.3,0.6-0.6,0.5s-0.5-0.3-0.5-0.7c0-0.4,0.4-0.5,0.7-0.5
	C871.3,468.7,871.5,468.9,871.5,469.3z"/>
<path class="st2" d="M894.2,427.8c-0.3,0-0.5-0.2-0.5-0.5c0-0.4,0.3-0.6,0.5-0.5c0.1,0,0.4,0.2,0.4,0.3
	C894.8,427.4,894.6,427.7,894.2,427.8z"/>
<path class="st2" d="M723.5,466.7c0.2,0.1,0.3,0.1,0.5,0.2c-0.1,0.2-0.2,0.4-0.3,0.5c-0.1,0-0.3-0.1-0.4-0.2
	C723.3,467.1,723.4,466.9,723.5,466.7z"/>
<path class="st1" d="M774,439.3c0,0.4-0.2,0.7-0.5,0.7s-0.6-0.2-0.6-0.6s0.2-0.7,0.5-0.7S773.9,438.9,774,439.3z"/>
<polygon class="st0" points="729.8,494.4 729.6,494.4 729.7,494.2 "/>
<path class="st1" d="M808.2,33.9c-0.1,0.3-0.3,0.6-0.6,0.5c-0.3-0.1-0.6-0.2-0.4-0.7c0.1-0.3,0.3-0.6,0.6-0.6
	C808,33.3,808.3,33.5,808.2,33.9z"/>
<path class="st0" d="M817.3,131.1c0.2,0.1,0.3,0.3,0.2,0.7c-0.1,0.3-0.4,0.4-0.7,0.2c-0.1-0.1-0.3-0.4-0.2-0.5
	C816.6,131.2,816.8,131,817.3,131.1z"/>
<path class="st0" d="M748.1,129.9c-0.5,0.4-1,0.8-1.7,0.7C746.7,129.3,747.1,128.5,748.1,129.9z"/>
<path class="st0" d="M876.4,62.5c0.3,1.1,0.9,2.3-0.5,2.8c-0.6,0.2-1.2-0.1-1.3-0.9C874.3,62.7,875.4,62.7,876.4,62.5
	C876.3,62.5,876.4,62.5,876.4,62.5z"/>
<path class="st1" d="M628.4,131.4c-0.1,1-0.6,1.4-1.4,1.3c-0.5-0.1-0.9-0.5-0.9-1.2c0-1,0.6-1.4,1.3-1.5
	C628.2,129.9,628.4,130.6,628.4,131.4z"/>
<path class="st1" d="M614.8,440.5c-0.6,0-1-0.4-1-1c0-0.7,0.4-1.1,1-1c0.4,0,0.7,0.3,0.8,0.9C615.7,440.1,615.3,440.4,614.8,440.5z"
	/>
</svg>
