<?xml version="1.0" encoding="utf-8"?>
<!-- Generator: Adobe Illustrator 25.2.1, SVG Export Plug-In . SVG Version: 6.00 Build 0)  -->
<svg version="1.1" id="Calque_1" xmlns="http://www.w3.org/2000/svg" xmlns:xlink="http://www.w3.org/1999/xlink" x="0px" y="0px"
	 viewBox="0 0 900 597.1" style="enable-background:new 0 0 900 597.1;" xml:space="preserve">
<style type="text/css">
	.st0{fill:#FEA8AA;}
	.st1{fill:#FDC5B7;}
	.st2{fill:#FFF3E3;}
	.st3{fill:#FCDDCB;}
	.st4{fill:#FFFFFF;}
	.st5{fill:#FDB2AE;}
	.st6{fill:#E893A1;}
</style>
<path class="st0" d="M-28.2,439c0,0,19.9,85.9,96.4,102.2c76.5,16.2,42.2,29.6,121.1,30.6s53.4,21,117.9,81.2
	c64.5,60.2,66.1,61.1,98.8,56.3s55.8-21,147.4,1.9s84.5-22.9,109.2-56.3s54.2-30.6,110.8-32.5s133.1-44.9,151.4-101.2
	c18.3-56.3,4.8-128.9,4.8-128.9l-965.1-21L-28.2,439z"/>
<path class="st1" d="M-24.6,346.5c0,0,19.7,74.5,95.4,88.5s41.8,25.6,119.9,26.5s52.8,18.2,116.7,70.3s65.4,52.9,97.8,48.8
	c32.4-4.1,55.2-18.2,145.9,1.7c90.7,19.9,83.6-19.9,108-48.8c24.4-29,53.6-26.5,109.6-28.1c56-1.7,131.7-38.9,149.8-87.7
	s4.7-111.7,4.7-111.7l-954.9-18.2L-24.6,346.5z"/>
<path class="st2" d="M-37.9,197.4c0,0,19.7,74.5,95.4,88.5c75.7,14.1,41.8,25.6,119.9,26.5s52.8,18.2,116.7,70.3
	s65.4,52.9,97.8,48.8s55.2-18.2,145.9,1.7c90.7,19.9,83.6-19.9,108-48.8c24.4-29,53.6-26.5,109.6-28.1c56-1.7,131.7-38.9,149.8-87.7
	s4.7-111.7,4.7-111.7L-45,138.7L-37.9,197.4z"/>
<path class="st3" d="M-9.1,222.9c0,0,38,31,107,40c69,9,93-1,149,53s113,98,178,78s69-6,108-1s70,3,137-39s62-27,115-35
	s120-45,120-45l3,76c0,0-37,26-85,36s-73-17-147,37c-34.5,25.1-52.6,36.7-72.8,40.3c-23.3,4.1-51.8,9.3-64.2,9.7
	c-21.6,0.7-22.8-1.1-43-1c-12.5,0.1-53,10-88,1s-116-21-152-60s-32-67-112-77s-169-18-173-44S-9.1,222.9-9.1,222.9z"/>
<path class="st4" d="M-49.7,66.5c0,0,19.9,82.4,96.3,98s42.2,28.4,121,29.3c78.8,0.9,53.3,20.1,117.8,77.8s66.1,58.6,98.7,54
	c32.6-4.6,55.7-20.1,147.3,1.8s84.4-22,109.1-54s54.1-29.3,110.7-31.1c56.5-1.8,132.9-43,151.3-97c18.3-54,4.8-123.6,4.8-123.6
	L-56.9,1.5L-49.7,66.5z"/>
<path class="st5" d="M11.2,365.1c0,0,36.7,29.9,103.2,38.6c66.6,8.7,89.7-1,143.7,51.1s106.2,71.7,171.7,75.2
	c43.6,2.3,66.6-5.8,104.2-1s67.5,2.9,132.1-37.6s59.8-26,110.9-33.8s115.7-43.4,115.7-43.4l2.9,73.3c0,0-35.7,25.1-82,34.7
	c-46.2,9.7-70.3-16.3-141.7,35.8c-33.2,24.3-50.7,35.4-70.2,38.8c-22.5,4-50,9-62,9.4c-20.8,0.7-22-1.1-41.5-1
	c-12.1,0.1-51.1,9.6-84.9,1c-33.8-8.7-111.9-20.3-146.6-57.9c-34.7-37.6-30.9-64.6-108-74.3c-77.1-9.6-163-17.3-166.8-42.4
	C-12,406.5,11.2,365.1,11.2,365.1z"/>
<path class="st6" d="M-56.6,406.9c0,0,42.2,40.9,118.8,52.8s103.2-1.3,165.4,70s122.2,98.2,197.6,103c50.2,3.2,76.6-7.9,119.9-1.3
	c43.3,6.6,90.6-16.9,164.9-72.3s71.4-41.8,114.8-41.2c59.5,0.8,133.2-59.4,133.2-59.4l3.3,100.3c0,0-17.2,59.7-70.5,72.9
	c-53.2,13.1-104.9-32-187,39.2c-38.3,33.2-58.4,48.4-80.8,53.2c-25.9,5.5-57.6,12.3-71.3,12.8c-23.9,0.9-25.3-1.5-47.7-1.3
	c-13.9,0.1-58.8,13.2-97.7,1.3s-128.8-27.7-168.7-79.2s-38.1,6.5-126.9-6.7C21.8,637.8-77,627.3-81.4,592.9
	C-85.9,558.6-56.6,406.9-56.6,406.9z"/>
</svg>
