<?xml version="1.0" encoding="utf-8"?>
<!-- Generator: Adobe Illustrator 25.2.1, SVG Export Plug-In . SVG Version: 6.00 Build 0)  -->
<svg version="1.1" id="Calque_1" xmlns="http://www.w3.org/2000/svg" xmlns:xlink="http://www.w3.org/1999/xlink" x="0px" y="0px"
	 viewBox="0 0 1773 500.4" style="enable-background:new 0 0 1773 500.4;" xml:space="preserve">
<style type="text/css">
@font-face {
    font-family: 'EdwardianScriptITC';
    font-style: normal;
    font-weight: 400;
    src: url(../font/ITCEDSCR.woff2) format('woff2');
  }

  @font-face {
    font-family: 'FrenchScriptMT';
    font-style: normal;
    font-weight: 400;
    src: url(../font/FrenchScriptMT.woff2) format('woff2');
  }
	.st0{fill:none;}
	.st1{fill:none;stroke:#001E4F;stroke-miterlimit:10;}
</style>
<path id="SVGID_x5F_1_x5F_" class="st0" d="M-26.1-174.4C-0.2,49,267.1,267.8,464.8,236.4c77.1-12.2,161.9-65.5,260.5-23.4
	c31.1,13.3,41.2,26.5,66.8,43.4c103.5,68.4,223.6,51.7,327.3,33.4c165.3-29.2,114.4-28.4,222.9-30.1
	c102-1.6,440.3,216.3,454.2,122.7"/>
<text><textPath  xlink:href="#SVGID_x5F_1_x5F_" startOffset="9.936%">
<tspan  style="fill:#1E3E7D; font-family:'EdwardianScriptITC'; font-size:58.8595px;">Poly-Prose </tspan><tspan  style="fill:#1E3E7D; font-family:'FrenchScriptMT'; font-size:58.8595px;">philosophico</tspan><tspan  style="fill:#1E3E7D; font-family:'EdwardianScriptITC'; font-size:58.8595px;">-politique </tspan><tspan  style="fill:#1E3E7D; font-family:'FrenchScriptMT'; font-size:58.8595px;">engagée</tspan><tspan  style="fill:#1E3E7D; font-family:'EdwardianScriptITC'; font-size:58.8595px;"> dans la </tspan><tspan  style="fill:#1E3E7D; font-family:'FrenchScriptMT'; font-size:58.8595px;">Transformation </tspan></textPath>
</text>
<path id="SVGID_x5F_2_x5F_" class="st1" d="M-34.4-119.6c25.9,223.4,293.2,442.2,490.9,410.8c77.1-12.2,161.9-65.5,260.5-23.4
	c31.1,13.3,41.2,26.5,66.8,43.4c103.5,68.4,223.6,51.7,327.3,33.4c165.3-29.2,114.4-28.4,222.9-30.1
	c102-1.6,440.3,216.3,454.2,122.7"/>
<text><textPath  xlink:href="#SVGID_x5F_2_x5F_" startOffset="31.4657%">
</textPath>
</text>
</svg>
